<svg xmlns="http://www.w3.org/2000/svg" viewBox="0 0 1076.26 1354.87"><defs><style>.cls-1{fill:#66c5da;}.cls-2{fill:#f6f4f4;}.cls-3{fill:#f6ac7d;}.cls-4{fill:#b81825;}.cls-5{fill:#1f2429;}.cls-6{fill:#854c3c;}.cls-7{fill:#512110;}.cls-8{fill:#1d1d1b;}</style></defs><g id="Capa_2" data-name="Capa 2"><g id="logos"><circle class="cls-1" cx="547.01" cy="521.66" r="514.07"/><path class="cls-2" d="M613.46,717.6l48.69-55.74H771.3L870,714.92l-30.6,44.2s-51.38,23.64-111.14-7.93l-40.77,7.93S623.53,772,613.46,717.6Z"/><path class="cls-3" d="M687.52,677.3s-53.08,2.37-63.91,55.25c0,0-54.49-56.45,8-113.61l55.93-86.66-32.89-27.39L597.86,531.8l-33.74-8.53L581.75,483l101.56-61.09,39,41.29,12,24,73.21-9.81,71.28,19.53,28.88-55.5,66.7,22.8,73,51.64s-11.73,26.42-14.79,27.76-57.08.67-57.08.67l-33.58-21L931,548.34S985.11,599.49,992.21,761c0,0-55.22,317.47-541.72,269.9L575,898.22l112.57-139.1,39.83-14.38,69.18,27.08,57.67-27.08S820.3,677,729.15,689.39Z"/><path class="cls-2" d="M697.09,632.59s62.79,1.73,89.33-95c0,0,4.58,71.28.57,119.45l-14.67-9.3Z"/><path class="cls-2" d="M687.52,759.12,462.38,1019.85s57.24,14.58,164.55,11.79S766.59,993.88,791,951.79,870.93,847,842.27,809.4s-79.72-41.78-79.72-41.78l-34.26-16.43Z"/><path class="cls-4" d="M662.15,809l-48.69,58.44s319,59.82,382.84-76.55l-6.71-49.06S926.44,845.89,662.15,809Z"/><path class="cls-5" d="M36,610.75S143.54,1032,468.92,1030.87L351.63,337.08l-82.9,32.18s-70,28.42-87.6,16.51C181.13,385.77,142.14,524.53,36,610.75Z"/><path class="cls-6" d="M268.73,163.11s47.19-39.84,145.55-6.82c0,0,57.88,9.72,161.85-33.71,0,0,63.67,11.64,48.45,125.16s-158.87,93.88-207.5,62.95c0,0-7.54,69.41,103.56,90.89H579.4s6.67,65.35-96.32,59.08l-77.52-23.84s-66.66,3.24-70.24-11.08,1-34-7.1-42.1-28.73-10.74-28.73-10.74-25.82,5.41-27.69-28.64C271.8,344.26,298,239.89,268.73,163.11Z"/><path class="cls-2" d="M396.54,151s17.58,74.65,144.75,20.24L518.9,137.37S449.7,182.45,396.54,151Z"/><path class="cls-2" d="M341.32,427.15s25.2,84.11-19,87.43S195.76,747.2,252.66,906.44s295.1,120.21,295.1,120.21S476,693.57,464.59,456.54C464.59,456.54,364.55,392.81,341.32,427.15Z"/><path class="cls-7" d="M263.17,175.24s-46.16-20.63-99.4,87.17S198.3,383.64,198.3,383.64s65.37,9,73.5-39.38C271.8,344.26,320.89,197,263.17,175.24Z"/><path class="cls-4" d="M166.48,447.77l-45.32,80.71s91.56,67.57,236.78,98.26h111l-6.76-101.86S353.71,565.89,166.48,447.77Z"/><ellipse class="cls-8" cx="654.63" cy="943.78" rx="36.44" ry="29.09" transform="translate(-445.8 1272.9) rotate(-71.9)"/><ellipse class="cls-8" cx="679.25" cy="878.22" rx="24.33" ry="27.15" transform="translate(-293.33 1413.69) rotate(-81.12)"/><path class="cls-8" d="M695.54,697.65C685.11,685.77,652,646.22,686,634.21c31.5-11.12,85.9,0,95,7.22,10.9,8.68,14,34.78-44.19,64.44C726.41,711.15,708.31,712.2,695.54,697.65Z"/><path class="cls-8" d="M704.17,697a71.86,71.86,0,0,0-1.09,8.78,70.9,70.9,0,0,0,.32,13.11,94.34,94.34,0,0,0,2,11.8,79.92,79.92,0,0,0,4.26,12,63.56,63.56,0,0,0,13.78,20c7.93,7.85,17.51,13.23,27.85,17.2a92.71,92.71,0,0,0,15.87,4.43,158.45,158.45,0,0,0,23.29,2.64,121.71,121.71,0,0,0,12.38,0c2.74-.17,5.48-.59,8.19-1a80.8,80.8,0,0,0,18.59-5A90.4,90.4,0,0,0,844,774a77.26,77.26,0,0,0,13.61-10.69A74,74,0,0,0,876.87,729a108.39,108.39,0,0,0,2.21-13.05c.4-3.21-1.81-7.45-4-9.63a13.62,13.62,0,0,0-19.28,0l-2.13,2.75a13.63,13.63,0,0,0-1.86,6.88c0,.35-.09.7-.13,1.05l.48-3.62a71.43,71.43,0,0,1-4.8,18l1.37-3.26a59.42,59.42,0,0,1-7.64,13.13l2.13-2.76A59.63,59.63,0,0,1,832.74,749l2.75-2.13a68.45,68.45,0,0,1-15.2,8.77l3.26-1.37a81.7,81.7,0,0,1-16.91,5c-1.15.21-2.31.4-3.47.55l3.62-.48a100.14,100.14,0,0,1-18.16.3c-3.82-.2-7.64-.53-11.44-1l3.63.49a96.38,96.38,0,0,1-24.61-6.4l3.25,1.38A65.73,65.73,0,0,1,745,745.69l2.76,2.13a54.7,54.7,0,0,1-9.72-9.69l2.13,2.75a54.51,54.51,0,0,1-7-12l1.37,3.25a62.81,62.81,0,0,1-4.24-15.83l.49,3.63a69.39,69.39,0,0,1-.36-15.38q.1-1.21.27-2.43l-.49,3.62c.07-.5.14-1,.24-1.51a14.65,14.65,0,0,0-1.38-10.5,13.85,13.85,0,0,0-8.14-6.26c-3.49-.8-7.41-.62-10.51,1.37-2.85,1.84-5.59,4.69-6.26,8.15Z"/><path class="cls-8" d="M710.13,732.59a43.22,43.22,0,0,1-7.08,6.57l2.76-2.13a59.65,59.65,0,0,1-12.89,7.53l3.26-1.37a57.59,57.59,0,0,1-14.11,3.88l3.63-.49a59.85,59.85,0,0,1-15.82,0l3.62.49A74.84,74.84,0,0,1,655,741.8l3.26,1.37A73.11,73.11,0,0,1,642.47,734l2.76,2.13a80,80,0,0,1-13.92-14l2.13,2.76a92.53,92.53,0,0,1-11.74-20.21l1.38,3.26a96.17,96.17,0,0,1-6.57-23.82l.49,3.62a84.09,84.09,0,0,1-.12-22.13l-.49,3.62a67.89,67.89,0,0,1,4.46-16.74l-1.38,3.26a57.64,57.64,0,0,1,7.19-12.48L624.52,646a57.71,57.71,0,0,1,9.66-9.66,127.85,127.85,0,0,0,12.15-11.23,231.59,231.59,0,0,0,23.35-29.34c12.49-18.19,22.87-37.67,33.47-57,4.17-7.59,8.2-15.63,13.48-22.54L714.5,519a35.33,35.33,0,0,1,6.34-6.12L718.08,515a87.42,87.42,0,0,1,19.08-10.64l-3.25,1.37a179.87,179.87,0,0,1,45.56-12.05l-3.63.48a170.43,170.43,0,0,1,44.67-.4l-3.63-.49A111,111,0,0,1,845,500.71l-3.26-1.37c10.09,4.31,19.38,10.61,28.81,16.15,7.26,4.27,18.13.52,20-8.14a151.24,151.24,0,0,1,8.52-26.17l-1.38,3.25a95.28,95.28,0,0,1,11.79-21l-2.14,2.76a47.33,47.33,0,0,1,8.06-8.25L912.7,460A30.21,30.21,0,0,1,919,456.3l-3.25,1.37a18.83,18.83,0,0,1,4.47-1.26l-3.62.48a28.61,28.61,0,0,1,7.51.11l-3.62-.49A75,75,0,0,1,939,462.12l-3.26-1.37c13.83,5.87,26.82,13.65,39.46,21.72,11.73,7.49,23.15,15.44,34.57,23.4,4.39,3.06,9,5.88,13.27,9.15l-2.75-2.13a35.93,35.93,0,0,1,6.08,6.12l-2.13-2.76a36.29,36.29,0,0,1,4.62,7.86l-1.37-3.25a30.78,30.78,0,0,1,2.09,7.46l-.49-3.62a23.87,23.87,0,0,1,0,6.43l.49-3.62a20.66,20.66,0,0,1-1.34,4.88l1.37-3.26a18.5,18.5,0,0,1-2.29,3.89l2.13-2.76a20,20,0,0,1-3.4,3.36l2.76-2.13a24.61,24.61,0,0,1-4.93,2.83l3.25-1.37a35.38,35.38,0,0,1-8.65,2.28l3.62-.48a62.66,62.66,0,0,1-16.36-.19l3.62.49a92.38,92.38,0,0,1-22.8-6.48l3.26,1.38c-12.69-5.37-24.4-12.81-35.29-21.19l2.75,2.13A184.51,184.51,0,0,1,935,491c-4.88-5.23-14.42-5.3-19.28,0a13.91,13.91,0,0,0,0,19.27,179.35,179.35,0,0,0,19.34,17.52c15.25,12.2,31.63,22.75,50.14,29.3a90,90,0,0,0,30.26,5.34c8.89-.06,18.85-1.68,26.33-6.84,6.72-4.64,12.09-11.24,13.86-19.39a38.34,38.34,0,0,0-1.49-21.7,49.93,49.93,0,0,0-12.47-19.12c-4.31-4-9.41-7-14.21-10.34-11.41-7.91-22.75-15.91-34.38-23.48-13-8.44-26.3-16.62-40.43-23-12.65-5.71-27.63-11.78-41.73-8.07-7.86,2.07-15.05,7.42-20.39,13.42a89.92,89.92,0,0,0-13.46,20.38,171.19,171.19,0,0,0-12.33,33.92c-.16.62-.31,1.24-.44,1.86l20-8.14c-12.94-7.61-25.46-15.78-39.86-20.43-23.93-7.73-49.81-7.4-74.43-3.81a189.35,189.35,0,0,0-32,7.49,135.73,135.73,0,0,0-27.9,12.32A57.85,57.85,0,0,0,691.34,505c-4.74,7.09-8.78,14.65-12.87,22.12-11.12,20.33-22.14,40.8-35.67,59.67q-2.61,3.65-5.35,7.19l2.13-2.76A157.92,157.92,0,0,1,617,615.39a82,82,0,0,0-10.05,9.31A69.65,69.65,0,0,0,597.77,638C588,657.2,587,679.46,591.88,700.2c4.75,19.95,15.64,39.6,31.35,53,19.21,16.39,45.36,24.87,70.38,19.41a67.13,67.13,0,0,0,23.58-10.3,65.36,65.36,0,0,0,11.8-10l.42-.47c2.35-2.89,4-5.78,4-9.64a13.91,13.91,0,0,0-4-9.64c-2.6-2.38-6-4.15-9.64-4-3.4.15-7.39,1.24-9.64,4Z"/><path class="cls-8" d="M936.51,520.09l-12,19.82-1.71,2.84a9.29,9.29,0,0,0-1.13,6.06c.25,1.88,1.06,4.22,2.61,5.45a16.26,16.26,0,0,1,1.38,1.24c1.34,1.27,2.59,2.64,3.8,4,1,1.2,2,2.43,3,3.69L931,561.3a124.6,124.6,0,0,1,7.24,10.55,176.12,176.12,0,0,1,8.48,15.49q2.7,5.53,5.08,11.21l-1-2.27A298.06,298.06,0,0,1,962,627.78a427.56,427.56,0,0,1,10,42q2.68,14.34,4.61,28.81l-.34-2.53c3.22,24.08,5.06,48.33,5.94,72.6q.44,11.91.56,23.84c.06,5,4.33,9.73,9.49,9.5s9.56-4.17,9.5-9.5c-.21-18-.88-36-2.17-54q-1.74-24.07-5.07-48c-1.79-12.86-4-25.67-6.73-38.36-2.28-10.57-4.92-21.06-8-31.41-2.55-8.47-5.42-16.84-8.71-25.06-2.9-7.26-6-14.44-9.6-21.41-2.47-4.83-5.15-9.58-8.09-14.15a137.78,137.78,0,0,0-8.24-11.42,72.87,72.87,0,0,0-4.91-5.62,31.4,31.4,0,0,0-2.3-2.17l-.11-.08,1.49,11.51,12-19.82,1.72-2.84c2.57-4.26,1.08-10.62-3.41-13a9.67,9.67,0,0,0-13,3.4Z"/><path class="cls-8" d="M741.44,478.5a173,173,0,0,0-9.94-26.42A110.27,110.27,0,0,0,721,433.54c-5.21-7.24-11.16-14-18.94-18.56-6.25-3.66-13.53-5.71-20.79-4.89a63.5,63.5,0,0,0-11.13,2.09,106.79,106.79,0,0,0-11.7,4.48c-13.73,5.89-26.43,14.17-38.68,22.65s-23.9,17.39-35.6,26.42c-4,3.09-8,6.21-12.07,9.2a57.54,57.54,0,0,0-8.55,7.16,51.46,51.46,0,0,0-6.92,9.29,45.3,45.3,0,0,0-6.12,21.55A32.62,32.62,0,0,0,552,523.68a34.07,34.07,0,0,0,6.86,12,28.86,28.86,0,0,0,8.94,6.88,40.6,40.6,0,0,0,12.31,4.06,65.33,65.33,0,0,0,15.86.63,93.84,93.84,0,0,0,16.48-2.89c19.15-5.32,36.09-16.24,51.45-28.55a204.43,204.43,0,0,0,24.87-23.47c.38-.43.77-.86,1.14-1.31,2.38-2.81,4-5.83,4-9.63a13.85,13.85,0,0,0-4-9.64c-2.6-2.39-6-4.16-9.64-4-3.43.15-7.33,1.26-9.64,4a179.07,179.07,0,0,1-18.39,18.36q-5.09,4.5-10.46,8.66l2.75-2.14a143.76,143.76,0,0,1-31.54,19l3.25-1.38a84,84,0,0,1-21,5.94l3.63-.48a57.45,57.45,0,0,1-14.82.22l3.62.48a31.76,31.76,0,0,1-7.89-2.06l3.25,1.38a22.7,22.7,0,0,1-4.85-2.79l2.76,2.13a18.41,18.41,0,0,1-3.31-3.29l2.13,2.76a18.09,18.09,0,0,1-2.33-4l1.37,3.25a20.73,20.73,0,0,1-1.34-5l.49,3.62a25,25,0,0,1,0-6.52l-.49,3.62a31.31,31.31,0,0,1,2.17-7.8l-1.38,3.26a36.29,36.29,0,0,1,4.57-7.83l-2.13,2.75a35.16,35.16,0,0,1,6.19-6.24l-2.76,2.13Q598,489,612,478.47c12.63-9.54,25.49-18.85,39-27.08A168.69,168.69,0,0,1,672.65,440l-3.25,1.38A59,59,0,0,1,684.24,437l-3.62.48a25.54,25.54,0,0,1,6.42-.09l-3.63-.49a19.81,19.81,0,0,1,4.94,1.42l-3.26-1.37a31.43,31.43,0,0,1,6.67,4L689,438.74a51.11,51.11,0,0,1,9.12,9.35L696,445.33A111.51,111.51,0,0,1,709.8,470l-1.37-3.26a165.47,165.47,0,0,1,6.39,17.8l.33,1.17a14.12,14.12,0,0,0,6.26,8.15,13.94,13.94,0,0,0,10.51,1.37c3.29-1.07,6.48-3.11,8.14-6.26a14.3,14.3,0,0,0,1.38-10.51Z"/><path class="cls-8" d="M654,511.3l12.91,19.23,1.84,2.75a10.1,10.1,0,0,0,5.68,4.36A9.5,9.5,0,0,0,686.06,531a9.5,9.5,0,0,0-1-7.32l-12.91-19.23-1.84-2.74a10.16,10.16,0,0,0-5.68-4.37,9.75,9.75,0,0,0-7.32,1A9.62,9.62,0,0,0,653,504a9.47,9.47,0,0,0,1,7.31Z"/><path class="cls-8" d="M675.75,758c-2.13,3.14-4.33,6.24-6.52,9.34q-9.09,12.81-18.52,25.4-7.46,10-15.06,19.81l2.14-2.76q-13.15,17-26.75,33.67-15.79,19.37-32.23,38.22-17.94,20.57-36.67,40.44Q522.36,943,501.57,963q-21.07,20.21-43.36,39.09-2.73,2.29-5.47,4.56c-2.54,2.1-4,6.47-4,9.64a13.93,13.93,0,0,0,4,9.64c2.6,2.38,6,4.15,9.64,4l3.63-.49a13.65,13.65,0,0,0,6-3.5q18.28-15.13,35.69-31.28t33.91-32.82q16.17-16.33,31.71-33.27,14.79-16.08,29.07-32.63,13.2-15.27,26-30.89,11.36-13.85,22.4-28,10.4-13.27,20.54-26.74,7.18-9.55,14.22-19.23,4.74-6.55,9.4-13.16c1.4-2,2.83-4,4.17-6l.17-.25c1.91-2.81,2.25-7.32,1.37-10.5a13.91,13.91,0,0,0-6.26-8.15c-3.17-1.67-7-2.51-10.5-1.37a15.11,15.11,0,0,0-8.15,6.26Z"/><path class="cls-8" d="M654.65,828.77c2.19.36,4.39.67,6.58,1q10.83,1.51,21.69,2.69,13.86,1.49,27.75,2.41,17.4,1.17,34.84,1.5,19.89.38,39.77-.45c14.19-.61,28.36-1.72,42.45-3.47a442.1,442.1,0,0,0,46.16-8A293.06,293.06,0,0,0,915,811.76a224.59,224.59,0,0,0,40-20.08,166.7,166.7,0,0,0,33.46-28.14q3.28-3.64,6.29-7.54a15.14,15.14,0,0,0,4-9.64,13.85,13.85,0,0,0-4-9.64c-2.6-2.39-6-4.16-9.64-4-3.34.15-7.49,1.21-9.64,4a144.79,144.79,0,0,1-25.86,25.67l2.76-2.14a184.43,184.43,0,0,1-32.71,20q-5,2.4-10.1,4.55l3.26-1.37C892,792.19,870,798.06,847.71,802.07c-6.34,1.15-12.71,2.13-19.1,3l3.63-.48c-13.68,1.82-27.43,3-41.21,3.78q-19.47,1-39,.81Q734.67,809,717.3,808q-14.25-.82-28.46-2.22-10.08-1-20.14-2.28l-1.84-.25,3.62.49c-2.72-.37-5.43-.75-8.14-1.18l-.45-.07c-3.72-.62-7.13-.6-10.5,1.37a13.9,13.9,0,0,0-6.26,8.15c-.8,3.49-.63,7.41,1.37,10.5,1.81,2.81,4.71,5.7,8.15,6.27Z"/><path class="cls-8" d="M614.71,884.19c8.65,1.41,17.36,2.5,26.06,3.55q28.8,3.48,57.8,5.25c26.27,1.63,52.62,2.26,78.93,1.56a614.89,614.89,0,0,0,89-8.45c28.17-4.89,55.89-12.56,81.8-24.78q4.2-2,8.3-4.15c6.31-3.34,8.76-12.65,4.89-18.65a13.94,13.94,0,0,0-18.65-4.89q-8.1,4.27-16.55,7.83l3.26-1.37c-21.82,9.2-44.9,15.19-68.17,19.35q-10.23,1.83-20.54,3.21l3.62-.49c-17.1,2.29-34.31,3.74-51.55,4.56-16.65.79-33.33,1-50,.75q-22.73-.36-45.42-1.8-18.93-1.2-37.79-3.09-13.58-1.38-27.11-3.13l-2.51-.33,3.62.49q-5.58-.75-11.15-1.6l-.61-.1c-3.73-.61-7.13-.61-10.51,1.37a13.94,13.94,0,0,0-6.26,8.15c-.8,3.49-.62,7.4,1.37,10.5,1.81,2.8,4.72,5.71,8.15,6.26Z"/><path class="cls-8" d="M670.45,596.25l.18-.24-2.13,2.76a58.36,58.36,0,0,1,7.11-7.55c1.18-1.08,2.41-2.11,3.67-3.09l-2.76,2.13a50.75,50.75,0,0,1,11-6.53l-3.26,1.38a36.37,36.37,0,0,1,9.14-2.57l-3.62.49a31.05,31.05,0,0,1,8.34,0l-3.62-.49a32.86,32.86,0,0,1,8.18,2.29l-3.26-1.38a42.58,42.58,0,0,1,9,5.36l-2.76-2.13a67.24,67.24,0,0,1,11.67,12l-2.13-2.76a116,116,0,0,1,8.59,13,14.08,14.08,0,0,0,8.14,6.27,13.93,13.93,0,0,0,10.51-1.38,13.73,13.73,0,0,0,6.26-8.14,14.37,14.37,0,0,0-1.37-10.51C736,575.55,718,555,693.29,555.49c-14.91.31-28.47,8-38.9,18.28a72.29,72.29,0,0,0-7.48,8.72c-2,2.67-2.21,7.45-1.37,10.5a13.91,13.91,0,0,0,6.26,8.15c3.16,1.67,7,2.51,10.5,1.37l3.26-1.37a13.64,13.64,0,0,0,4.89-4.89Z"/><path class="cls-8" d="M819.25,604.67l.18-.23-2.14,2.75a59.05,59.05,0,0,1,7.11-7.55q1.79-1.62,3.68-3.09l-2.76,2.13a50.75,50.75,0,0,1,10.95-6.53L833,593.53a36.8,36.8,0,0,1,9.14-2.57l-3.62.49a31.05,31.05,0,0,1,8.34,0l-3.62-.49a32.67,32.67,0,0,1,8.17,2.29l-3.25-1.38a42.58,42.58,0,0,1,9,5.36l-2.76-2.13a67.59,67.59,0,0,1,11.67,12l-2.13-2.75a116.3,116.3,0,0,1,8.59,13,14,14,0,0,0,8.14,6.27,13.9,13.9,0,0,0,10.5-1.38c2.91-1.87,5.48-4.67,6.27-8.14a14.32,14.32,0,0,0-1.38-10.51c-11.25-19.64-29.29-40.22-54-39.7-14.92.31-28.47,8.05-38.91,18.28a73.91,73.91,0,0,0-7.47,8.72c-2,2.67-2.22,7.45-1.38,10.5a13.93,13.93,0,0,0,6.27,8.15c3.16,1.67,7,2.51,10.5,1.37l3.26-1.37a13.64,13.64,0,0,0,4.89-4.89Z"/><path class="cls-8" d="M264.3,162.39a38.79,38.79,0,0,0-20.74,1.05c-9.93,3.28-18.44,9.16-26.21,16.06A124.92,124.92,0,0,0,205,192.34a244.33,244.33,0,0,0-16,21.33c-12.36,18.38-22.62,38.13-32,58.17q-4.45,9.54-8.62,19.2c-3.35,7.75-6.79,15.52-9.77,23.42a53.75,53.75,0,0,0-2.87,10.94,57.14,57.14,0,0,0,6.84,39.23,68.32,68.32,0,0,0,14.94,17.85,103.27,103.27,0,0,0,44,21.81,110.2,110.2,0,0,0,24.87,2.85,84.15,84.15,0,0,0,23.51-3.32c15-4.53,29.07-14.43,35.41-29.16a66.07,66.07,0,0,0,3-7.89c.79-2.73,1.51-5.48,2.22-8.22q2.49-9.48,4.61-19.05c3.23-14.46,5.92-29.05,7.92-43.74,1.14-8.41,2.17-16.83,2.87-25.3.29-3.5-1.82-7.8-4.23-10.21A14.64,14.64,0,0,0,291.52,256c-3.73.16-7.61,1.39-10.21,4.23l-2.26,2.92a14.41,14.41,0,0,0-2,7.29c-.56,6.87-1.32,13.71-2.23,20.53l.52-3.84a533.92,533.92,0,0,1-13.07,65.32,85,85,0,0,1-3.37,11.06l1.46-3.46a37.39,37.39,0,0,1-4.77,8.18l2.26-2.92a37.94,37.94,0,0,1-6.79,6.73L254,369.8a45.21,45.21,0,0,1-9.91,5.7l3.45-1.45a60.9,60.9,0,0,1-15.35,4l3.84-.51a84.38,84.38,0,0,1-22.17-.15l3.84.52a98,98,0,0,1-25-6.82l3.45,1.46a84.14,84.14,0,0,1-18.55-10.69l2.92,2.26a63.29,63.29,0,0,1-11.41-11.25l2.26,2.92a49.53,49.53,0,0,1-6.34-10.73l1.46,3.45a43.33,43.33,0,0,1-3-11.06l.52,3.84a44.12,44.12,0,0,1,.05-11.65l-.52,3.84c1.2-8.61,5-16.53,8.32-24.46l-1.46,3.45c6.79-16.09,14-32,22.07-47.52a381.14,381.14,0,0,1,20-34.59c3.25-4.93,6.65-9.75,10.25-14.42l-2.25,2.92A137.73,137.73,0,0,1,238,199.78c1.43-1.26,2.89-2.48,4.39-3.64l-2.92,2.26a56.77,56.77,0,0,1,12.43-7.49l-3.45,1.45A33.26,33.26,0,0,1,256.7,190l-3.84.52a22.74,22.74,0,0,1,6-.05L255,190c.54.07,1.07.17,1.6.29a15.25,15.25,0,0,0,11.13-1.46,14.69,14.69,0,0,0,6.64-8.63c.84-3.7.66-7.85-1.45-11.14-2-3.08-4.95-5.8-8.64-6.64Z"/><path class="cls-8" d="M185.32,381c-1.3,2.81-2.67,5.59-4,8.36q-5.52,11.22-11.39,22.25-8.6,16.25-17.8,32.16Q141,463,129,481.57C120.27,495,111.15,508.18,101.5,521c-1.2,1.6-2.42,3.18-3.64,4.77l2.26-2.93c-7,9.07-14.29,17.92-22,26.44a319.22,319.22,0,0,1-23.23,23.45q-6.6,6-13.62,11.42l2.92-2.26q-3.45,2.65-7,5.17c-3.13,2.2-5.59,4.83-6.64,8.63A14.76,14.76,0,0,0,32,606.78c2,3.09,5,5.81,8.63,6.64s8,.76,11.14-1.45a250.45,250.45,0,0,0,26.41-21.46c8-7.4,15.47-15.26,22.67-23.4,8.23-9.32,16-19,23.55-28.91q10.27-13.44,19.79-27.45,9.26-13.58,17.92-27.53,8-12.89,15.6-26.06,6.6-11.45,12.89-23.07,5.09-9.4,10-18.92c2.23-4.37,4.44-8.75,6.59-13.16,1-2,2-4.09,3-6.15l.12-.26a10.69,10.69,0,0,0,1.72-5.37,11,11,0,0,0-.26-5.76,14.7,14.7,0,0,0-6.64-8.63c-3.35-1.78-7.42-2.66-11.13-1.46-3.39,1.1-7.08,3.28-8.64,6.64Z"/><path class="cls-8" d="M349.15,267.08a53.37,53.37,0,0,1,0-8.85c.1-1.62.26-3.23.48-4.84l-.52,3.84a56.44,56.44,0,0,1,3.73-14.17l-1.46,3.45a40.61,40.61,0,0,1,5.12-8.87l-2.26,2.93a33.56,33.56,0,0,1,5.85-5.88L357.14,237a33.67,33.67,0,0,1,7.48-4.35l-3.45,1.46a41,41,0,0,1,10.22-2.72l-3.84.52a63.35,63.35,0,0,1,16.62.2l-3.84-.52a114.31,114.31,0,0,1,19.88,4.73A14.46,14.46,0,0,0,418,226.18c.85-3.7.66-7.85-1.45-11.14a15.76,15.76,0,0,0-8.64-6.64A130.6,130.6,0,0,0,384,203.14a64.1,64.1,0,0,0-15.9-.25A69.44,69.44,0,0,0,358,204.64a59.11,59.11,0,0,0-9,3.47,44.45,44.45,0,0,0-11.68,8.13c-6.5,6.11-10.85,14.17-13.65,22.56a77.08,77.08,0,0,0-3.46,19.76,60.38,60.38,0,0,0,0,8.4s0,.08,0,.12a10.91,10.91,0,0,0,1.25,5.57,10.79,10.79,0,0,0,3,4.65,14.73,14.73,0,0,0,10.22,4.23c3.74-.17,7.61-1.4,10.22-4.23,2.44-2.66,4.6-6.47,4.23-10.22Z"/><path class="cls-8" d="M366.87,421.54a61,61,0,0,0,6.1,7.95,103.35,103.35,0,0,0,15.71,14.2,123.62,123.62,0,0,0,23.65,14.15A181.38,181.38,0,0,0,452.23,471a260.75,260.75,0,0,0,54.4,5,230.33,230.33,0,0,0,29.33-2.2,121.57,121.57,0,0,0,19.88-4.27c11.14-3.49,21.95-8.8,30.37-17a50,50,0,0,0,14.89-40.95,55.36,55.36,0,0,0-2.22-11.76c0-.12-.08-.24-.13-.36-1.33-3.45-3.2-6.82-6.64-8.64l-3.45-1.45a14.51,14.51,0,0,0-7.68,0l-3.83.53,3.84-.51c-18.17,2.43-36.59,3.59-54.91,2.39q-6.57-.44-13.11-1.3l3.84.52a145.53,145.53,0,0,1-36.92-9.7l3.45,1.45A105.62,105.62,0,0,1,460,369.25l2.92,2.26a93.05,93.05,0,0,1-16.64-16.6l2.26,2.92a94.2,94.2,0,0,1-12.06-20.7l1.46,3.45a97.86,97.86,0,0,1-6.09-20.3c-.26-1.43-.49-2.86-.68-4.29l.52,3.84c-.3-2.23-.48-4.45-.59-6.69,0-.13,0-.26,0-.39l-18.29,13.93A397.15,397.15,0,0,0,455.56,341a296.05,296.05,0,0,0,41,7.94,188,188,0,0,0,32.26,1.32,155.89,155.89,0,0,0,31-4.54A124.51,124.51,0,0,0,586,335.65a109.34,109.34,0,0,0,38.08-33.29,107.46,107.46,0,0,0,10.78-18.15,145,145,0,0,0,8.67-23.07,165.26,165.26,0,0,0,4.55-24.47,153.94,153.94,0,0,0,1.08-20.92,187.2,187.2,0,0,0-2.13-24A145,145,0,0,0,643,172.63a142.6,142.6,0,0,0-7.65-20.26,85,85,0,0,0-8.21-14.24,68.9,68.9,0,0,0-12-13.42,54.42,54.42,0,0,0-17.33-10A42.34,42.34,0,0,0,579.93,113a160.6,160.6,0,0,0-42.38,9.77c-11.47,4.46-22.39,10-33.38,15.48-4.61,2.3-9.26,4.54-14,6.55l3.45-1.45a109.29,109.29,0,0,1-27.45,7.8l3.84-.52a112.63,112.63,0,0,1-29.8-.25l3.84.52A181.71,181.71,0,0,1,417.16,145c-10.3-3.05-20.37-6.67-30.87-9-17.68-4-36.14-6-54.23-4.19a147.45,147.45,0,0,0-23.34,4,137.45,137.45,0,0,0-19.58,7,112.34,112.34,0,0,0-24.7,15.08,61.24,61.24,0,0,0-8.34,7.67l-.1.12c-2.51,3-4.24,6.15-4.24,10.21A14.7,14.7,0,0,0,256,186.07c2.75,2.53,6.36,4.41,10.21,4.23,3.63-.16,7.8-1.32,10.22-4.23a56.69,56.69,0,0,1,9-8.22l-2.93,2.26a100.26,100.26,0,0,1,22-12.73l-3.45,1.46a118.6,118.6,0,0,1,29.95-8.1l-3.84.52a148.49,148.49,0,0,1,39.51.26l-3.84-.52a192.8,192.8,0,0,1,22.82,4.58c8.31,2.19,16.37,5.14,24.62,7.54,14.05,4.09,28.73,6.93,43.39,7.3a113.49,113.49,0,0,0,33.6-4.18c9.87-2.79,19.32-7,28.51-11.53,9.43-4.63,18.69-9.58,28.38-13.67l-3.46,1.46A150.34,150.34,0,0,1,578.67,142l-3.84.52c4.55-.6,9.18-1.29,13.76-.68l-3.84-.51a29.67,29.67,0,0,1,7.4,2l-3.45-1.45a36.84,36.84,0,0,1,8,4.72l-2.92-2.26a53.16,53.16,0,0,1,9.34,9.5L600.86,151a81,81,0,0,1,8.79,14.45c.76,1.57,1.47,3.16,2.15,4.76l-1.46-3.45a130.69,130.69,0,0,1,7.8,26.34q.76,4.05,1.31,8.14l-.51-3.85a157.83,157.83,0,0,1,1,32.08q-.33,4.65-1,9.29l.52-3.84a137,137,0,0,1-6.31,26.72q-1.27,3.64-2.77,7.19l1.46-3.45a110.77,110.77,0,0,1-10.34,19.1c-1.15,1.7-2.36,3.37-3.62,5l2.26-2.92a96.9,96.9,0,0,1-17.25,17.27l2.92-2.26A98.93,98.93,0,0,1,564,314.22l3.45-1.46a118.88,118.88,0,0,1-30.23,8l3.84-.51a167.74,167.74,0,0,1-35.7.69c-3.78-.31-7.56-.73-11.32-1.23l3.84.52c-20-2.71-39.53-7.92-58.55-14.48q-9.46-3.27-18.78-7c-4.16-1.65-9.27,0-12.59,2.58a14.17,14.17,0,0,0-5.7,11.35A85.73,85.73,0,0,0,404,327.9a110.19,110.19,0,0,0,10.3,29.75,102.25,102.25,0,0,0,26.17,32.68,116.59,116.59,0,0,0,22.69,14.8A144.62,144.62,0,0,0,493,415.86c26.28,6.25,53.78,6.34,80.5,3.32,5.06-.57,10.12-1.25,15.16-2l-17.77-10.09a33.25,33.25,0,0,1,1.73,7.44l-.52-3.84a40.8,40.8,0,0,1,0,10.76l.52-3.84a36.28,36.28,0,0,1-2.45,9l1.45-3.45a35.67,35.67,0,0,1-4.63,7.88l2.26-2.93a41.57,41.57,0,0,1-7.27,7.19l2.93-2.26A58.45,58.45,0,0,1,552,440.47l3.45-1.46A108,108,0,0,1,528.28,446l3.84-.52a236.29,236.29,0,0,1-62.19-.49l3.84.51a181.84,181.84,0,0,1-46-12.1l3.45,1.45a125.72,125.72,0,0,1-28-16.07l2.92,2.26a87.24,87.24,0,0,1-12.9-12.07c-.65-.77-1.29-1.54-1.9-2.33l2.26,2.92a28.64,28.64,0,0,1-1.81-2.55,15.07,15.07,0,0,0-8.64-6.64,14.72,14.72,0,0,0-11.13,1.45c-6.49,4.19-9.38,12.86-5.19,19.77Z"/><path class="cls-8" d="M443.6,461.57q.22,4.56.49,9.12c.47,8.51,1,17,1.57,25.53q1.29,19.38,2.83,38.74,2,24.56,4.26,49.08,2.67,28.26,5.85,56.47,3.66,32.28,8.11,64.45,4.31,31.27,9.56,62.39c3.48,20.39,7.32,40.72,11.68,60.94,4.12,19.06,8.7,38,14.05,56.78a507.17,507.17,0,0,0,16.44,49.12q2.73,6.84,5.68,13.59c1.36,3.09,5.54,5.78,8.64,6.64A14.76,14.76,0,0,0,543.89,953c3.09-2,5.8-5,6.64-8.63.92-4,.19-7.38-1.45-11.14-.53-1.21-1.06-2.43-1.57-3.65L549,933c-11.5-27.27-19.72-55.9-26.75-84.61-8.12-33.13-14.51-66.67-20-100.33q-4.77-29.17-8.68-58.49l.52,3.84q-4.64-34.5-8.34-69.13-3.34-31.07-6.05-62.2-2.22-25.3-4-50.63-1.25-17.49-2.3-35c-.28-4.89-.49-9.78-.8-14.67a1.34,1.34,0,0,1,0-.2c-.36-7.54-6.39-14.81-14.45-14.45-7.52.34-14.83,6.37-14.45,14.45Z"/><path class="cls-8" d="M506.15,148.5S541.55,253.58,628,185.45c0,0,.76-59.94-42.85-58.29S506.15,148.5,506.15,148.5Z"/><path class="cls-8" d="M159.87,458c1,.9,2,1.76,3,2.62,3.85,3.2,7.83,6.25,11.84,9.23,4.81,3.58,9.75,7,14.77,10.26q10,6.51,20.37,12.29,12.57,7,25.65,13c11.17,5.15,22.56,9.86,34.12,14q17.71,6.4,36,11.11a405,405,0,0,0,40.83,8.31,452.33,452.33,0,0,0,48.87,4.78,433,433,0,0,0,49.92-.9q6.41-.48,12.78-1.14a16,16,0,0,0,10.22-4.23,14.73,14.73,0,0,0,4.23-10.22c-.17-3.73-1.4-7.61-4.23-10.21-2.66-2.44-6.47-4.62-10.22-4.24a435,435,0,0,1-80.77.93q-10.29-.87-20.54-2.24l3.84.52a409.16,409.16,0,0,1-44.31-8.47,397.3,397.3,0,0,1-38.6-11.75q-9.78-3.52-19.35-7.56l3.45,1.45a377.62,377.62,0,0,1-38.81-19c-9.31-5.25-18.39-10.91-27.15-17-3.43-2.4-6.8-4.86-10.11-7.42l2.93,2.26c-2.7-2.08-5.36-4.22-7.92-6.47l-.41-.37a15.17,15.17,0,0,0-10.22-4.23,14.73,14.73,0,0,0-10.21,4.23c-2.53,2.76-4.41,6.37-4.24,10.22s1.4,7.62,4.24,10.22Z"/><path class="cls-8" d="M121.55,535.68c6,4.9,12.37,9.46,18.76,13.88a515.23,515.23,0,0,0,44.22,27.23,571.25,571.25,0,0,0,70.94,32.85A479.19,479.19,0,0,0,341.88,634c34,6.12,68.65,8.65,103.12,6.28q6.54-.45,13.05-1.12c3.93-.41,7.33-1.35,10.22-4.24a14.68,14.68,0,0,0,4.23-10.21c-.17-3.74-1.4-7.61-4.23-10.22-2.66-2.44-6.47-4.62-10.22-4.23a391.18,391.18,0,0,1-73.55.53q-9.84-.84-19.64-2.16l3.84.51a447.44,447.44,0,0,1-51.16-10c-15.79-4-31.38-8.91-46.69-14.5q-12.06-4.41-23.89-9.41l3.45,1.46a550.12,550.12,0,0,1-60.6-30.11c-13.19-7.6-26.08-15.73-38.51-24.51-3.49-2.47-7-5-10.34-7.61l2.92,2.26c-.63-.49-1.27-1-1.89-1.49-3.08-2.49-6.11-4.23-10.22-4.23a14.71,14.71,0,0,0-10.22,4.23c-2.53,2.75-4.4,6.37-4.23,10.22.16,3.59,1.31,7.85,4.23,10.21Z"/><path class="cls-8" d="M1045.9,528.51q0,20.5-1.61,41-.78,9.91-2,19.81c-.19,1.64-.41,3.27-.6,4.91,0,.18-.33,2.5-.1.79.25-1.88-.15,1.06-.21,1.48q-.67,4.88-1.46,9.75a511.22,511.22,0,0,1-18.54,77q-5.92,18.27-13.23,36c-.31.77-1.91,4.59-.83,2l-1.89,4.39q-2,4.68-4.18,9.33-4,8.65-8.27,17.15a513.06,513.06,0,0,1-39.45,65.4q-5.66,8-11.61,15.72c1.54-2-.39.5-.93,1.19l-2.92,3.69c-2.11,2.63-4.23,5.24-6.39,7.83q-12,14.47-25.14,28-13.3,13.8-27.61,26.58-7,6.28-14.27,12.3-3.63,3-7.31,6-1.83,1.47-3.69,2.93L852.12,923c-2,1.54,2.78-2.09-.66.51a529.74,529.74,0,0,1-63.86,41.68q-17,9.35-34.59,17.4c-2.68,1.22-5.38,2.43-8.09,3.61l-4.39,1.88c2.57-1.08-1.76.73-2.67,1.1Q729,992.84,720,996.13a509.32,509.32,0,0,1-75.2,21.11q-10,2-20,3.59c-3,.47-6,.93-9.06,1.35-.42.06-3.35.45-1.48.21s-.61.07-.78.09l-5.62.69q-20.22,2.36-40.56,3.11a519.16,519.16,0,0,1-81-3.28c-1.64-.19-3.28-.4-4.92-.61-1.8-.23.28.05.54.08l-2.8-.39q-4.87-.69-9.74-1.48-9.69-1.56-19.31-3.49-19.43-3.92-38.5-9.31-18.87-5.35-37.31-12.14-9-3.31-17.85-7l-2.52-1.05c.23.1,2.09.89.48.21L350,986q-4.37-1.91-8.7-3.9a512.53,512.53,0,0,1-67.51-37.44Q258,934.23,243,922.72c2.3,1.76-1.14-.9-1.71-1.35-1.23-1-2.46-1.94-3.69-2.93-2.62-2.1-5.23-4.24-7.81-6.39q-7.25-6-14.24-12.34a515.54,515.54,0,0,1-52.61-54.77c-2-2.42-4-4.86-5.94-7.31l-2.93-3.7c-.41-.53-.83-1.06-1.24-1.6.92,1.19.67.89-.09-.12-3.93-5.2-7.81-10.43-11.57-15.76q-11.1-15.72-21-32.25-9.75-16.29-18.28-33.26-4.27-8.52-8.23-17.18-2-4.34-3.88-8.72c-.3-.68-1.89-4.41-1.38-3.2.65,1.54-.22-.55-.29-.71L86.8,718a508.38,508.38,0,0,1-23.75-74.06q-4.62-19.38-7.72-39.09c-.47-3-.91-6-1.34-9.06-.08-.54-.38-3,0-.17l-.27-2.1c-.24-1.87-.47-3.75-.68-5.62q-1.14-9.9-1.9-19.82a521.86,521.86,0,0,1,.17-81.22q.83-10.26,2.06-20.5c.2-1.64.41-3.27.62-4.91-.34,2.63.09-.65.22-1.56q.73-5.24,1.59-10.44,3.19-19.65,7.92-39a523.52,523.52,0,0,1,24.14-73.88c.26-.64.52-1.26.79-1.9-1.06,2.55-.15.34.06-.14.54-1.25,1.08-2.51,1.63-3.76q2-4.68,4.19-9.32,4.13-9,8.6-17.75,8.61-16.9,18.45-33.15,10-16.46,21.16-32.14,2.55-3.56,5.15-7.09c.93-1.26,1.88-2.52,2.82-3.78l1.63-2.14c.17-.22,1.85-2.42.86-1.14s.36-.46.47-.59l1.66-2.12q1.45-1.84,2.94-3.69,3.17-3.93,6.4-7.8a516.57,516.57,0,0,1,52.89-54.5q7.05-6.27,14.31-12.26,3.63-3,7.32-5.94c1.05-.84,2.11-1.67,3.17-2.5.32-.25,2.55-2,1.12-.88s.92-.7,1.14-.86q15.32-11.62,31.42-22.14a511.67,511.67,0,0,1,67.11-36.81q4.33-2,8.72-3.87c.67-.29,4.74-2,2-.88l5.05-2.08q8.88-3.6,17.9-6.87Q395,53.85,413.56,48.66q19.08-5.32,38.55-9.16,9.64-1.89,19.34-3.42,4.88-.77,9.76-1.44c1.8-.25-.28,0-.54.07l2.81-.35c1.87-.24,3.75-.46,5.62-.68a521.13,521.13,0,0,1,81-2.83q20.31.87,40.5,3.33l4.21.53c-3-.38,1.51.22,2.26.32q5.22.75,10.43,1.61,9.69,1.59,19.29,3.55a507.87,507.87,0,0,1,75.72,21.65c6,2.22,11.92,4.59,17.83,7,.16.06,2.25.94.71.29s.95.4,1.33.57l3.75,1.63q4.68,2.05,9.32,4.2Q773.06,83.67,790,93.11q16.53,9.24,32.36,19.67,8.16,5.39,16.12,11.08,3.57,2.55,7.09,5.16c1.26.93,2.52,1.88,3.77,2.82.78.59,4.45,3.41,2.28,1.73A516,516,0,0,1,908,184.45q13.26,13.85,25.46,28.66,3,3.64,5.92,7.33l2.5,3.18c.33.41,1.76,2.28.1.12l1.64,2.14q5.71,7.51,11.14,15.24a512.15,512.15,0,0,1,39.5,66.17q4.25,8.52,8.18,17.2,2,4.35,3.86,8.73c.35.82,1.59,3.77.61,1.4.7,1.69,1.39,3.37,2.08,5.06q7.35,18.12,13.3,36.77a511.35,511.35,0,0,1,18,76.44c.5,3.25,1,6.51,1.42,9.77-.38-2.83.17,1.42.28,2.27.2,1.64.4,3.28.58,4.92q1.1,9.54,1.82,19.12,1.5,19.74,1.5,39.54a15.18,15.18,0,0,0,30.36,0,525.73,525.73,0,0,0-96.85-304.92A539.17,539.17,0,0,0,867.85,108.08,528,528,0,0,0,140.6,191.64,537.8,537.8,0,0,0,58,329.71,525,525,0,0,0,20.81,488.26,531,531,0,0,0,34.26,654,529.44,529.44,0,0,0,329,1009.68a530.81,530.81,0,0,0,325.18,36.57,524.71,524.71,0,0,0,150.49-55.8,530.44,530.44,0,0,0,216.06-226,523,523,0,0,0,49-153.64,547.74,547.74,0,0,0,6.47-82.29,15.18,15.18,0,0,0-30.36,0Z"/><path class="cls-8" d="M147.75,1198.94c-6.27,9-47.24,62.58-110.88,18.37-45.14-31.35-46.25-79.14-17.32-120.8,9.65-13.88,50.65-65,116.38-19.35C200.73,1122.18,163.5,1176.26,147.75,1198.94Zm-41-40.18c7.39-10.65,24.26-38.39,6.21-50.93-19-13.18-38.27,10.14-48.07,24.26-2.09,3-26,37.88-5.38,52.19C77.75,1197,97.37,1172.18,106.7,1158.76Z"/><path class="cls-8" d="M205.12,1126.8,348,1175.69l-16,46.66-36-12.32-38.49,112.52-64.25-22,33-109.62-38.66-13.23L204,1130Z"/><path class="cls-8" d="M356,1176.81l150.38,14.12-4.61,49.1-37.87-3.56-11.12,118.4-67.62-6.35,6.49-114.3-40.68-3.82,4.71-50.23Z"/><path class="cls-8" d="M688.35,1263c1.15,10.93,5.15,78.24-71.91,86.38-54.65,5.78-86.73-29.65-92.07-80.09-1.78-16.82-4.17-82.3,75.42-90.72C678.26,1170.32,685.44,1235.58,688.35,1263ZM631,1259.47c-1.36-12.89-6.73-44.91-28.59-42.6-23,2.43-22.33,32.68-20.52,49.78.38,3.64,5.11,45.65,30.05,43C634.09,1307.32,632.73,1275.72,631,1259.47Z"/><path class="cls-8" d="M824.76,1206.4c5.86-2,40.35-11.79,54.1,28.18,15.21,44.24-35.11,66-62.82,75.55-27.45,9.44-69.81,15.37-69.81,15.37s-43.65-119.08-54.5-144.56c0,0,12.19-20.88,55.09-35.64,42.1-14.48,78.52-17.77,90,15.54,11.27,32.77-12.84,45.84-12.84,45.84Zm-58.09,10.45a20.58,20.58,0,0,0,3.55-.92c8-2.75,25.74-10.94,19.87-28l-.55-1.6c-5-11.09-13.74-11.36-21.2-8.8-8.53,2.94-15.86,9.34-15.86,9.34Zm34.38,63.57c11.73-4,28.75-13.47,22.33-32.12-5.32-15.45-18.77-14.7-29.69-10.94a83.68,83.68,0,0,0-15.79,7.81l13,37.84A61.82,61.82,0,0,0,801.05,1280.42Z"/><path class="cls-8" d="M1006.23,1053.42c19.72,27.12,37,66.15,11.64,101.29l22.54,31-52.19,38-22.54-31c-41.68,13.59-73.28-15-93-42.12C862.07,1136,855.4,1122,851.9,1114.78l48.54-35.3c27.18,37.37,28,39.53,30,42.26,6.13,8.43,18.63,21.3,30.93,12.35l1.37-1c12.31-8.95,4.14-25-2-33.4-2-2.74-3.77-4.23-30.95-41.6l48.54-35.3C984.66,1029,996,1039.29,1006.23,1053.42Z"/><ellipse class="cls-8" cx="367.62" cy="690.48" rx="29.14" ry="36.49" transform="translate(-47.47 27.45) rotate(-4.02)"/><ellipse class="cls-8" cx="367.62" cy="620.8" rx="24.36" ry="27.19" transform="translate(-283.9 930.72) rotate(-84.81)"/></g></g></svg>