<svg xmlns="http://www.w3.org/2000/svg" viewBox="0 0 819.91 237.05"><defs><style>.cls-1{fill:#66c4da;}.cls-2{fill:#f5f3f4;}.cls-3{fill:#f5ac7e;}.cls-4{fill:#b71825;}.cls-5{fill:#1f2428;}.cls-6{fill:#844c3b;}.cls-7{fill:#512110;}.cls-8{fill:#1d1d1b;}</style></defs><g id="Capa_2" data-name="Capa 2"><g id="Vector_color" data-name="Vector color"><path d="M90.27,122.1c.07,6.32-1.2,45.11-43.89,45.64C16.11,168.11.33,146.08,0,116.89-.11,107.15,2,69.49,46,69,89.51,68.41,90.09,106.2,90.27,122.1ZM59,117c-.08-7.46-1.38-26.1-13.49-25.95-12.73.15-13.93,17.53-13.82,27.42,0,2.11.46,26.44,14.27,26.27C58.23,144.56,59.11,126.38,59,117Z"/><path d="M96.82,69.15,180,71.49l-.73,28.38-21-.59-1.76,68.42-37.4-1-.63-65.89L96,100.12l.75-29Z"/><path d="M185.89,69.92l83.22.24L269,98.54l-21-.05-.18,68.45-37.41-.11L208.32,101l-22.51-.07.08-29Z"/><path d="M359.62,120.9c0,6.32-1.56,45.08-44.3,46.18-30.31.79-45.92-21-46-50.18,0-9.72,2.33-47.37,46.47-48.51C359.29,67.27,359.57,105,359.62,120.9Zm-31.26-4.71c0-7.45-1.17-26.06-13.29-25.74C302.32,90.78,301,108.15,301,118c0,2.11.25,26.41,14.08,26.05C327.37,143.76,328.39,125.59,328.36,116.19Z"/><path d="M436.2,118.49c3.41.09,23.1,1.72,22.53,26-.62,26.92-30.78,28.6-46.92,28.19s-39-5.69-39-5.69.29-73-.43-88.93c0,0,10.3-8.82,35.29-8.2,24.52.62,44,6.14,43.49,26.41-.46,20-15.42,22.17-15.42,22.17Zm-32-6a11.33,11.33,0,0,0,2,.22c4.66.11,15.39-.75,15.63-11.13l0-1c-.46-7-4.92-8.88-9.27-9a29.07,29.07,0,0,0-10,1.86Zm5.57,41.19c6.83.18,17.43-1.5,17.69-12.86.22-9.4-6.87-11.69-13.24-11.85a43.9,43.9,0,0,0-9.65,1.06l-.53,23A32.94,32.94,0,0,0,409.76,153.68Z"/><path d="M554.84,97.63c0,19.3-5,43.31-27.65,51.08v22.06H491.63V148.7c-23-7.79-27.78-31.8-27.77-51.1a136.83,136.83,0,0,1,2.33-23.69l33.07,0c0,26.6-.32,27.9-.32,29.84,0,6,1.39,16.22,9.77,16.23h.94c8.38,0,9.94-10.22,9.94-16.22,0-2-.31-3.24-.3-29.85h33.06C553.14,79,554.84,87.57,554.84,97.63Z"/><circle class="cls-1" cx="701.22" cy="116.99" r="115.29"/><path class="cls-2" d="M716.12,160.94,727,148.43h24.48l22.14,11.9-6.86,9.92s-11.52,5.3-24.93-1.78l-9.14,1.78S718.38,173.14,716.12,160.94Z"/><path class="cls-3" d="M732.73,151.9s-11.91.53-14.33,12.39c0,0-12.22-12.66,1.79-25.48l12.54-19.44-7.38-6.14-12.73,6-7.56-1.92,4-9,22.78-13.7,8.73,9.26,2.69,5.39,16.42-2.2,16,4.38L782.1,99l15,5.11,16.37,11.59s-2.63,5.92-3.32,6.22-12.8.15-12.8.15l-7.53-4.72L787.34,123s12.13,11.47,13.72,47.68c0,0-12.38,71.2-121.49,60.53l27.91-29.75,25.25-31.19,8.93-3.23,15.52,6.08L770.11,167s-7.6-15.19-28-12.41Z"/><path class="cls-2" d="M734.88,141.87s14.08.39,20-21.3c0,0,1,16,.13,26.79l-3.29-2.09Z"/><path class="cls-2" d="M732.73,170.25l-50.49,58.47s12.84,3.27,36.9,2.65,31.32-8.47,36.8-17.91,17.92-23.5,11.5-31.94-17.88-9.37-17.88-9.37l-7.69-3.68Z"/><path class="cls-4" d="M727,181.42l-10.92,13.11S787.67,208,802,177.36l-1.51-11S786.31,189.71,727,181.42Z"/><path class="cls-5" d="M586.62,137s24.11,94.47,97.08,94.22L657.4,75.6l-18.59,7.21s-15.7,6.38-19.65,3.71C619.16,86.52,610.42,117.64,586.62,137Z"/><path class="cls-6" d="M638.81,36.58s10.58-8.93,32.64-1.53c0,0,13,2.18,36.3-7.56,0,0,14.28,2.61,10.86,28.07s-35.62,21-46.53,14.12c0,0-1.69,15.57,23.22,20.38h13.18s1.5,14.66-21.6,13.25L669.49,98s-15,.72-15.75-2.49.23-7.63-1.59-9.44-6.44-2.41-6.44-2.41-5.8,1.21-6.21-6.42C639.5,77.21,645.36,53.8,638.81,36.58Z"/><path class="cls-2" d="M667.47,33.85s3.95,16.75,32.47,4.54l-5-7.58S679.39,40.92,667.47,33.85Z"/><path class="cls-2" d="M655.09,95.8s5.65,18.86-4.26,19.6-28.39,52.17-15.63,87.89,66.19,27,66.19,27-16.11-74.7-18.66-127.86C682.73,102.39,660.3,88.09,655.09,95.8Z"/><path class="cls-7" d="M637.56,39.3s-10.35-4.63-22.29,19.55S623,86,623,86s14.66,2,16.49-8.83C639.5,77.21,650.5,44.18,637.56,39.3Z"/><path class="cls-4" d="M615.88,100.42l-10.17,18.1s20.54,15.16,53.1,22H683.7l-1.51-22.84S657.87,126.91,615.88,100.42Z"/><ellipse class="cls-8" cx="725.35" cy="211.66" rx="8.17" ry="6.53" transform="translate(298.87 835.4) rotate(-71.9)"/><ellipse class="cls-8" cx="730.88" cy="196.96" rx="5.46" ry="6.09" transform="translate(423.4 888.65) rotate(-81.12)"/><path class="cls-8" d="M734.53,156.46c-2.34-2.66-9.77-11.53-2.14-14.23,7.06-2.49,19.26,0,21.3,1.62,2.44,2,3.13,7.8-9.91,14.45A7.69,7.69,0,0,1,734.53,156.46Z"/><path class="cls-8" d="M736.46,156.31a16.67,16.67,0,0,0,4.44,14.85c4,3.81,9.56,5.11,14.9,5.33a21.32,21.32,0,0,0,9.05-1.44,17.4,17.4,0,0,0,6.73-4.61,18.33,18.33,0,0,0,4.11-9.88c.22-1.64-1.56-3.05-3.06-3.05a3.12,3.12,0,0,0-3,3.05c0-.31-.09.44-.11.54-.06.32-.14.63-.22,1s-.16.59-.26.89c0,.12-.44,1.13-.23.64a12.23,12.23,0,0,1-.77,1.48c-.13.22-.29.44-.43.66-.26.42.21-.21-.22.3a14.94,14.94,0,0,1-1.1,1.15c-.18.17-.36.31-.54.47-.37.35.36-.23-.2.16a18.6,18.6,0,0,1-2.45,1.42c-.55.27.15-.05,0,0l-.54.21c-.38.14-.76.27-1.14.38a18.41,18.41,0,0,1-2,.46l-.37.06c-.52.1.21-.06.37,0a2.57,2.57,0,0,0-.55.06c-.33,0-.66,0-1,0a33.82,33.82,0,0,1-4.61-.23c-.37,0,0,0,0,0l-.46-.07-.89-.17c-.6-.12-1.19-.26-1.78-.43s-1.07-.36-1.6-.55c-.33-.12.13.06.16.08l-.32-.15c-.25-.12-.5-.23-.74-.36s-.77-.43-1.14-.67c-.18-.11-.34-.24-.52-.36-.39-.24.38.36-.18-.14-.29-.26-.58-.52-.85-.79s-.26-.27-.38-.41-.54-.64-.23-.25-.06-.09-.13-.19-.23-.34-.33-.51a10,10,0,0,1-.54-1c-.08-.15-.14-.3-.22-.44-.26-.52.1.3.06.14-.08-.35-.25-.69-.36-1a15.47,15.47,0,0,1-.41-1.76c0-.15-.13-.74,0-.13s0,0,0-.18,0-.56-.06-.84a14.81,14.81,0,0,1,0-1.49c0-.33.07-.65.08-1,0,.08-.16,1,0,.39a3.14,3.14,0,0,0-2.14-3.76,3.09,3.09,0,0,0-3.76,2.13Z"/><path class="cls-8" d="M737.8,164.3c-.41.5-.95.87-1.4,1.33-.27.27.66-.44.13-.11-.13.08-.25.18-.38.27-.29.19-.58.37-.88.54s-.74.39-1.13.57c.67-.31-.58.18-.8.25a9.84,9.84,0,0,1-5.69,0,14.07,14.07,0,0,1-3.12-1.26c-.42-.24-.83-.49-1.23-.77l-.46-.34c.44.34-.43-.37-.51-.44a13.73,13.73,0,0,1-3.47-4.44q-.35-.64-.66-1.32c-.39-.86.11.3-.09-.22-.1-.23-.18-.46-.27-.69a21.17,21.17,0,0,1-.85-3.12c0-.24-.09-.48-.13-.72-.08-.55.06.72,0-.2,0-.48-.08-1-.1-1.44s0-1,0-1.42c0-.28,0-.56.06-.85,0-.67-.1.43,0-.29a17.29,17.29,0,0,1,.68-2.66c0-.08.39-.89.1-.28l.24-.48a13.12,13.12,0,0,1,.82-1.4c0-.06.59-.74.17-.24.12-.14.23-.28.36-.41a10,10,0,0,1,1-1c.89-.77,1.81-1.5,2.66-2.34a45.7,45.7,0,0,0,5-6,113.85,113.85,0,0,0,7.55-12.49c.93-1.69,1.84-3.4,2.84-5.05.19-.3.38-.6.58-.9l.22-.33c.32-.57-.51.5-.08.08.21-.2.39-.43.61-.63a3.33,3.33,0,0,0,.28-.25c.34-.33-.51.33.19-.14a27.33,27.33,0,0,1,10.48-4,33.27,33.27,0,0,1,14.76.14c.63.17,1.25.36,1.85.58,0,0,.95.38.45.17.29.12.58.26.86.4.54.27,1,.58,1.56.88l3.8,2.24a3.09,3.09,0,0,0,4.5-1.83,33.68,33.68,0,0,1,1.44-4.71c.12-.32.25-.64.38-1-.23.55.1-.2.17-.37.33-.7.68-1.39,1.08-2.06.18-.31.37-.62.57-.92.08-.12.72-.94.31-.46.23-.26.45-.53.69-.77l.36-.36c.06,0,.6-.49.26-.23s.48-.29.59-.36c.62-.37-.14,0,.16-.08s.54,0,0,0l.88,0c.75,0-.27-.1.14,0l.72.14a15.14,15.14,0,0,1,1.88.58c.32.11.63.23,1,.36-.63-.25.37.17.49.22.73.34,1.44.69,2.15,1.07,1.47.77,2.9,1.61,4.31,2.48,2.67,1.64,5.26,3.4,7.82,5.19l3,2,1,.68c.61.39-.28-.33.22.18.22.23.44.46.67.68s-.25-.44.16.22q.23.36.42.72c.07.12.12.25.18.37,0-.08-.2-.65-.08-.16.07.29.17.58.24.86.19.69.06-.43,0,.05a3.77,3.77,0,0,0,0,.75c-.1-.62.13-.52,0-.26a1.9,1.9,0,0,0-.09.36c0,.43.05-.1.11-.22a3.8,3.8,0,0,0-.26.49c-.16.4.43-.4,0,0s.47-.21-.18.16c-.13.07-.26.14-.38.22-.35.22.51-.17.09,0s-.74.22-1.12.31c-.56.14-.19,0,0,0-.21,0-.42,0-.62.05a12.71,12.71,0,0,1-1.38,0,10.28,10.28,0,0,1-2.47-.39,20.7,20.7,0,0,1-5.43-2.22c-.93-.53-1.85-1.1-2.74-1.7-.4-.27-.8-.55-1.19-.84l-.38-.28s-.77-.58-.35-.25a41.48,41.48,0,0,1-4.68-4.21c-2.69-2.88-7,1.45-4.32,4.33a40.05,40.05,0,0,0,16,10.62c3.81,1.28,8.9,1.87,12.42-.53a7.65,7.65,0,0,0,2.78-8.86c-1-3.07-3.16-4.88-5.73-6.65s-5.14-3.6-7.77-5.31a69,69,0,0,0-9.41-5.38c-2.78-1.25-6.16-2.64-9.26-1.8-3.9,1.06-6.44,4.89-8,8.36a37.31,37.31,0,0,0-2.5,7.26l4.49-1.83a47.29,47.29,0,0,0-8.74-4.52,35.33,35.33,0,0,0-15.47-1.11,39.9,39.9,0,0,0-14.17,4.24,14,14,0,0,0-4.08,3.19,33.6,33.6,0,0,0-3,4.87c-2.44,4.41-4.77,8.87-7.59,13.05a40.2,40.2,0,0,1-4.77,6c-1.72,1.77-3.72,3.14-5.2,5.13-5.82,7.81-3.18,19.64,3.06,26.37a18.74,18.74,0,0,0,16.76,5.82,14.89,14.89,0,0,0,8.49-4.74,3.14,3.14,0,0,0,0-4.32,3.08,3.08,0,0,0-4.32,0Z"/><path class="cls-8" d="M788.57,116.64l-3.07,5.08a2.13,2.13,0,0,0,.34,2.58,9.68,9.68,0,0,1,1.29,1.35c.11.12.2.25.31.37.4.48-.24-.34.07.09s.52.71.76,1.07c.62.91,1.18,1.85,1.71,2.82a47.57,47.57,0,0,1,3.71,8.87,97.84,97.84,0,0,1,3.39,14.55,167.51,167.51,0,0,1,1.85,24.3c0,2.74,4.3,2.75,4.26,0-.15-12.9-1.19-26.11-4.94-38.52-1.71-5.68-4-11.42-7.73-16.1a11.46,11.46,0,0,0-1.67-1.81l.33,2.58,3.07-5.08c1.42-2.35-2.26-4.5-3.68-2.15Z"/><path class="cls-8" d="M744.82,107.31a39,39,0,0,0-2.29-6.07c-1.46-3.15-3.55-6.52-6.68-8.25s-6.12-1-9.11.23a51.88,51.88,0,0,0-9.28,5.35c-2.83,2-5.56,4.07-8.29,6.17-2.25,1.74-4.71,3.26-6,5.9-1.51,3-1.65,6.77.69,9.43,2.75,3.14,7.54,3.07,11.27,2.22,4.77-1.09,9-3.89,12.77-7a41.54,41.54,0,0,0,5.4-5.21,3.13,3.13,0,0,0,0-4.32,3.07,3.07,0,0,0-4.32,0,39.63,39.63,0,0,1-3.46,3.52,38.47,38.47,0,0,1-3.46,2.86,31.81,31.81,0,0,1-4.78,2.89,17.69,17.69,0,0,1-4.77,1.52c.41-.07-.19,0-.23,0l-.7,0a11.28,11.28,0,0,1-1.3,0,5.67,5.67,0,0,1-.58,0c.59.08.11,0,0,0s-1.29-.53-.63-.16l-.64-.37c-.35-.2.5.25.15.1a.64.64,0,0,1-.27-.27c-.21-.33.29.53.13.18a3.37,3.37,0,0,1-.19-.32c-.25-.59.13.57-.06-.2s-.08.38,0-.11a6.43,6.43,0,0,0,0-.76c0-.46-.18.63,0-.15l.27-.87c.12-.39-.26.52-.06.16l.18-.37c.14-.25.29-.48.44-.72.38-.6-.33.29.18-.21l.68-.68c.39-.39-.43.31.12-.09l.52-.38,1.32-1c2.31-1.78,4.61-3.57,7-5.27a70,70,0,0,1,8.3-5.31c.62-.33,1.26-.63,1.9-.93.12-.06.55-.21,0,0l.45-.18c.32-.11.64-.23,1-.33s.54-.16.82-.22c.13,0,1-.14.46-.1s.19,0,.31,0,.24,0,.34,0c.48,0-.59-.21-.18,0a2.26,2.26,0,0,0,.3.08c.48,0-.19-.13,0,0l.93.55c.46.29.06.06,0,0,.19.17.38.34.56.52a8.51,8.51,0,0,1,.71.76c.12.13.23.27.34.41-.4-.51.14.2.17.25.23.33.46.68.67,1a23.53,23.53,0,0,1,1.22,2.27c.15.31.3.62.44.94.07.15.13.31.2.46-.29-.69,0,.06.06.16.22.58.44,1.16.65,1.74s.39,1.18.56,1.78c1,3.79,6.93,2.18,5.89-1.63Z"/><path class="cls-8" d="M725.2,114.67l2.9,4.31.41.62a2.26,2.26,0,0,0,1.27,1,2.18,2.18,0,0,0,1.64-.22,2.11,2.11,0,0,0,1-1.27,2.09,2.09,0,0,0-.21-1.64l-2.9-4.31-.41-.62a2.29,2.29,0,0,0-1.27-1,2.17,2.17,0,0,0-1.65.22,2.13,2.13,0,0,0-1,1.27,2.09,2.09,0,0,0,.21,1.64Z"/><path class="cls-8" d="M730.09,170c-.79,1.15-1.6,2.29-2.42,3.42-1,1.34-1.93,2.66-2.91,4q-.88,1.2-1.8,2.4l-1,1.34-.49.65-.1.13c.19-.25-.16.2-.19.24a328.41,328.41,0,0,1-23.61,27.34,220,220,0,0,1-17.46,16.27,3.07,3.07,0,0,0,0,4.32,3.12,3.12,0,0,0,4.32,0A249.73,249.73,0,0,0,713.63,201q9.79-11.34,18.63-23.49c1-1.45,2.1-2.91,3.11-4.39a3.08,3.08,0,0,0-1.1-4.18,3.12,3.12,0,0,0-4.18,1.1Z"/><path class="cls-8" d="M725.36,185.87a141.83,141.83,0,0,0,20.37,1.7c12.77.24,26.21-.8,38.17-5.58,6.78-2.71,13.19-6.62,17.73-12.44a3.16,3.16,0,0,0,0-4.33c-1-1.05-3.3-1.31-4.32,0a31.26,31.26,0,0,1-3,3.37c-.52.51-1.07,1-1.63,1.47l-.8.65c-.09.08-.46.35,0,0l-.62.47a43.32,43.32,0,0,1-7.81,4.44c-.13,0-1.1.46-.51.22-.38.15-.76.31-1.14.45q-1.14.45-2.31.84-2.28.78-4.62,1.39a86.79,86.79,0,0,1-9.29,1.87l-.57.08-1.24.16-2.47.26c-1.58.16-3.17.28-4.76.37-2.93.17-5.88.23-8.82.22q-7.29,0-14.55-.76c-1-.09-1.92-.19-2.88-.31l-1.15-.14c-.36,0-1.67-.25-.31,0-.6-.1-1.21-.17-1.82-.27a3.15,3.15,0,0,0-3.76,2.14c-.4,1.46.5,3.49,2.14,3.76Z"/><path class="cls-8" d="M716.4,198.3c6.22,1,12.53,1.58,18.82,2,12.53.78,25.22.61,37.61-1.54a68.6,68.6,0,0,0,20.25-6.49A3.06,3.06,0,1,0,790,187a43.44,43.44,0,0,1-7.67,3.19,77.55,77.55,0,0,1-8.88,2.27,116,116,0,0,1-18.5,2,206.94,206.94,0,0,1-31.38-1.3l-2.63-.32-.7-.09-.57-.08L718,192.4a3.16,3.16,0,0,0-3.76,2.14,3.07,3.07,0,0,0,2.13,3.76Z"/><path class="cls-8" d="M728.9,133.72s-.68.83-.22.3c.21-.24.41-.48.63-.71s.67-.66,1-1l.3-.26c.37-.31-.07.09-.24.18.27-.15.51-.36.77-.53s.48-.3.73-.43l.36-.19.24-.11c.36-.18-.31.14-.36.15a6.64,6.64,0,0,0,.92-.31l.41-.1.2,0c.51-.12-.18,0-.32,0,.31,0,.64-.05.95-.05l.52,0h-.1c-.58-.07-.05,0,0,0,.35.09.68.22,1,.3s-.33-.15-.33-.15a1.28,1.28,0,0,0,.24.11c.22.11.44.22.65.35s.44.27.65.42a.76.76,0,0,1,.25.18c-.11-.22-.42-.35,0,0a16,16,0,0,1,1.25,1.22c.23.26.46.52.68.79l.09.12.27.38c.49.69.93,1.41,1.35,2.14a3.06,3.06,0,1,0,5.28-3.09c-2.53-4.38-6.48-8.92-12-8.9a13,13,0,0,0-8.8,4,15.8,15.8,0,0,0-1.73,2,3.07,3.07,0,0,0,1.1,4.18,3.14,3.14,0,0,0,4.18-1.1Z"/><path class="cls-8" d="M762.27,135.61s-.68.83-.22.3c.21-.24.42-.48.64-.71a11.58,11.58,0,0,1,1-1l.3-.26c.37-.31-.07.09-.24.18.27-.15.51-.37.77-.53a7.74,7.74,0,0,1,.73-.43l.36-.19.24-.11c.36-.19-.31.14-.36.15a6.64,6.64,0,0,0,.92-.31l.41-.1.21,0c.5-.11-.19,0-.32,0,.3,0,.63,0,.94,0l.52,0h-.1c-.58-.07-.05,0,.06,0,.34.09.67.22,1,.3s-.33-.15-.33-.15a2.56,2.56,0,0,0,.24.11c.22.11.44.22.65.35s.44.27.65.42a.92.92,0,0,1,.25.17c-.1-.22-.42-.35,0,0a16,16,0,0,1,1.25,1.22c.24.25.46.52.68.78,0,0,.28.38.09.13l.27.38c.49.69.93,1.41,1.35,2.14a3.06,3.06,0,1,0,5.28-3.09c-2.53-4.38-6.48-8.92-12-8.9a13,13,0,0,0-8.8,4.05,16.43,16.43,0,0,0-1.73,2,3.08,3.08,0,0,0,1.1,4.19,3.15,3.15,0,0,0,4.18-1.1Z"/><path class="cls-8" d="M637.81,36.42c-4-.88-7.65,1.29-10.52,3.83A39.64,39.64,0,0,0,620.88,48a97.35,97.35,0,0,0-7.52,13.83,95.35,95.35,0,0,0-3.87,9.09,13.07,13.07,0,0,0-.66,5.58A14.29,14.29,0,0,0,614,85.86c5.49,4.58,13.82,6.85,20.77,4.66a12.41,12.41,0,0,0,8.45-8.13,103.59,103.59,0,0,0,4-21.73,3.27,3.27,0,0,0-3.24-3.24,3.31,3.31,0,0,0-3.24,3.24,108,108,0,0,1-3.15,17.75c-.25,1-.51,1.89-.8,2.82-.19.61.32-.4,0-.14a1.91,1.91,0,0,0-.21.43c-.19.33-.42.62-.61.94.47-.8,0,0-.22.19s-.45.41-.67.62c.56-.54.11-.08-.25.14s-.59.34-.9.51c-.14.08-.29.13-.43.2.78-.39.38-.14.15-.07s-.61.22-.92.31-.65.17-1,.24-1.35.19-.45.1a24.72,24.72,0,0,1-4.47,0c-.77-.07.74.15,0,0l-.44-.07c-.36-.07-.72-.14-1.08-.23A21.06,21.06,0,0,1,623,83.7l-1-.4c.89.36-.26-.13-.43-.22a18.54,18.54,0,0,1-2.08-1.18c-.29-.19-.57-.42-.87-.61.77.5-.13-.12-.32-.29a18.34,18.34,0,0,1-1.56-1.62c.54.6,0,0-.2-.31a8.31,8.31,0,0,1-.51-.85c-.14-.26-.47-1.24-.17-.3-.11-.35-.24-.68-.34-1a9.79,9.79,0,0,0-.2-1c-.15-.39,0,.82,0,.15,0-.13,0-.27,0-.4,0-.35,0-.7,0-1s.15-.91,0,0c0-.22.07-.44.12-.66a36.72,36.72,0,0,1,2.7-6.9,113.42,113.42,0,0,1,7.05-13.69c.95-1.54,2-3,3-4.49.11-.16.47-.6,0,0l.35-.43c.22-.28.45-.55.68-.82.44-.52.89-1,1.36-1.52s1-1,1.47-1.4l.7-.58c.36-.31-.31.26-.32.24l.38-.28c.4-.27.79-.53,1.2-.77l.59-.3.23-.11c.51-.28-.82.27-.36.15s.64-.24,1-.32l.43-.1c.69-.19-.91,0-.35,0,.25,0,.52,0,.78,0,.81,0-1-.21-.16,0a3.32,3.32,0,0,0,4-2.26,3.28,3.28,0,0,0-2.27-4Z"/><path class="cls-8" d="M620.1,85.45c-1.94,4.18-4.14,8.25-6.41,12.26s-4.55,7.77-7,11.52a121.7,121.7,0,0,1-8.73,11.82c-1.74,2-3.55,4-5.48,5.9-1,.93-2,1.83-3,2.69-.46.38-.92.76-1.39,1.13.53-.42-.23.17-.28.2l-.93.68a3.33,3.33,0,0,0-1.17,4.43,3.27,3.27,0,0,0,4.44,1.17c8.38-5.92,14.9-14.18,20.64-22.59a196.27,196.27,0,0,0,12.69-21.48c.76-1.47,1.51-3,2.21-4.46a3.34,3.34,0,0,0-1.17-4.43,3.27,3.27,0,0,0-4.43,1.16Z"/><path class="cls-8" d="M656.84,59.9a13.84,13.84,0,0,1,0-1.44,13.31,13.31,0,0,0,.12-1.53c0,.27-.15,1,0,.38,0-.14,0-.28.08-.42.06-.32.13-.64.22-1s.17-.59.27-.88a4,4,0,0,0,.17-.44c-.36,1.15-.2.47,0,.16s.31-.58.48-.86l.28-.41c.26-.41-.59.69-.26.34l.2-.24a7.19,7.19,0,0,1,.73-.73c.08-.07.17-.13.24-.2s-.75.54-.4.31c.19-.11.37-.25.56-.36l.5-.27.32-.14s-.87.32-.45.19a13,13,0,0,1,1.35-.39l.4-.08c.55-.13-.88.08-.3,0,.29,0,.59-.06.89-.07a16.38,16.38,0,0,1,2,.07c.12,0,.24,0,.36,0-1,0-.22,0,.07,0s.79.15,1.18.24a25.44,25.44,0,0,1,2.59.72,3.27,3.27,0,0,0,4-2.27,3.31,3.31,0,0,0-2.26-4c-5.2-1.68-11.43-2.28-15.76,1.69-2.63,2.4-3.68,6-3.9,9.47a12.14,12.14,0,0,0,0,2,3.32,3.32,0,0,0,3.24,3.24c1.61-.07,3.42-1.44,3.24-3.24Z"/><path class="cls-8" d="M660.82,94.54a19.25,19.25,0,0,0,4.89,5,35.26,35.26,0,0,0,14.43,6.15,58.3,58.3,0,0,0,12.29,1.09,37.12,37.12,0,0,0,11-1.52c4.3-1.4,8.3-4.2,9.57-8.75a11.6,11.6,0,0,0-.17-6.9,3.37,3.37,0,0,0-4-2.26,67.07,67.07,0,0,1-9.19.64c-1.38,0-2.76-.06-4.13-.18l-1-.1-.58-.07-.54-.09-1.08-.19a33.24,33.24,0,0,1-3.24-.79l-1.36-.44-.66-.24c-.11,0-1-.41-.55-.22s-.21-.1-.32-.15l-.58-.28c-.44-.21-.87-.44-1.29-.68-.74-.43-1.44-.9-2.14-1.39-.52-.36.19.18.06.06s-.34-.27-.5-.41-.59-.5-.87-.77a20.85,20.85,0,0,1-1.53-1.59c-.13-.15-.24-.3-.37-.44-.35-.43-.11,0,.11.15-.22-.12-.45-.62-.59-.83-.38-.55-.73-1.12-1.06-1.71s-.55-1.07-.8-1.61.29.76,0-.07c-.1-.28-.21-.55-.31-.82a24.06,24.06,0,0,1-.76-2.73c-.08-.41-.15-.82-.22-1.23-.11-.64.11,1,0,.26,0-.14,0-.28-.05-.41s0-.57,0-.85l-4.1,3.12c12.36,4.89,28.56,8.8,40.64,1,8.34-5.41,12.25-15.15,12.38-24.83.1-7.75-2-17.29-8.57-22.17-4.32-3.2-10.16-1.84-14.86-.28a84.15,84.15,0,0,0-9.89,4.44c-.69.34-1.39.66-2.1,1,.83-.37-.31.12-.52.2-.44.17-.89.32-1.34.47a23.65,23.65,0,0,1-2.34.61c-.42.09-.84.16-1.25.22.75-.11.14,0,0,0l-1,.07a23.39,23.39,0,0,1-2.9,0c-.53,0-1-.08-1.58-.14s-.28,0-.13,0c-.46-.06-.93-.14-1.38-.23-2.81-.54-5.46-1.49-8.2-2.29a40,40,0,0,0-15.33-1.68c-5.91.63-11.89,2.75-16.22,7a8.36,8.36,0,0,0-.58.61,3.33,3.33,0,0,0,0,4.58,3.27,3.27,0,0,0,4.58,0c.17-.2.36-.39.55-.58l.69-.63.45-.37c.55-.47-.63.44,0,0a26.56,26.56,0,0,1,3-1.84l.81-.4c.22-.1,1.29-.49.41-.19.78-.27,1.53-.57,2.32-.81s1.58-.43,2.39-.59c.45-.09.91-.16,1.37-.23-.65.09-.14,0,0,0,.35,0,.69-.08,1-.1a33.69,33.69,0,0,1,6.66.14c.68.09-.79-.13.43.06l.95.16c.59.1,1.17.22,1.76.35,1.54.34,3.06.77,4.57,1.26a50.3,50.3,0,0,0,7.74,2,28.07,28.07,0,0,0,12.3-.48,54.49,54.49,0,0,0,9.14-4c.69-.34,1.39-.68,2.09-1l1-.46c.79-.35-.64.24.17-.07l.73-.29a32,32,0,0,1,5.43-1.55c.52-.1,1-.19,1.56-.26h.11c.34,0,.68-.08,1-.1s.62,0,.93,0c.55,0,.29.3-.32-.06a2.23,2.23,0,0,0,.45.08l.87.27c.6.17-.81-.42-.26-.11.13.07.28.13.41.21a8.63,8.63,0,0,1,.82.51c.64.41-.44-.4-.19-.15l.39.32a10.21,10.21,0,0,1,.74.73c.19.2.47.72.71.82-.44-.19-.5-.68-.1-.11.11.15.22.31.32.47a18.9,18.9,0,0,1,1.21,2.09,7.52,7.52,0,0,0,.53,1.15c-.52-.69-.21-.51,0-.05.09.2.16.41.24.62.31.86.58,1.73.81,2.62s.45,1.91.61,2.88c0,.21.07.43.11.65.13.83-.09-.8,0,0,.05.52.11,1,.15,1.56a35.86,35.86,0,0,1-.07,6.13c0,.23-.06.46-.08.69-.09.85.13-.77,0,.06-.09.57-.18,1.13-.3,1.69a30.91,30.91,0,0,1-.78,3c-.14.45-.29.89-.46,1.33-.09.24-.18.48-.28.72s-.26.6,0,0,0,.07-.09.18A27.53,27.53,0,0,1,714,62.89c-.25.4-.51.79-.77,1.17-.15.22-.32.42-.46.64-.35.5.52-.62.12-.17l-.3.37a21.44,21.44,0,0,1-2.2,2.27l-.61.53-.25.2c-.45.4.55-.38.21-.16s-.94.68-1.43,1a26.33,26.33,0,0,1-3,1.61c-.48.22.25-.11.28-.12l-.5.2-.76.28c-.62.21-1.25.4-1.88.57s-1.26.3-1.9.42l-.89.16-.5.07c1-.16.24,0,0,0a43.43,43.43,0,0,1-9.26-.12c-.84-.09.49.07,0,0l-.66-.1c-.44-.06-.88-.14-1.33-.22-.92-.16-1.84-.35-2.75-.55-2-.45-4-1-5.9-1.61-2.18-.68-4.32-1.46-6.43-2.29s-4.11,1.2-4.11,3.12a23.24,23.24,0,0,0,2.73,10.11c3.5,6.88,10.3,11.28,17.68,13,7,1.66,14.31,1.3,21.41.29l-4-2.27a8,8,0,0,1,.31,1.16c.12.54,0,.59,0-.2,0,.24,0,.48.06.72s0,.46,0,.69,0,.27,0,.4c0,.63-.13-.07.05-.28-.06.07-.47,1.7-.46,1.71-.14-.2.39-.78.08-.2-.08.14-.15.29-.24.44s-.18.29-.27.44c-.33.54,0,0,.06,0-.26.24-.47.54-.72.79l-.46.41c-.52.48.53-.33-.08.06-.39.26-.78.52-1.2.75-.23.13-.46.24-.69.35l-.31.15c-.35.16.58-.22,0,0a27,27,0,0,1-3.74,1.06l-1.11.2-.49.07c.47-.07-.11,0-.18,0-.94.1-1.88.18-2.83.22a56,56,0,0,1-5.94,0,45.2,45.2,0,0,1-5-.5,40.21,40.21,0,0,1-8.4-2.3l-.36-.15.18.08L674,97c-.53-.25-1-.52-1.56-.8a25.28,25.28,0,0,1-2.53-1.56c-.2-.14-.4-.28-.59-.43-.62-.45.27.25,0,0s-.6-.49-.89-.75A18.62,18.62,0,0,1,667,92l-.48-.55c-.5-.58.49.7.14.18-.08-.13-.18-.24-.26-.37-2.16-3.56-7.77-.3-5.59,3.27Z"/><path class="cls-8" d="M678,103.52c.43,9.22,1.19,18.43,2.06,27.62,1.74,18.36,4,36.76,7.92,54.8a142.14,142.14,0,0,0,8.07,26.62c.7,1.6,3.06,2,4.44,1.16a3.33,3.33,0,0,0,1.16-4.43l-.27-.64c.34.81,0,.07,0-.08-.15-.37-.3-.74-.44-1.11-.36-.91-.71-1.83-1-2.76-.64-1.8-1.23-3.62-1.79-5.45-1.24-4.09-2.3-8.23-3.25-12.4-2.06-9-3.61-18.1-4.93-27.22-.17-1.14-.33-2.28-.49-3.42,0-.21,0-.41-.08-.62,0-.06-.15-1.08-.05-.38-.08-.61-.17-1.23-.25-1.85q-.45-3.5-.86-7c-.5-4.21-1-8.44-1.37-12.66q-1-10.32-1.73-20.65c-.22-3.18-.43-6.36-.58-9.54a3.31,3.31,0,0,0-3.24-3.24,3.27,3.27,0,0,0-3.24,3.24Z"/><path class="cls-8" d="M692.05,33.3s7.94,23.57,27.33,8.29c0,0,.17-13.44-9.61-13.07A44,44,0,0,0,692.05,33.3Z"/><path class="cls-8" d="M614.39,102.71a59.77,59.77,0,0,0,11.17,7.69,90.76,90.76,0,0,0,30.72,10.46,100,100,0,0,0,25,.61,3.33,3.33,0,0,0,3.24-3.24c0-1.62-1.49-3.42-3.24-3.24a90.29,90.29,0,0,1-38.59-4.07c-1.22-.4-2.42-.83-3.61-1.29l-1.71-.68-.36-.15-.87-.37c-2-.9-4-1.87-6-2.93a74.79,74.79,0,0,1-8.32-5.15c-.5-.36-1-.73-1.47-1.09-.06,0,.72.56.25.19l-.26-.2-.47-.38c-.29-.24-.59-.48-.86-.74a3.24,3.24,0,1,0-4.59,4.58Z"/><path class="cls-8" d="M605.8,120.14a95.35,95.35,0,0,0,14.08,9.19,116.4,116.4,0,0,0,35.37,12.87,94.18,94.18,0,0,0,26,1.15,3.34,3.34,0,0,0,3.24-3.24c0-1.62-1.49-3.42-3.24-3.24-14.27,1.44-28-.73-41.51-5.58-1.44-.51-2.87-1.06-4.29-1.64l-1-.42-.39-.17c-.71-.3-1.42-.61-2.12-.93q-3.64-1.65-7.17-3.52a120.63,120.63,0,0,1-10.49-6.28c-1.13-.76-2.24-1.54-3.32-2.34l-.52-.39c-.62-.47.41.35.24.19a1.63,1.63,0,0,0-.29-.23,3.32,3.32,0,0,0-4.58,0c-1.14,1.13-1.37,3.47,0,4.58Z"/><path class="cls-8" d="M813.1,118.53c0,3-.11,6.07-.35,9.09-.12,1.5-.26,3-.44,4.48l-.12,1-.09.68c0-.07.06-.46,0-.05-.1.73-.21,1.47-.33,2.2a113.84,113.84,0,0,1-4.15,17.26c-.9,2.75-1.89,5.46-3,8.14-.07.15-.36.85-.28.67l-.29.66c-.31.71-.62,1.42-.94,2.12-.6,1.3-1.23,2.6-1.87,3.88a116.53,116.53,0,0,1-8.84,14.65c-1.81,2.55-2.92,4-4.86,6.32s-3.71,4.3-5.68,6.35-4.09,4.09-6.25,6c-1,.95-2.13,1.87-3.22,2.78L770.87,206c-.25.21-.51.41-.77.61l-.51.41c.28-.23.07-.06-.09.06a117.13,117.13,0,0,1-14.31,9.34q-3.77,2.07-7.67,3.87l-2,.88-.67.28-.2.09-.62.25c-1.33.55-2.68,1.07-4,1.57a114,114,0,0,1-16.84,4.73c-1.5.3-3,.57-4.53.81l-2,.31c-.4.05,0,0,.06,0l-.52.07-1.36.16c-3,.35-6,.58-9,.69a115.77,115.77,0,0,1-18.14-.73l-1-.12-.51-.07c.15,0,.58.08-.12,0s-1.47-.21-2.2-.33c-1.46-.24-2.92-.5-4.37-.79q-4.3-.87-8.54-2.07t-8.29-2.69c-1.41-.52-2.8-1.06-4.19-1.63-.14-.06-.89-.38-.41-.18l-.92-.39-2.12-.95a115.85,115.85,0,0,1-15-8.32q-3.57-2.34-7-5l-.35-.27-.77-.61-1.78-1.45q-1.64-1.36-3.22-2.79a115.62,115.62,0,0,1-11.78-12.26c-1.93-2.32-3-3.78-4.86-6.34q-2.5-3.55-4.75-7.29c-1.47-2.46-2.85-5-4.13-7.52-.65-1.28-1.27-2.58-1.86-3.88-.28-.61-.55-1.21-.81-1.82-.06-.14-.47-1.09-.25-.56l-.44-1.08a114.75,114.75,0,0,1-5.33-16.58c-.68-2.87-1.26-5.77-1.72-8.68l-.33-2.2c.08.52,0-.31-.06-.46-.05-.4-.09-.8-.14-1.2-.17-1.49-.32-3-.43-4.48a116,116,0,0,1,0-18.36c.12-1.5.27-3,.45-4.48,0-.34.08-.68.13-1,.08-.63,0,.17.06-.46.12-.79.23-1.58.36-2.37.48-2.91,1.06-5.8,1.76-8.66a114.38,114.38,0,0,1,5.4-16.56c.06-.15.13-.3.19-.46.22-.52-.18.42.05-.1l.39-.92c.29-.65.58-1.31.89-2,.6-1.31,1.22-2.6,1.87-3.88,1.32-2.59,2.74-5.14,4.25-7.63s3-4.82,4.7-7.14c1.8-2.51,2.89-3.93,4.88-6.31a115.7,115.7,0,0,1,11.84-12.21c1.06-1,2.14-1.87,3.23-2.78.55-.45,1.1-.9,1.66-1.34l.77-.61s.43-.34.17-.13l.31-.24c2.26-1.72,4.59-3.36,7-4.91a115.26,115.26,0,0,1,15.18-8.33l1.82-.8.41-.18c.4-.18.82-.34,1.23-.51,1.33-.54,2.68-1.06,4-1.55q4.1-1.48,8.3-2.66c2.83-.79,5.69-1.46,8.56-2,1.46-.29,2.91-.54,4.37-.77l1-.16.68-.1.23,0,.74-.09,1.2-.15a117,117,0,0,1,18.15-.65c3.06.13,6.12.38,9.16.75l1,.13c.4.06,0,0-.06,0l.51.07,2.37.36c1.46.24,2.91.51,4.36.81a115.15,115.15,0,0,1,16.81,4.8c1.36.51,2.7,1,4,1.59l.47.19c-.07,0-.41-.18,0,0l1.06.46,2,.89q3.9,1.8,7.66,3.9t7.31,4.44c1.19.78,2.36,1.59,3.52,2.41L768.19,29l.78.59.39.29c.08.06.66.51.23.17a115.55,115.55,0,0,1,12.62,11.4q2.94,3.09,5.65,6.37l1.24,1.53.71.9c.24.31,0,0,0,0l.4.52c.86,1.13,1.7,2.28,2.52,3.44a116.5,116.5,0,0,1,8.77,14.69c.64,1.29,1.26,2.58,1.85,3.89.3.65.59,1.31.88,2l.19.46c0-.06-.17-.41,0,0s.3.72.44,1.08c1.11,2.73,2.12,5.51,3,8.32a114,114,0,0,1,4,17.13c.06.33.11.67.16,1,0,.17.13.95.1.74s.09.7.12.91l.12,1c.17,1.43.3,2.87.41,4.31.23,3,.34,5.94.34,8.92,0,4.38,6.82,4.39,6.81,0A118,118,0,0,0,798.2,50.15a121,121,0,0,0-25-25.9A118.41,118.41,0,0,0,610.09,43a120.48,120.48,0,0,0-18.51,30.93,118.61,118.61,0,0,0,60.69,152.52,119.1,119.1,0,0,0,73.06,8.22,117.38,117.38,0,0,0,33.73-12.53,118.87,118.87,0,0,0,48.36-50.57,117.22,117.22,0,0,0,11.05-34.61,123.1,123.1,0,0,0,1.44-18.39C819.92,114.15,813.11,114.14,813.1,118.53Z"/><ellipse class="cls-8" cx="660.99" cy="154.85" rx="6.53" ry="8.18" transform="matrix(1, -0.07, 0.07, 1, -9.22, 46.69)"/><ellipse class="cls-8" cx="660.99" cy="139.23" rx="5.46" ry="6.1" transform="translate(462.5 784.9) rotate(-84.81)"/></g></g></svg>