<?xml version="1.0" encoding="UTF-8"?><svg id="Capa_2" xmlns="http://www.w3.org/2000/svg" viewBox="0 0 180.57 187.78"><defs><style>.cls-1{fill:#f9ed81;}.cls-2{fill:#697daa;}.cls-3{fill:#fe6da8;}.cls-4{fill:#fffcdb;}.cls-5{fill:#fbf4af;}.cls-6{fill:#ef4a8a;}.cls-7{fill:#ef4b8a;}.cls-8{fill:#ef4b8b;}.cls-9{fill:#fcf2af;}.cls-10{fill:#66c4da;}.cls-11{fill:#a2cde0;}.cls-12{fill:#60c43b;}.cls-13{fill:#7989af;}</style></defs><g id="Layer_9"><path class="cls-3" d="m90.73,73.07c-.03,4.93-.06,9.85-.09,15.1.03,1.99.06,3.66.09,5.33-.03,4.93-.06,9.85-.09,15.1.03,1.99.06,3.66.09,5.33-.03,4.93-.06,9.85-.09,15.1.03,1.99.06,3.66.09,5.32-.03,4.93-.06,9.85-.09,15.1.03,1.99.06,3.66.09,5.32-.63,3.37-.84,6.88-1.95,10.09-3.43,9.9-13.16,16.57-23.6,17.01-12.8.55-24.68-8.34-27.23-21.9-.28-1.48-.35-3-.52-4.53-2.22-.59-4.5-.96-6.6-1.78-10.87-4.24-16.66-15.3-13.96-26.63.3-1.25,0-1.82-.95-2.55-8.73-6.66-14.22-15.36-15.54-26.34-1.98-16.31,4.11-29.12,17.41-38.58.19-.14.38-.3.63-.49-1.62-3.54-2.3-7.24-2.12-11.13.45-9.86,7.55-18.48,17.18-20.76.41-.1.82-.23,1.23-.3q2.88-.53,3.11-3.4c.88-10.75,9.91-20.79,20.6-22.9,14.73-2.91,28.22,5.69,31.55,20.33.67,2.96.46,6.12.64,9.53.01,1.93.03,3.52.05,5.12-.01,3.67-.03,7.33-.04,11.33.03,1.96.06,3.58.09,5.2-.02,5.12-.05,10.24-.07,15.67.03,1.99.06,3.66.09,5.32Zm-39.6-28.41c-.3,0-.61,0-.91,0-2.1.02-2.91.66-2.94,2.32-.03,1.59,1.11,2.68,2.91,2.78.48.03.97,0,1.45,0,5.11.05,10.6,4.52,11.23,9.61.46,3.71.4,7.49.41,11.24.02,6.6-5.45,12.15-12.03,12.35-2.03.06-2.87.85-2.87,2.69,0,1.64.88,2.38,2.89,2.42,7.08.14,14.72-5.68,16.37-12.63,1.31-5.55,1.18-11.21.31-16.78-1.24-7.93-9.12-14.23-16.81-14Zm-12.9,56.25c-.5-2.1-1-4.19-1.51-6.29-.14-.58-.15-1.36-.52-1.69-.75-.65-1.69-1.42-2.59-1.46-1.29-.05-1.9,1.04-1.99,2.37-.62,9.59,7.19,18.57,16.53,19.65,5.69.66,11.48.37,17.23.45,1.79.02,3.02-1.19,3.01-2.73-.02-1.55-1.01-2.35-3.02-2.36-4.12-.01-8.25,0-12.37,0-6.21-.02-11.36-2.08-14.77-7.94Zm-15.08-24.81c.69-.59,1.36-1.2,2.07-1.75,4.09-3.18,8.69-4.89,13.91-4.89,1.86,0,2.69-.89,2.7-2.66.01-1.6-.84-2.42-2.7-2.41-1.38,0-2.76.15-4.13.33-13.31,1.74-24.23,14.56-23.78,27.63.06,1.63.78,2.63,2.18,2.89,1.43.26,2.37-.7,2.75-2.08.16-.57.12-1.2.21-1.79.27-1.78.44-3.59.88-5.34.96-3.79,3.17-6.89,5.92-9.93Zm54.91-53.97c-2.71-7.25-10.38-10.87-16.64-9.58-6.98,1.43-12.14,7.47-11.97,14.37.04,1.47.54,2.56,2.06,2.74,1.54.19,2.53-.63,2.87-2.16.1-.47.15-.95.18-1.43.38-5.27,5.15-8.87,9.73-8.67,5.51.24,9.11,4.12,9.57,9.56.13,1.52,1.28,2.76,2.58,2.74,1.32-.02,2.56-1.28,2.48-2.85-.08-1.49-.48-2.97-.85-4.72Zm-3.67,127.18c.24,0,.5.06.72,0,1.46-.41,2.53-1.16,2.39-2.91-.13-1.59-1.06-2.17-2.56-2.19-.53,0-1.06-.25-1.59-.31-7.69-.85-12.76-5.08-15.36-12.25-.73-2.01-.82-4.24-1.25-6.36-.29-1.44-1.29-1.97-2.68-1.83-1.36.13-2.05.92-2.05,2.29,0,1.27-.17,2.59.08,3.82,1.85,9.07,6.93,15.45,15.82,18.43,1.98.66,4.11.86,6.47,1.33Zm-19.85,17.75c2.83,2.53,6.23,3.64,9.94,3.78,1.6.06,2.8-1.14,2.82-2.47.03-1.39-1.13-2.52-2.67-2.6-5.97-.3-10.51-4.37-10.8-10.95-.06-1.41-1.24-2.54-2.54-2.54-1.31,0-2.57,1.15-2.52,2.55.15,4.8,1.77,8.96,5.77,12.24Zm-19.24-24.07c.8.26,1.58.58,2.4.78,1.54.37,3.08-.54,3.38-1.92.28-1.31-.63-2.76-2.17-3.05-3.9-.72-7.03-4.36-6.57-8.88.2-1.93-.63-2.77-2.21-2.82-1.51-.05-2.67,1.03-2.85,2.65-.6,5.43,2.67,10.96,8.02,13.24Z"/><path class="cls-6" d="m51.29,44.66c7.52-.23,15.4,6.07,16.64,14,.87,5.57,1,11.23-.31,16.78-1.64,6.95-9.28,12.77-16.37,12.63-2.01-.04-2.9-.78-2.89-2.42,0-1.84.85-2.63,2.87-2.69,6.58-.2,12.05-5.74,12.03-12.35,0-3.75.05-7.53-.41-11.24-.63-5.09-6.12-9.56-11.23-9.61-.48,0-.97.02-1.45,0-1.8-.1-2.93-1.19-2.91-2.78.03-1.66.84-2.3,2.94-2.32.3,0,.61,0,1.08,0Z"/><path class="cls-8" d="m38.29,101.02c3.34,5.75,8.48,7.81,14.7,7.82,4.12,0,8.25,0,12.37,0,2.01,0,3,.8,3.02,2.36.02,1.54-1.21,2.75-3.01,2.73-5.75-.08-11.55.21-17.23-.45-9.34-1.08-17.15-10.06-16.53-19.65.09-1.33.7-2.42,1.99-2.37.89.04,1.84.81,2.59,1.46.38.33.38,1.11.52,1.69.51,2.09,1.01,4.19,1.58,6.4Z"/><path class="cls-7" d="m23.03,76.17c-2.64,2.96-4.86,6.06-5.81,9.86-.44,1.74-.6,3.55-.88,5.34-.09.59-.05,1.22-.21,1.79-.38,1.38-1.32,2.34-2.75,2.08-1.4-.26-2.13-1.26-2.18-2.89-.45-13.07,10.47-25.89,23.78-27.63,1.37-.18,2.76-.32,4.13-.33,1.86-.01,2.71.81,2.7,2.41-.01,1.78-.84,2.66-2.7,2.66-5.21,0-9.82,1.71-13.91,4.89-.71.56-1.38,1.17-2.18,1.83Z"/><path class="cls-8" d="m78.11,22.26c.31,1.62.71,3.09.79,4.58.08,1.57-1.15,2.83-2.48,2.85-1.3.02-2.45-1.21-2.58-2.74-.46-5.44-4.05-9.32-9.57-9.56-4.58-.2-9.35,3.41-9.73,8.67-.03.48-.08.97-.18,1.43-.34,1.53-1.33,2.35-2.87,2.16-1.52-.19-2.02-1.28-2.06-2.74-.17-6.91,4.99-12.94,11.97-14.37,6.26-1.28,13.93,2.33,16.7,9.71Z"/><path class="cls-8" d="m74.23,149.28c-2.21-.44-4.34-.64-6.32-1.3-8.89-2.98-13.97-9.36-15.82-18.43-.25-1.23-.09-2.54-.08-3.82,0-1.36.69-2.15,2.05-2.29,1.39-.14,2.39.39,2.68,1.83.43,2.12.52,4.35,1.25,6.36,2.6,7.17,7.67,11.4,15.36,12.25.54.06,1.06.3,1.59.31,1.49.02,2.43.6,2.56,2.19.14,1.75-.93,2.5-2.39,2.91-.22.06-.48,0-.87-.02Z"/><path class="cls-7" d="m54.42,166.98c-3.9-3.21-5.52-7.37-5.66-12.17-.04-1.4,1.22-2.55,2.52-2.55,1.3,0,2.48,1.14,2.54,2.54.29,6.58,4.83,10.65,10.8,10.95,1.54.08,2.7,1.21,2.67,2.6-.03,1.34-1.23,2.53-2.82,2.47-3.71-.14-7.11-1.24-10.05-3.85Z"/><path class="cls-6" d="m35.16,142.92c-5.22-2.22-8.49-7.75-7.89-13.18.18-1.63,1.34-2.71,2.85-2.65,1.58.05,2.4.89,2.21,2.82-.46,4.52,2.67,8.15,6.57,8.88,1.54.29,2.45,1.74,2.17,3.05-.3,1.39-1.84,2.29-3.38,1.92-.81-.2-1.6-.52-2.53-.84Z"/><path class="cls-13" d="m90.62,63.14c-.02-6.48-.06-12.97-.06-19.45,0-6.11.01-12.22.02-18.49.06,5.13.12,10.42.18,15.71,0,.8,0,1.61,0,2.63,2.23,0,4.22,0,6.51.08,2.11.02,3.93-.04,5.84-.11.09,0,.26-.03.26-.03,2.92.02,5.83.04,9.01.04.26-.01.44,0,.57.09,1.94.02,3.75-.05,5.56-.12,1.94.08,3.9,0,5.81.26,6.72.93,10.62,5.45,10.74,12.27.02,1.26.02,2.51-.05,4.06-.09,2.1-.1,3.9-.15,5.88-.05,1-.1,1.82-.07,2.64.09,2.24.23,4.47.34,6.71,0,0,.02,0,0,.08-.02.09-.03.25-.13.37-.11,1.93-.13,3.73-.18,5.72,0,3.38.03,6.59.03,9.96,0,1.79,0,3.41,0,5.2-.02,3.38,0,6.59,0,9.97.08,1.94.17,3.72.27,5.57,0,.08.03.24.03.24,0,0,.02.01-.1.12-.13,3.21-.14,6.32-.17,9.59.07,1.94.16,3.7.26,5.47-.41,3.24-.82,6.47-1.47,9.74-7.87-4.31-14.45-9.96-20.39-16.37-1.46-1.58-2.6-3.46-3.89-5.28,0-.07-.02-.21.1-.27,1.28-1.21,2.46-2.35,3.61-3.52,1.55-1.59,2.5-3.43,2.49-5.73-.02-13.01,0-26.01-.02-39.02,0-2.62-1.38-4.04-3.94-4.04-7-.02-13.99.01-20.99.02Z"/><path class="cls-2" d="m109.38,115.78c1.29,1.74,2.42,3.63,3.88,5.21,5.94,6.41,12.52,12.06,20.28,16.46.11.12.1.18-.02.38-.19.22-.24.32-.25.43-1.86,3.33-4.71,5.19-8.79,5.7-4.09.04-7.85.07-11.79.06-3.24-.02-6.3,0-9.46.02-.16.02-.23.04-.46.02-1.92-.02-3.67,0-5.59-.03-2.3-.04-4.41-.03-6.53-.03-.03-6.32-.05-12.63.1-19.13,2-.18,3.82-.26,5.63-.17,2.77.14,4.95-.92,6.85-2.87,2-2.07,4.1-4.03,6.16-6.05Z"/><path class="cls-10" d="m112.87,144.06c3.76-.03,7.53-.06,11.46-.07-1.74.18-3.65.33-5.79.51,0,2.52-.06,5.02.05,7.52.02.52.57,1.09.99,1.51,3,3.05,6.05,6.06,9.05,9.12.51.52.83,1.2,1.24,2.13,0,7.17,0,14.03,0,20.88-.14,1.48-1.35,2.26-2.42,2.11-1.11-.15-2.09-1.22-3.06-2.13.09-6.22.13-12.2.14-18.17,0-.27-.26-.53-.39-.8-3.5-3.46-7.01-6.91-10.48-10.39-.38-.38-.55-.97-.83-1.77,0-3.6-.01-6.88,0-10.23.02-.07.04-.21.04-.21Z"/><path class="cls-10" d="m134.85,81.32c.02-1.8.04-3.6.34-5.52,5.1-.11,9.92-.09,14.74-.13.63,0,1.25-.3,1.88-.45,3.67-3.63,7.35-7.25,11.34-10.89,4.89,0,9.47,0,14.04,0,2.19,1.82,1.98,4.12-.81,5.3-2.65,0-4.99-.04-7.32.02-1.23.03-2.45.23-3.67.36-3.36,3.33-6.75,6.64-10.06,10.01-.95.97-1.92,1.42-3.31,1.4-5.49-.08-10.97-.03-16.72-.05-.26-.01-.44-.05-.44-.05Z"/><path class="cls-10" d="m135.1,112.12c-.09-1.77-.18-3.54-.17-5.51.1-.19.28-.22.28-.22,5.66,0,11.32-.06,16.98.05,1,.02,2.2.53,2.93,1.22,3.43,3.25,6.72,6.63,10.28,10.15,3.82.22,7.42.27,11.02.31,1.49.08,2.22,1.17,2.14,2.35-.07,1.01-.91,1.97-1.73,2.96-4.8,0-9.27.01-13.75.02-.5-.34-1.07-.6-1.49-1.02-3.23-3.21-6.44-6.45-9.81-9.92-5.66-.3-11.17-.35-16.68-.41Z"/><path class="cls-10" d="m103.01,43.52c-1.82.06-3.64.12-5.58.08-.12-5.89-.17-11.68-.09-17.47.01-.83.45-1.85,1.03-2.45,3.27-3.4,6.64-6.7,10.22-10.19.3-3.88.37-7.61.43-11.34-.07-1.38.87-1.95,1.96-2.07,1.27-.14,2.62-.1,3.34,1.65.01,4.81.01,9.29.02,13.78-.33.5-.6,1.08-1.02,1.5-3.2,3.24-6.44,6.45-9.9,9.82-.31.58-.43,1-.44,1.43,0,5.09,0,10.18.02,15.27Z"/><path class="cls-10" d="m135.3,127.63c-.27-1.77-.37-3.54-.36-5.49.1-.18.25-.22.42-.21,3.46,0,6.74-.01,10.03-.02.64.33,1.41.52,1.9,1,3.39,3.33,6.73,6.72,10.24,10.34.77.31,1.38.43,2,.43,5.77.01,11.53,0,17.3,0,.62.75,1.62,1.43,1.77,2.26.21,1.16-.09,2.5-1.85,3.04-7.26.01-14.2.01-21.14.01-.6-.41-1.29-.73-1.8-1.24-2.96-2.91-5.92-5.82-8.78-8.82-.96-1-1.94-1.4-3.31-1.33-2.07.1-4.14.02-6.4.02Z"/><path class="cls-10" d="m134.88,65.79c0-1.8.02-3.61.13-5.53,2.44-.12,4.78-.03,7.1-.18.9-.06,1.96-.47,2.6-1.09,3.06-2.91,6-5.96,9-8.93.48-.48,1.07-.85,1.91-1.28,7.25,0,14.19,0,21.13,0,.63.8,1.74,1.6,1.76,2.41.02.95-.92,1.92-1.76,2.89-6.01,0-11.7,0-17.39.03-.63,0-1.26.29-1.89.44-3.55,3.6-7.09,7.21-10.67,10.79-.28.28-.76.35-1.47.51-3.6,0-6.88,0-10.23,0-.07-.02-.22-.04-.22-.04Z"/><path class="cls-10" d="m118.5,43.32c-1.82.25-3.63.32-5.56.11-.13-3.59-.13-6.9-.14-10.21.37-.69.62-1.51,1.14-2.05,3.34-3.44,6.74-6.82,10.3-10.44.22-6.48.27-12.74.31-19,.75-.6,1.46-1.62,2.26-1.7,1.08-.11,2.53-.05,3.03,1.79.01,7.27.01,14.22.01,21.17-.41.61-.73,1.3-1.23,1.81-2.95,3.01-6,5.92-8.88,9-.68.73-1.1,1.91-1.19,2.93-.18,2.12-.06,4.28-.06,6.6Z"/><path class="cls-10" d="m97.36,144.07c1.75-.02,3.5-.04,5.42.03.18.09.19.19.2.37.01,4.86,0,9.55.03,14.24,0,.64.26,1.28.4,1.91,3.63,3.69,7.27,7.38,10.91,11.37.02,4.9.02,9.48.02,14.07-.67.49-1.27,1.25-2.01,1.41-1.37.3-2.72.05-3.29-1.9,0-3.36.02-6.41-.02-9.45,0-.63-.28-1.25-.43-1.88-3.62-3.68-7.25-7.36-10.88-11.35-.01-5.61,0-10.9-.04-16.2,0-.66-.21-1.32-.32-1.98,0,0-.03-.16-.02-.32,0-.16.03-.31.03-.31Z"/><path class="cls-12" d="m165.76,90.79c1.39-3.23,4.89-5.28,7.97-4.66,4.2.85,6.8,3.71,6.84,7.53.04,3.88-2.37,7.01-6.03,7.81-3.66.8-6.85-.74-8.77-4.46-.14-.31-.24-.4-.34-.64,0-1.82,0-3.48.08-5.19.14-.17.2-.29.25-.4Z"/><path class="cls-13" d="m133.35,138.22c-.07-.07-.02-.17.13-.3.1.08.06.19-.13.3Z"/><path class="cls-4" d="m90.6,63.32c7.02-.19,14.01-.23,21.01-.2,2.56,0,3.94,1.43,3.94,4.04.02,13.01,0,26.01.02,39.02,0,2.31-.94,4.14-2.49,5.73-1.14,1.17-2.33,2.31-3.73,3.51-.45-.09-.71-.18-.85-.37-3.91-5.32-7.15-11.02-9.67-17.14-.21-.5-.55-.95-.76-1.54,2.05-2.73,1.37-4.61-1.91-5.66-.88-3.19-1.75-6.24-2.45-9.31.98-.03,1.8,0,2.61-.05,1.8-.13,2.94-1.36,2.89-3.06-.05-1.54-1.25-2.6-3.04-2.65-1.88-.05-3.76-.07-5.64-.11.01-4.02.03-8.03.06-12.23Z"/><path class="cls-5" d="m97.99,96.5c.28.47.62.92.83,1.42,2.52,6.11,5.76,11.81,9.67,17.14.14.19.4.27.73.42.13.02.14.16.14.23-2.05,2.08-4.15,4.05-6.15,6.12-1.89,1.96-4.08,3.01-6.85,2.87-1.81-.09-3.63-.01-5.61,0-.19-4.04-.22-8.1-.08-12.35,1.86-.21,3.55-.21,5.25-.23,2.05-.02,3.3-1.09,3.28-2.78-.02-1.76-1.22-2.87-3.22-2.92-1.82-.04-3.64-.04-5.46-.22,0-3.21.01-6.24.19-9.28,2.54-.14,4.91-.27,7.27-.4Z"/><path class="cls-12" d="m90.53,106.36c1.82.01,3.64,0,5.46.05,2,.05,3.2,1.16,3.22,2.92.02,1.69-1.22,2.76-3.28,2.78-1.69.02-3.39.02-5.26.06-1.94.02-3.72,0-5.83,0-2.05-.02-3.75-.08-5.45,0-.64.03-1.43.22-1.85.64-2.92,2.87-5.77,5.82-8.64,8.74-1.66,2.04-3.84,2.46-6.35,2.32-2.93-.16-5.87-.05-8.98-.22-.17-1.97-.18-3.77-.18-5.58,3.52-.12,7.05-.24,10.72-.45,3.29-3.15,6.49-6.16,9.54-9.3,1.32-1.36,2.69-2.08,4.63-1.95,2.06.14,4.14.02,6.56.02,2.13,0,3.92-.02,5.7-.03Z"/><path class="cls-12" d="m90.36,75.58c2.06,0,3.94.02,5.82.07,1.79.05,2.98,1.1,3.04,2.65.06,1.7-1.09,2.93-2.89,3.06-.81.06-1.63.02-2.78.03-1.23,0-2.12.02-3.19.01-1.96,0-3.74.01-5.52.03-2.46-.02-4.92.09-7.36-.12-1.09-.09-2.36-.58-3.14-1.31-3.13-2.93-6.05-6.08-9.16-9.02-.73-.69-1.92-1.18-2.92-1.24-2.83-.16-5.67-.05-8.67-.21-.18-1.96-.18-3.75-.19-5.55,3.72-.01,7.44-.13,11.15.03,1.13.05,2.47.61,3.3,1.38,2.96,2.74,5.81,5.61,8.57,8.55,1.18,1.25,2.38,1.91,4.11,1.72,1.31-.14,2.64-.05,4.14-.1,1.96-.01,3.74.01,5.7,0Z"/><path class="cls-10" d="m165.43,96.38c-10.07.15-20.15.15-30.39.12-.18-1.64-.2-3.25-.19-5.04,10.09-.19,20.15-.21,30.4-.22.18,1.66.18,3.32.18,5.14Z"/><path class="cls-11" d="m103.23,144.04c.1,0,.11.13.12.19-.06.06-.12.06-.28.06-.1,0-.11-.1-.12-.15.06-.07.12-.09.28-.11Z"/><path class="cls-1" d="m53.31,117.96c.07,1.9.07,3.71.07,5.66-1.39,2.52-3.15,4.32-6.02,4.85-3.21.6-6.83-1.15-8.28-4.2-1.47-3.09-.68-7.04,1.82-9.14,4.21-3.51,8.83-2.49,12.4,2.83Z"/><path class="cls-12" d="m98.07,96.38c-2.44.24-4.81.38-7.53.5-2.14,0-3.93.02-5.72.03-6.93-.02-13.86-.04-20.95-.21-.17-2.03-.18-3.89-.19-5.76,6.93-.01,13.86-.03,21.14-.04,2.14,0,3.94-.02,5.9-.02,1.93,0,3.7,0,5.46-.01,3.26.91,3.95,2.79,1.9,5.52Z"/><path class="cls-1" d="m53.28,63.9c.1,1.88.11,3.68.1,5.64-1.72,3.1-3.93,5.18-7.64,5.04-3.6-.14-6.76-2.88-7.4-6.6-.57-3.34,1.65-7.08,4.93-8.27,4.02-1.47,7.65.04,10.01,4.2Z"/><path class="cls-1" d="m63.62,90.81c.07,1.99.08,3.86.08,5.88-3.13,6.49-10.58,5.97-13.58,1.52-2.24-3.32-1.5-7.88,1.61-10.38,3.03-2.43,7.46-2.12,10.25.76.6.62,1.06,1.39,1.64,2.22Z"/><path class="cls-9" d="m90.72,90.87c-.18-3.04-.18-6.08-.19-9.28.89-.18,1.78-.19,2.85-.19,1.04,3.07,1.9,6.12,2.79,9.31-1.75.15-3.51.16-5.44.16Z"/></g></svg>