<?xml version="1.0" encoding="UTF-8"?><svg id="Capa_2" xmlns="http://www.w3.org/2000/svg" viewBox="0 0 217.45 173.63"><defs><style>.cls-1{fill:#fab991;}.cls-2{fill:#fff;}.cls-3{fill:#f0f2fd;}.cls-4{fill:#ffaa75;}.cls-5{fill:#66c4da;}.cls-6{fill:#9db1c6;}.cls-7{fill:#d9d9d9;}.cls-8{fill:#c5cddf;}.cls-9{fill:#c8d0e2;}.cls-10{fill:#150c0a;}.cls-11{fill:#140c0a;}.cls-12{fill:#161d28;}.cls-13{fill:#151c28;}</style></defs><g id="Layer_3"><path class="cls-4" d="m169.84,71.04c.47.45.97.87,1.39,1.36,2.41,2.74,1.99,5.04-1.17,6.87-4.74,2.75-9.51,5.44-14.14,8.35-1.1.69-2,2.01-2.52,3.24-2.09,4.98-4.07,10.01-5.96,15.07-2,5.34-6.24,8.28-10.95,10.84-.92.5-1.73,1.45-2.24,2.39-1.79,3.29-3.43,6.67-5.13,10.01-1.82,3.58-4.42,6.38-8.04,8.18-3.03,1.51-5.5,3.7-7.4,6.5-2.71,3.99-6.52,5.81-11.24,6.36-13.2,1.52-26.39,3.22-39.59,4.78-5.65.67-9.73,4.14-13.8,7.56-4.18,3.52-8.15,7.29-12.37,11.09-9.77-12.92-19.54-25.83-29.37-38.83,5.72-5.35,11.37-10.5,16.88-15.81,3.84-3.7,7.48-7.6,11.38-11.64.85-1.49,1.58-2.72,2.19-4.02,1.76-3.78,3.19-7.74,5.28-11.31,1.36-2.32,3.49-4.29,5.6-6.04,3.51-2.91,7.27-5.51,11.09-8.25,1.49-1.01,2.81-2.01,4.27-3.04.87-.58,1.59-1.13,2.46-1.74,1.7-1.09,3.24-2.17,4.83-3.14,2.3-1.41,4.65-2.6,7.52-2,1.26.26,2.57.33,3.86.35,7.96.14,15.76-1.14,23.51-2.8,2.63-.56,4.35.06,4.94,2.13.4,1.41.64,3.02.39,4.44-.99,5.63-4.15,9.63-9.62,11.47-4.62,1.55-9.34,2.84-14.17,4.25-1.09.25-2.02.5-3.11.76-2.61,0-3.9,1.66-5.02,3.47-.42.68-.9,1.93-.6,2.3.48.57,1.63.94,2.43.83,3.49-.46,6.95-1.12,10.59-1.69,1.07-.15,1.97-.32,3.05-.47,5.57-.84,10.97-1.68,16.37-2.56,3.9-.64,8.18-.51,11.61-2.15,12.01-5.74,23.72-12.09,35.73-18.2,3.93-.82,7.62-1.04,11.08,1.09Zm-49.12,36.32c-2.88,1.15-5.77,2.29-8.65,3.44,5.66,1.61,39.72-16.55,40.3-21.36-10.27,6.76-19.58,14.52-31.65,17.92Zm7.02,13.12c-4.36,1.69-8.72,3.38-13.08,5.08.09.2.17.4.26.6,2.23.4,17.53-5.71,18.09-7.66-1.84.68-3.41,1.26-5.27,1.99Zm-61.38-26.79c1.17,3.47,7.73,4.85,10.6,1.9-.74-.08-1.24-.19-1.75-.17-1.22.04-2.45.15-3.67.2-1.74.07-3.38-.04-3.9-2.2-.03-.11-.83-.02-1.28.27Z"/><path class="cls-1" d="m59.55,77.75c-3.65,2.73-7.41,5.33-10.92,8.24-2.1,1.75-4.23,3.72-5.6,6.04-2.1,3.57-3.53,7.53-5.28,11.31-.6,1.3-1.33,2.53-2.13,3.89-11.13,1.71-22.14,3.32-33.41,4.97-.74-12.12-1.47-23.99-2.21-36.13,3.04-.46,6.01-.8,8.94-1.38,4.37-.86,8.7-1.89,13.05-2.87,4.53-1.02,7.82-3.74,10.5-7.45,4.19-5.79,8.5-11.49,12.81-17.19,2.32-3.07,5.26-5.24,9.1-6.21,5.64-1.43,11.2-3.14,16.83-4.57,3.05-.77,6.06-.22,8.71,1.5,2.06,1.34,3.98,1.63,6.21.37,1.56-.87,3.37-1.28,4.97-2.1,5.41-2.77,11.12-3.8,17.15-3.25,1.51.14,3.03.09,4.66.29-4.02,2.99-8.16,5.82-12.36,8.7.72.72,1.38,1.37,2.05,2.22.04,1.49.06,2.78,0,4.21-1.48,1.96-2.88,3.78-4.43,5.65-4.36,2.77-9.1,2.11-13.92,2.13-3.1-.6-5.52.18-7.92,2.02-3.46,2.66-7.16,5.01-10.84,7.37-2,1.28-2.84,3.08-3.1,5.29,0-.01.02-.01-.1-.02-.19.15-.26.3-.37.6-.44,1.22-.82,2.28-1.3,3.48-.42,1.04-.75,1.96-1.08,2.87Z"/><path class="cls-13" d="m102.59,43.95c-.65-.65-1.31-1.3-2.03-2.03,4.2-2.87,8.34-5.7,12.57-8.66,6.56-4.42,13.05-8.7,19.5-13.04,8.91-5.98,17.79-12.02,26.69-18.01,3.98-2.68,8.01-3.01,12.33-.56,13.8,7.85,27.65,15.58,41.49,23.37,5.46,3.07,5.83,10.14.68,13.92-9.19,6.75-18.41,13.45-27.61,20.18-5.36,3.91-10.72,7.82-16.22,11.82-3.59-2.05-7.28-1.82-11.2-1.15,17.33-12.88,34.84-25.59,52.33-38.32,2.15-1.56,1.98-2.74-.5-4.14-13.97-7.92-27.96-15.8-41.92-23.75-2.49-1.42-4.68-1.27-7.03.33-19.67,13.37-39.38,26.7-59.07,40.04Z"/><path class="cls-7" d="m102.6,44.15c19.68-13.53,39.38-26.86,59.05-40.23,2.35-1.6,4.54-1.75,7.03-.33,13.95,7.95,27.94,15.83,41.92,23.75,2.48,1.4,2.65,2.58.5,4.14-17.49,12.74-35,25.44-52.51,38.31-11.84,6.27-23.55,12.63-35.56,18.37-3.43,1.64-7.71,1.51-11.61,2.15-5.39.88-10.79,1.72-16.45,2.44-2.54-1.78-4.82-3.43-7.1-5.08,4.67-1.41,9.39-2.69,14.01-4.25,5.47-1.84,8.64-5.84,9.62-11.47.25-1.42.01-3.03-.39-4.44-.59-2.07-2.31-2.69-4.94-2.13-7.75,1.66-15.55,2.93-23.51,2.8-1.29-.02-2.6-.09-3.86-.35-2.87-.59-5.22.6-7.52,2-1.6.98-3.13,2.05-4.98,3.11-1.22-.72-2.14-1.46-2.99-2.32,7.1-4.9,14.12-9.69,21.13-14.47,4.63-.03,9.37.63,13.83-2.02,2.89,1.74,6.89,1.47,8.95-.74.69-.74,1.35-2.11,1.12-2.95-.23-.85-1.48-1.65-2.46-2.02-.95-.36-2.12-.15-3.19-.19-.02-1.3-.04-2.59-.08-4.08Zm26.63,11.97c7.73,4.88,15.46,9.76,23.54,14.86,2.72-2.05,5.84-4.4,9.26-6.97-.98-.77-1.48-1.26-2.06-1.62-8.29-5.17-16.59-10.35-24.91-15.46-.75-.46-2.01-1-2.56-.69-3.01,1.7-5.87,3.67-9.27,5.85,2.33,1.58,4.03,2.73,6.01,4.02Zm11.39-12.29c8.86,5.48,17.71,10.96,26.73,16.53,1.05-.77,2.5-1.83,3.95-2.88,1.46-1.07,1.48-1.93.06-3.02-.46-.35-.94-.66-1.44-.96-7.33-4.41-14.77-8.64-21.95-13.29-2.94-1.9-5.18-2.08-7.86.16-1.92,1.61-2.02,1.85.51,3.45Zm6.9-10.41c5.5,3.29,10.99,6.59,16.49,9.88,3.8,2.27,4.48,2.19,7.98-.67,1.22-1,1.29-1.79-.13-2.63-6.44-3.81-12.88-7.63-19.31-11.46-1.32-.79-2.55-.83-3.82.08-1.57,1.12-3.17,2.19-4.67,3.23,1.14.5,2.17.95,3.46,1.58Zm26.29-7.21c-3.17-1.84-6.31-3.73-9.54-5.48-.82-.45-2.12-.9-2.8-.56-2.05,1.01-3.9,2.42-5.85,3.68,1.27.51,2.24.77,3.08,1.26,4.67,2.7,9.36,5.37,13.94,8.2,4.02,2.48,4.34,1.84,7.99-.79,1.27-.91,1.06-1.72-.21-2.44-2.12-1.21-4.23-2.45-6.61-3.85Zm-48.35,34.99c-3.47-2.2-6.88-4.49-10.44-6.54-.91-.52-2.47-.74-3.35-.31-2.02.99-3.79,2.46-5.63,3.71,1.27.58,2.4.96,3.38,1.57,4.09,2.57,8.15,5.17,12.18,7.83,1.39.92,2.67.93,4,.03.78-.52,1.55-1.05,2.31-1.6,1.88-1.38,1.85-1.95-.17-3.27-.66-.43-1.34-.85-2.28-1.43Zm17.52-32.49c.5-.28,1.19-.45,1.46-.87.61-.96,1.58-2.21,1.35-3.05-.24-.89-1.72-2.01-2.65-2.01-1.93.01-3.96.45-5.73,1.23-.85.37-1.78,2.03-1.6,2.87.19.89,1.56,1.9,2.59,2.15,1.33.31,2.82-.09,4.57-.31Zm9.41-13.91c-3.43.64-5.51,2.37-5.07,4.23.48,2,3.74,2.9,6.78,1.87,2.38-.81,3.96-2.4,3.48-3.79-.79-2.28-2.8-2.4-5.19-2.31Zm51.35,17.85c-.9.05-1.8.09-2.7.14.06.47.05,1.31.19,1.34,1.12.22,2.52.82,2.51-1.48Zm-4.49-2.58c-.88.27-1.75.53-2.63.8.07.37.14.73.22,1.1.86-.07,1.74-.05,2.56-.27.17-.05.11-.98-.15-1.63Zm-5.62-2.16c-.85.49-1.29,1.12-.21,1.73,1.25.71,2.12.12,2.91-1.39-.94-.16-1.65-.28-2.71-.34Z"/><path class="cls-11" d="m120.88,107.31c11.91-3.35,21.22-11.1,31.49-17.87-.58,4.81-34.64,22.98-40.3,21.36,2.88-1.15,5.77-2.29,8.81-3.5Z"/><path class="cls-3" d="m91.83,93.31c-3.47.59-6.93,1.25-10.42,1.71-.8.1-1.95-.26-2.43-.83-.3-.36.18-1.62.6-2.3,1.11-1.8,2.41-3.47,5.17-3.4,2.58,1.64,4.83,3.24,7.08,4.83Z"/><path class="cls-10" d="m127.89,120.41c1.72-.65,3.28-1.23,5.12-1.92-.56,1.96-15.86,8.07-18.09,7.66-.09-.2-.17-.4-.26-.6,4.36-1.69,8.72-3.38,13.23-5.15Z"/><path class="cls-10" d="m66.37,93.55c.45-.15,1.25-.23,1.27-.12.53,2.16,2.17,2.27,3.9,2.2,1.22-.05,2.45-.16,3.67-.2.5-.02,1.01.09,1.75.17-2.87,2.95-9.43,1.57-10.59-2.05Z"/><path class="cls-9" d="m92,93.33c-2.42-1.6-4.67-3.19-7.08-4.85.77-.31,1.7-.56,2.79-.81,2.45,1.64,4.73,3.29,7.09,5.06-.82.28-1.72.45-2.8.6Z"/><path class="cls-8" d="m63.22,70.73c.93.74,1.86,1.48,2.94,2.25-.58.58-1.31,1.13-2.38,1.7-1.25.03-2.16.04-3.07.06.39-1.07.78-2.14,1.33-3.38.24-.3.31-.43.38-.56,0,0-.03,0,.11.02.32-.01.51-.05.69-.09Z"/><path class="cls-3" d="m60.63,74.88c1-.15,1.91-.16,3.02-.16-1.12,1.02-2.44,2.02-3.93,3.03.16-.91.49-1.82.91-2.86Z"/><path class="cls-12" d="m63.31,70.61c-.26.16-.44.2-.76.22.12-2.23.96-4.03,2.96-5.31,3.68-2.36,7.38-4.71,10.84-7.37,2.39-1.84,4.82-2.62,7.92-2.02-6.83,4.79-13.85,9.57-20.95,14.47Z"/><path class="cls-6" d="m102.6,48.35c1.15-.09,2.32-.3,3.27.06.98.37,2.23,1.16,2.46,2.02.23.84-.43,2.21-1.12,2.95-2.06,2.21-6.05,2.48-8.8.7,1.31-1.95,2.71-3.78,4.19-5.73Z"/><path class="cls-12" d="m62.3,70.8c.06.14-.01.27-.2.42-.05-.12.01-.28.2-.42Z"/><path class="cls-2" d="m129.09,56.05c-1.84-1.22-3.55-2.38-5.87-3.96,3.4-2.19,6.26-4.15,9.27-5.85.56-.32,1.82.23,2.56.69,8.33,5.12,16.62,10.29,24.91,15.46.58.36,1.09.85,2.06,1.62-3.42,2.57-6.54,4.92-9.26,6.97-8.07-5.1-15.81-9.98-23.68-14.93Z"/><path class="cls-2" d="m140.48,43.75c-2.39-1.52-2.29-1.76-.37-3.37,2.68-2.25,4.92-2.07,7.86-.16,7.18,4.64,14.62,8.88,21.95,13.29.49.3.98.61,1.44.96,1.43,1.08,1.4,1.95-.06,3.02-1.45,1.06-2.9,2.12-3.95,2.88-9.01-5.58-17.87-11.05-26.87-16.61Z"/><path class="cls-5" d="m147.39,33.33c-1.16-.54-2.19-.99-3.33-1.49,1.5-1.04,3.1-2.11,4.67-3.23,1.27-.91,2.5-.86,3.82-.08,6.43,3.84,12.87,7.65,19.31,11.46,1.42.84,1.35,1.63.13,2.63-3.5,2.86-4.18,2.94-7.98.67-5.5-3.29-10.99-6.59-16.62-9.97Z"/><path class="cls-5" d="m173.95,26.3c2.25,1.32,4.35,2.55,6.48,3.77,1.27.73,1.48,1.53.21,2.44-3.65,2.63-3.97,3.28-7.99.79-4.59-2.83-9.27-5.51-13.94-8.2-.84-.48-1.81-.75-3.08-1.26,1.95-1.26,3.81-2.67,5.85-3.68.69-.34,1.98.12,2.8.56,3.22,1.75,6.36,3.64,9.67,5.57Z"/><path class="cls-5" d="m125.6,61.28c.81.5,1.48.92,2.14,1.36,2.02,1.32,2.06,1.89.17,3.27-.76.55-1.53,1.08-2.31,1.6-1.34.9-2.61.89-4-.03-4.03-2.66-8.09-5.27-12.18-7.83-.98-.62-2.11-.99-3.38-1.57,1.84-1.25,3.62-2.72,5.63-3.71.88-.43,2.44-.21,3.35.31,3.55,2.05,6.97,4.34,10.57,6.61Z"/><path class="cls-6" d="m142.82,28.78c-1.59.16-3.08.56-4.41.24-1.03-.24-2.4-1.25-2.59-2.15-.18-.84.75-2.5,1.6-2.87,1.77-.77,3.8-1.21,5.73-1.23.93,0,2.4,1.12,2.65,2.01.23.84-.74,2.09-1.35,3.05-.27.43-.96.59-1.62.94Z"/><path class="cls-6" d="m152.58,14.8c2.21-.08,4.21.04,5,2.32.48,1.38-1.1,2.98-3.48,3.79-3.04,1.03-6.3.13-6.78-1.87-.44-1.86,1.63-3.59,5.25-4.24Z"/><path class="cls-5" d="m203.83,32.8c-.08,2.15-1.47,1.56-2.59,1.34-.15-.03-.13-.87-.19-1.34.9-.05,1.8-.09,2.78,0Z"/><path class="cls-5" d="m199.4,30.14c.11.59.17,1.52,0,1.57-.82.22-1.7.2-2.56.27-.07-.37-.14-.73-.22-1.1.88-.27,1.75-.53,2.78-.73Z"/><path class="cls-5" d="m193.8,27.88c.88.09,1.6.21,2.54.37-.8,1.5-1.67,2.09-2.91,1.39-1.08-.61-.64-1.24.38-1.76Z"/></g></svg>