<?xml version="1.0" encoding="UTF-8"?><svg id="Capa_2" xmlns="http://www.w3.org/2000/svg" viewBox="0 0 411.13 299.04"><defs><style>.cls-1{fill:#fab991;}.cls-2{fill:#f9b991;}.cls-3{fill:#f0915a;}.cls-4{fill:#eb4f3c;}.cls-5{fill:#f04b37;}.cls-6{fill:#ef915b;}.cls-7{fill:#ef915a;}.cls-8{fill:#ed4e3a;}.cls-9{fill:#fff;}.cls-10{fill:#66c4da;}.cls-11{fill:#64adde;}.cls-12{fill:#d7e6f0;}.cls-13{fill:#463d4c;}.cls-14{fill:#473d4c;}.cls-15{fill:#493e4b;}.cls-16{fill:#50414c;}.cls-17{fill:#4e424e;}.cls-18{fill:#4e404c;}</style></defs><g id="Layer_10"><path class="cls-1" d="m85.11,223.07c-.71,3.79-1.42,7.59-2.28,11.59-.3.48-.46.75-.62,1.02-3.48,6.09-8.55,10.03-15.58,10.84-4.03.46-8.14.28-12.21.39-3.72-.69-6.31.9-8.83,3.61-5.56,5.96-11.49,11.57-17.18,17.41-.69.71-1.15,1.93-1.2,2.93-.15,3.08-.06,6.16-.06,9.05,1.87.45,3.6.6,5.08,1.28,3.16,1.44,4.78,5.28,3.92,8.63-.84,3.3-3.92,5.68-7.37,5.69-3.73,0-7.45.01-11.18,0-4.63-.01-8.65-4.08-8.65-8.72,0-7.09.08-14.17-.03-21.26-.05-3.02,1.07-5.38,3.11-7.43,3.83-3.85,7.68-7.7,11.52-11.55.44-.44.86-.91,1.51-1.59-5.28-2.06-9.02-5.88-12.79-9.68-.4-.41-1.26-.49-1.91-.5-3.4-.05-6.8-.02-10.35-.02v-54.68c22.02,0,44.09,0,66.35.18.22,4.2.24,8.22.26,12.43.11,2.35.24,4.52.35,6.85,1.16,3.67,1.91,7.41,3.61,10.64,3.19,6.01,8.02,10.48,14.54,12.9Z"/><path class="cls-6" d="m54.43,247.06c4.07-.26,8.17-.08,12.21-.54,7.03-.81,12.1-4.75,15.58-10.84.16-.27.32-.54.58-.89,4.11-.28,7.77.55,10.65,3.57,2.22,2.33,3.46,5.08,3.45,8.35-.01,6.2.01,12.4,0,18.61-.02,6.59-5.34,11.93-11.91,11.96-3.66.02-7.33.03-10.99,0-4.25-.03-7.44-3.36-7.42-7.68.02-4.19,3.24-7.45,7.41-7.5,1.5-.02,3,0,4.61,0v-9.11c-.66,0-1.33,0-1.99,0-5.31,0-10.61,0-15.92,0-3.52,0-5.92-2.24-6.25-5.92Z"/><path class="cls-13" d="m66.97,199.37c-.12-2.17-.25-4.33-.28-6.79.22-1.03.33-1.77.47-2.51,1.02-5.18,3.81-9.34,7.55-13.06.28-.37.46-.69.64-1,.55-.25,1.14-.42,1.63-.75,4.18-2.8,8.75-4.32,13.81-4.29,3.46.02,6.92.03,10.44.14-2.63,1.06-4.22,2.94-4.31,5.83-.09,3.07.01,6.15,0,9.41-.03,3.14-.01,6.11-.04,9.08-.03,3.18-1.03,6.05-2.83,8.67-1.97,2.88-4.84,4.52-8.08,5.89-3.67.74-7.09.63-10.44-.87-4.37-1.95-6.89-5.45-8.57-9.74Z"/><path class="cls-1" d="m86.13,209.96c3.08-1.36,5.95-3,7.92-5.88,1.79-2.62,2.8-5.49,2.83-8.67.03-2.97.02-5.93.22-9.08,11.19-.18,22.18-.18,33.17-.19,2.56,0,5.11,0,7.76.13-2.32,1.33-1.62,3.56-1.7,5.72.15,3.43.03,6.62-2.42,9.3-7.62.03-15.06.01-22.5.08-.73,0-1.76.31-2.07.83-.27.44.3,1.39.32,2.13-5.62.13-9.68,3.99-9.71,9.1-1.35.09-2.7.18-4.31.23-3.53-.8-6.76-1.63-9.5-3.7Z"/><path class="cls-10" d="m75.34,175.86c-.17.46-.34.78-.81,1.14-2.3.04-4.31.04-6.32.04-2.09-2.11-4.16-4.24-6.26-6.34-17.01-17.05-34.03-34.1-51.05-51.14-.49-.49-1.05-.95-1.42-1.52-.88-1.39-.81-2.8.4-3.96,1.14-1.1,2.49-1.15,3.82-.31.52.33.95.83,1.39,1.28,19.61,19.64,39.22,39.28,58.82,58.93.53.53.94,1.16,1.42,1.89Z"/><path class="cls-7" d="m130.26,185.97c-10.98.18-21.97.18-33.13.19-.19-3.07-.3-6.15-.2-9.23.09-2.89,1.68-4.77,4.49-5.81,6.99-.1,13.86-.22,20.73-.11,4.13.06,7.97,4.17,8.09,8.34.06,2.15.02,4.3.03,6.62Zm-10.56-7.55c-.51.74-1.62,1.79-1.43,2.17.52.99,1.46,2.07,2.48,2.41,1.44.48,2.68-.42,3.23-1.89.55-1.49.04-2.7-1.22-3.61-1.24-.9-2.09-.21-3.06.93Zm-16.74,1.8c.18.53.2,1.29.57,1.53.89.58,1.97,1.3,2.9,1.21.84-.08,1.94-1.03,2.26-1.85.23-.59-.58-1.64-1.02-2.43-.2-.37-.63-.6-.91-.95-.77-.97-1.73-.86-2.45-.15-.62.61-.92,1.54-1.37,2.63Z"/><path class="cls-3" d="m100.12,213.46c-.14-5.13,3.91-8.99,9.71-9.1,12.08.02,23.81.04,35.55.06.07,5.07-3.79,9.06-8.82,9.07-12.09.01-24.18,0-36.44-.03Z"/><path class="cls-10" d="m85.98,209.98c2.9,2.05,6.13,2.88,9.5,3.7-5.4.73-8.7,3.94-10.34,9.25-6.54-2.27-11.38-6.74-14.56-12.75-1.71-3.23-2.45-6.96-3.61-10.64,1.69,4.13,4.22,7.62,8.58,9.57,3.35,1.5,6.77,1.62,10.44.87Z"/><path class="cls-12" d="m145.39,204.24c-11.75.15-23.48.13-35.39.09-.37-.74-.93-1.69-.66-2.13.31-.52,1.35-.82,2.07-.83,7.44-.06,14.88-.05,22.67-.05,4,0,7.65-.01,11.3-.02,0,.92.01,1.85,0,2.94Z"/><path class="cls-4" d="m150.83,223.26c-1.43-1.43-2.78-2.76-4.1-4.11-1.61-1.65-1.76-3.49-.41-4.81,1.3-1.27,3.09-1.14,4.66.39,1.8,1.76,3.58,3.54,5.34,5.35,1.52,1.56,1.62,3.38.34,4.67-1.29,1.29-3.09,1.16-4.67-.34-.36-.35-.71-.71-1.16-1.16Z"/><path class="cls-13" d="m136.34,191.82c.06-1.98-.64-4.21,1.86-5.51,1.22-.12,2.34-.15,3.46-.15,2.79,0,3.73.94,3.74,3.67,0,.56-.02,1.13-.13,1.95-.82,2.22-2.21,3.38-4.29,3.45-2.38.08-3.74-1.39-4.65-3.41Z"/><path class="cls-7" d="m136.33,191.99c.92,1.84,2.28,3.32,4.66,3.24,2.08-.07,3.47-1.23,4.27-3.28.1,2.94.12,5.97.12,9.17-3.66.18-7.31.19-11.13.17,2.1-2.68,2.22-5.87,2.07-9.3Z"/><path class="cls-8" d="m151.58,202.23c-.12-2.8.88-3.9,3.43-3.92,1.7-.02,3.4-.02,5.1,0,2.21.03,3.51,1.19,3.49,3.08-.03,1.82-1.3,2.96-3.39,2.99-1.76.03-3.53-.03-5.29.02-1.56.04-2.67-.57-3.34-2.16Z"/><path class="cls-8" d="m136.31,225.64c0,1.19.05,2.2-.02,3.2-.12,1.74-1.43,2.92-3.11,2.87-1.59-.05-2.85-1.19-2.91-2.87-.08-2.14-.08-4.28,0-6.42.06-1.67,1.31-2.81,2.91-2.86,1.68-.05,2.98,1.12,3.11,2.87.07,1,.02,2.01.02,3.2Z"/><path class="cls-10" d="m35.3,157c-.06-.88-.03-1.65.01-2.43.78.14,1.82,0,2.29.45,3.9,3.76,7.69,7.62,11.52,11.45.75.75,1.18,1.58.33,2.46-.94.97-1.8.47-2.59-.33-3.82-3.84-7.64-7.67-11.57-11.61Z"/><path class="cls-11" d="m68.14,177.16c2.08-.11,4.09-.11,6.29-.11-3.45,3.68-6.24,7.84-7.26,13.02-.14.74-.26,1.48-.47,2.32-.1-3.92-.12-7.94-.17-12.14.5-1.11,1.01-2.05,1.61-3.1Z"/><path class="cls-10" d="m49.18,140.53c-.71-.73-1.5-1.27-1.89-2.02-.28-.53-.27-1.59.08-1.95.35-.36,1.58-.46,1.93-.14,2.18,2,4.28,4.1,6.27,6.29.32.35.19,1.72-.14,1.91-.54.31-1.65.34-2.1-.03-1.45-1.19-2.72-2.62-4.15-4.06Z"/><path class="cls-16" d="m119.8,178.32c.88-1.04,1.72-1.72,2.96-.83,1.26.91,1.78,2.13,1.22,3.61-.55,1.47-1.79,2.37-3.23,1.89-1.01-.34-1.96-1.42-2.48-2.41-.19-.37.91-1.42,1.53-2.27Z"/><path class="cls-16" d="m102.96,180.08c.44-.94.75-1.87,1.37-2.48.72-.71,1.67-.82,2.45.15.27.34.71.58.91.95.43.8,1.25,1.84,1.02,2.43-.32.82-1.42,1.77-2.26,1.85-.93.09-2.02-.64-2.9-1.21-.37-.24-.39-1-.57-1.68Z"/><path class="cls-1" d="m242.59,106.68v56.45c2.01,0,3.88-.05,5.74,0,4.3.13,6.92,2.68,6.79,6.55-.11,3.29-2.68,5.95-5.98,5.97-7.43.04-14.85,0-22.43-.19-.02-.31.09-.47.24-.59,2.9-2.3,3.76-4.69,2.73-7.63-.99-2.82-3.14-4.13-6.79-4.13-1.73,0-3.46,0-5.35,0,0-1.23.02-2.13,0-3.03-.11-4.68.18-9.42-.43-14.04-1.79-13.42-9.35-22.55-21.73-27.71-4.3-1.79-8.89-2.71-13.52-2.21-6.03.65-9.56,4.44-11.22,10.13.05-6.78,1.14-13.41,2.85-19.94,3.87-14.81,10.82-27.99,21.16-39.3,4-4.38,8.29-8.49,12.36-12.81.63-.67,1.07-1.78,1.1-2.7.12-3.85.05-7.7.21-11.73,11.57,3.73,21.75-3.55,21.76-15.65,0-5.61,0-11.23,0-16.84,0-3.97,1.28-5.8,5-7.22,3.44-.02,6.88-.05,10.49.13.17,3.13.15,6.06.17,8.99.03,3.88,2.61,6.46,6.52,6.47,4.1.02,8.19,0,12.29,0,2.64,0,5.28,0,8.01.14-2.49,1.48-1.69,3.86-1.7,6.18-.04.91-.07,1.62-.07,2.34,0,6.15-3.99,10.16-10.11,10.16-5.93,0-11.87,0-17.8,0-4.37,0-8.08,2.56-9.19,6.74-.52,1.97-.4,4.12-.47,6.19-.07,1.92-.01,3.85-.01,5.86h21.87c.01,3.03.03,6.07-.16,9.27-4.2.17-8.2.17-12.31.17v43.93Zm-4.46-94.47c2.01.54,3.37.06,4.12-1.46.7-1.42.26-3.11-1.08-3.95-1.39-.87-2.74-.72-3.92.41-1.43,1.38-1.18,3.22.88,5Z"/><path class="cls-3" d="m170.6,126.46c1.68-5.87,5.21-9.66,11.24-10.31,4.64-.5,9.22.41,13.52,2.21,12.38,5.16,19.94,14.29,21.73,27.71.62,4.62.32,9.36.43,14.04.02.9,0,1.81,0,3.03,1.89,0,3.62,0,5.35,0,3.65,0,5.8,1.31,6.79,4.13,1.03,2.93.17,5.33-2.73,7.63-.15.12-.26.28-.42.54-11.51.16-22.99.21-34.46.24-6.33.02-12.65.02-18.98,0-13.14-.04-24.4-11.35-24.44-24.54,0-2.29-.02-4.57,0-6.86.03-3.25,2.53-6.03,5.56-6.23,3.45-.23,6.37,2,6.92,5.28,1.04,6.21,2.99,7.74,9.47,7.12,0-7.91,0-15.85.02-23.98Z"/><path class="cls-3" d="m242.77,106.68c-.18-14.52-.18-29.04-.18-43.92,4.11,0,8.11,0,12.29,0,.18,8.29.18,16.56.18,25.08.92,0,1.61,0,2.3,0,7.63,0,15.25-.01,22.88,0,6.93.01,12.42,5.47,12.45,12.37.01,3.2.02,6.4,0,9.6-.03,3.54-2.68,6.22-6.13,6.26-3.55.03-6.3-2.65-6.39-6.24-.02-.97,0-1.94,0-3.17-12.5,0-24.85,0-37.4,0Z"/><path class="cls-14" d="m234.88.08c-3.54,1.43-4.81,3.26-4.82,7.23,0,5.61,0,11.23,0,16.84-.02,12.1-10.19,19.38-21.76,15.47-5.55-2.8-9.08-7.05-9.49-13.26-.5-7.51,2.14-13.97,7.51-19.23C211.14,2.4,216.99.02,223.75,0c3.65,0,7.3.04,11.13.07Z"/><path class="cls-6" d="m255.08,53.13c-7.19.18-14.36.18-21.89.18,0-2.01-.05-3.94.01-5.86.07-2.07-.05-4.22.47-6.19,1.11-4.18,4.82-6.73,9.19-6.74,5.93,0,11.87,0,17.8,0,6.12,0,10.1-4.01,10.11-10.16,0-.72.02-1.44.16-2.24,2.54,4.2,6.51,4.1,9.15-.3,1.2,10.97-4.5,17.62-10.6,20.29-2.37,1.04-5.07,1.43-7.67,1.77-2.1.28-4.27.06-6.71.06,0,3.08,0,6.05-.02,9.2Z"/><path class="cls-6" d="m264.52,15.5c-4.09.18-8.19.2-12.28.18-3.9-.02-6.49-2.59-6.52-6.47-.02-2.93,0-5.86.01-8.97,3.45-.2,6.89-.28,10.33-.21,4.22.08,8.32,4.23,8.43,8.46.06,2.28.02,4.55.03,7.01Zm-6.47-5.04c.43-2.89-1.54-4.89-3.95-4-1.36.5-2.11,1.52-2.09,2.98.02,1.47.79,2.5,2.17,2.92,1.65.5,2.92-.11,3.88-1.91Z"/><path class="cls-10" d="m296.94,75.75c8.16,5.92,12.57,13.76,12.93,23.76.03.77-.4,1.85-.99,2.27-1.01.73-2.03-.31-2.11-2.05-.26-5.34-1.74-10.28-4.88-14.63-5.13-7.12-12.15-10.83-20.88-11.33-1.16-.07-2.4-.08-2.37-1.63.03-1.53,1.24-1.58,2.42-1.55,5.76.13,10.98,1.91,15.88,5.16Z"/><path class="cls-10" d="m283.56,83.52c-1.13-.14-2.1-.3-3.07-.36-1.14-.07-2.09-.54-1.8-1.72.15-.6,1.23-1.39,1.89-1.38,6.38.06,11.56,2.74,15.54,7.67,2.78,3.44,4.23,7.43,4.39,11.88.04,1.14-.1,2.22-1.47,2.3-1.37.08-1.61-.93-1.7-2.1-.68-8.41-5.37-14-13.78-16.29Z"/><path class="cls-14" d="m280.1,21.64c-2.66,4.57-6.63,4.66-9.14.28-.11-2.24-.91-4.62,1.77-6.07,1.39-.12,2.69-.17,3.98-.15,2.35.02,3.42,1.1,3.45,3.45.01.78-.03,1.56-.06,2.5Z"/><path class="cls-14" d="m237.99,12.16c-1.92-1.71-2.17-3.56-.74-4.93,1.17-1.13,2.53-1.28,3.92-.41,1.34.84,1.77,2.53,1.08,3.95-.74,1.52-2.1,2-4.26,1.39Z"/><path class="cls-14" d="m257.98,10.6c-.89,1.66-2.16,2.27-3.81,1.77-1.38-.42-2.15-1.46-2.17-2.92-.02-1.46.73-2.48,2.09-2.98,2.41-.89,4.38,1.11,3.89,4.14Z"/><g id="Layer_6"><path class="cls-1" d="m387.52,194.08c2.84,0,5.69,0,8.63.15-2.68,1.6-1.82,4.16-1.83,6.67-.05.98-.07,1.75-.07,2.52,0,6.63-4.3,10.95-10.9,10.95-6.39,0-12.79,0-19.18,0-4.7,0-8.71,2.76-9.9,7.26-.56,2.12-.43,4.44-.51,6.67-.07,2.07-.02,4.15-.02,6.32h23.56c.3,9.58.3,19.13-3.24,28.27-.68,1.76-1.43,3.48-2.28,5.45-2.19,3.52-4.25,6.81-6.41,10.27,9.71,0,19.25,0,28.79,0,2.73,0,5.05.95,6.99,2.87.65.64,1.33,1.23,2,1.85,1.55,3.89,1.96,7.71-.63,11.39-1.92,2.73-4.59,4.15-7.85,4.15-25.02.05-50.03.18-75.05-.08-7.08-.07-13.18-3.48-18.36-8.33-1.59-1.49-3.11-3.05-4.79-4.63-.13-.05-.12-.02-.14-.12-.1-.24-.21-.31-.48-.42-2.16-4.44-5.44-6.78-10.38-6.7-5.48.09-10.97.02-16.46.02,9.75-2.4,14.6-10.62,13.77-18.64-.93-8.99-8.23-15.16-17.49-15.17-9.91,0-19.82-.03-29.74.04-1.51.01-3.06.34-4.51.8-4.77,1.53-7.22,5.27-8.85,9.71.38-2.13.75-4.26,1.25-6.65.28-.66.43-1.05.57-1.44,3.71-10.37,10.78-17.35,21.14-20.94,2.22-.77,4.56-1.17,6.84-1.74,4.92-.02,9.84-.06,14.76-.06,16.24,0,32.48-.04,48.72.02,4.21.02,7.44-1.59,10.1-5.1,12.63,5.72,25.57-3.59,24.84-16.85-.32-5.82-.06-11.68-.05-17.52,0-4.28,1.38-6.26,5.39-7.79,3.71-.03,7.41-.05,11.31.14.19,3.37.16,6.53.18,9.69.03,4.19,2.81,6.96,7.02,6.98,4.41.02,8.83,0,13.24,0Zm-24.32-4.75c1.11-2.36.59-4.25-1.41-5.11-1.78-.77-3.81.11-4.46,1.97-.53,1.5-.14,2.83,1.1,3.77,1.58,1.2,3.14.98,4.77-.62Z"/><path class="cls-3" d="m222.19,255.56c1.65-4.65,4.11-8.38,8.88-9.91,1.44-.46,3-.79,4.51-.8,9.91-.07,19.82-.04,29.74-.04,9.26,0,16.57,6.17,17.49,15.17.83,8.02-4.02,16.25-13.77,18.64,5.49,0,10.97.07,16.46-.02,4.94-.08,8.22,2.26,10.38,6.83.25.28.37.34.5.4,0,0,0-.02-.02-.02,1.05,8.72-4.28,13.44-13.25,13.23-19.03-.44-38.07-.13-57.11-.14-5.29,0-9.15-2.88-10.42-7.75-1.16-4.47.94-8.88,5.33-11.57.63-.39,1.14-1.5,1.16-2.29.1-7.18.08-14.35.12-21.73Z"/><path class="cls-5" d="m357.13,129.85h26.97v-20.19h27.03v1.98c0,10.35,0,20.71,0,31.06,0,8.47-5.7,14.18-14.14,14.18-13.15,0-26.3,0-39.65-.23-.22-5.72-.24-11.21-.24-16.9.02-3.43.03-6.67.03-9.91Z"/><path class="cls-14" d="m355.57,177.27c-3.81,1.54-5.19,3.51-5.19,7.8,0,5.84-.27,11.7.05,17.52.73,13.26-12.21,22.58-24.71,16.79-5.17-3.27-8.68-7.6-9.04-13.78-.48-8.1,2.32-15.06,8.1-20.73,5.2-5.1,11.5-7.67,18.79-7.68,3.93,0,7.87.04,11.99.08Z"/><path class="cls-6" d="m377.34,234.43c-7.75.19-15.47.19-23.59.19,0-2.17-.06-4.24.02-6.32.08-2.23-.05-4.55.51-6.67,1.19-4.5,5.2-7.26,9.9-7.26,6.39,0,12.79,0,19.18,0,6.59,0,10.89-4.32,10.9-10.95,0-.77.02-1.55.17-2.41,2.74,4.52,7.02,4.42,9.86-.33,1.29,11.82-4.87,19-11.43,21.86-2.55,1.11-5.47,1.54-8.27,1.91-2.27.3-4.6.06-7.23.06,0,3.32,0,6.52-.02,9.92Z"/><path class="cls-6" d="m251.83,224.56c-2.09.59-4.43.99-6.65,1.76-10.37,3.59-17.44,10.57-21.14,20.94-.14.39-.29.78-.56,1.28-9.71-5.22-14.8-13.26-14.86-24.35-.01-2.18-.02-4.36,0-6.55.04-3.59,2.83-6.53,6.27-6.65,3.79-.14,6.87,2.5,7.22,6.17.49,5.23,2.8,7.35,8.03,7.35,7.17,0,14.33.02,21.69.05Z"/><path class="cls-3" d="m357.08,139.96c.02,5.5.04,10.99.06,16.68-4.37.22-8.74.24-13.32.08-.2-4.48-.17-8.77-.21-13.06-.02-2.39-1.26-3.63-3.64-3.65-3.3-.03-6.6.02-9.9.03-7.1-.01-14.2-.02-21.29-.04-3.52,0-5.66-1.95-5.65-5.1,0-3.14,2.14-5.03,5.7-5.04,7.24-.02,14.48-.03,21.98.07,3.39,4.72,8.31,2.88,12.5,3.41,1.83,5.56,3.37,6.66,9.16,6.66,1.54,0,3.08-.02,4.61-.03Z"/><path class="cls-10" d="m276.67,153.37c-2.55-5.27-4.02-10.64-3.93-16.38.04-2.34,1.28-3.74,3.33-3.76,2.06-.03,3.33,1.32,3.43,3.67.68,15.09,10.18,26.46,24.75,29.52,1.77.37,3.61.47,5.43.61,2.29.17,3.64,1.47,3.57,3.54-.07,1.95-1.45,3.28-3.64,3.22-14.85-.41-25.7-7.35-32.93-20.42Z"/><path class="cls-6" d="m403.27,283.23c-.78-.5-1.47-1.1-2.11-1.74-1.94-1.92-4.26-2.88-6.99-2.87-9.54,0-19.08,0-28.79,0,2.16-3.46,4.22-6.75,6.41-10.12,7.37-.06,14.62.23,21.85-.1,7.31-.33,13.28,7.26,9.63,14.83Z"/><path class="cls-2" d="m357.1,139.76c-1.56.21-3.09.23-4.63.23-5.79,0-7.32-1.1-9.16-6.66-4.19-.54-9.11,1.31-12.31-3.44-.33-1.26-.8-2.39-.83-3.53-.05-2.01,1.25-3.25,3.29-3.27,5.46-.04,10.92-.11,16.38.02,4.61.11,6.88,2.35,7.3,6.57,0,3.41,0,6.65-.03,10.08Z"/><path class="cls-6" d="m387.51,193.89c-4.41.2-8.82.22-13.24.2-4.21-.02-6.99-2.79-7.02-6.98-.02-3.16,0-6.32.01-9.67,3.72-.21,7.43-.3,11.14-.23,4.55.09,8.96,4.56,9.08,9.12.06,2.45.02,4.91.03,7.56Zm-11.88-3.66c2.38.87,4.26.17,4.94-1.85.58-1.72-.33-3.63-2.08-4.23-1.57-.54-2.95-.11-3.86,1.24-1.15,1.7-.8,3.3,1,4.83Z"/><path class="cls-2" d="m330.09,140.22c3.28-.21,6.58-.25,9.88-.22,2.39.02,3.62,1.26,3.64,3.65.04,4.29.01,8.58.01,13.07-.37,2.64-1.34,3.53-3.7,3.55-2.04.02-4.08.02-6.12,0-2.52-.03-3.67-1.21-3.68-3.8-.02-5.35-.01-10.71-.04-16.25Z"/><path class="cls-10" d="m299.12,149.52c3.08,2.56,6.56,3.69,10.35,3.97,2.55.19,3.85,1.4,3.78,3.53-.07,2.1-1.5,3.25-4.05,3.25-12.13,0-22.89-10.73-22.95-22.86-.01-2.7,1.14-4.15,3.32-4.18,2.12-.03,3.26,1.25,3.45,3.86.36,4.9,2.2,9.09,6.09,12.43Z"/><path class="cls-15" d="m404.31,200.5c-2.87,4.92-7.15,5.02-9.85.3-.12-2.42-.98-4.98,1.9-6.55,1.5-.13,2.9-.18,4.29-.17,2.53.02,3.69,1.18,3.72,3.72.01.84-.03,1.68-.07,2.7Z"/><path class="cls-17" d="m363.1,189.46c-1.53,1.47-3.09,1.69-4.66.5-1.24-.94-1.63-2.27-1.1-3.77.65-1.86,2.68-2.73,4.46-1.97,1.99.86,2.51,2.75,1.3,5.24Z"/><path class="cls-9" d="m296.35,285.72c-.1.04-.22-.02-.36-.21.14-.1.26-.03.36.21Z"/><path class="cls-18" d="m375.5,190.13c-1.67-1.44-2.01-3.04-.86-4.74.91-1.35,2.29-1.78,3.86-1.24,1.75.6,2.66,2.51,2.08,4.23-.68,2.02-2.56,2.72-5.08,1.76Z"/></g></g></svg>