<?xml version="1.0" encoding="UTF-8"?><svg id="Capa_2" xmlns="http://www.w3.org/2000/svg" viewBox="0 0 191.45 212.86"><defs><style>.cls-1{fill:#f7a01b;}.cls-2{fill:#faa01a;}.cls-3{fill:#fcfcfc;}.cls-4{fill:#ef6525;}.cls-5{fill:#66c4da;}.cls-6{fill:#90e6f4;}.cls-7{fill:#a5c3dc;}.cls-8{fill:#a6c3dc;}.cls-9{fill:#d7e6ef;}.cls-10{fill:#d7e6f0;}.cls-11{fill:#463c4b;}.cls-12{fill:#565b6f;}.cls-13{fill:#565d6e;}.cls-14{fill:#555a6e;}.cls-15{fill:#585b6c;}.cls-16{fill:#60c43b;}</style></defs><g id="Layer_7"><path class="cls-14" d="m172.44,212.78c-.66.03-1.32.07-1.99.07-37.91,0-75.82,0-113.73,0-7.81,0-14.01-6.18-14.01-13.95,0-9.38,0-18.77.19-28.38,1.54-.25,2.88-.27,4.43-.27,3.33.04,6.44.06,9.55.28-.01,6.93-.02,13.65,0,20.37.01,4.84,2.88,7.75,7.69,7.75,32.67.01,65.34.01,98.01,0,4.71,0,7.62-2.9,7.62-7.59.01-49.35.01-98.7,0-148.04,0-4.56-2.94-7.5-7.45-7.54-4.57-.03-9.14,0-13.74-.21,0-4.8,0-9.39.03-13.99,7.67,0,15.34,0,23.33.15,6.92,1.15,12.01,7.22,12.01,14.16,0,54.28.01,108.56-.04,162.85,0,1.86-.48,3.79-1.11,5.55-1.81,5.04-5.83,7.51-10.77,8.78Z"/><path class="cls-5" d="m148.99,21.11c.01,4.77,0,9.36-.03,14.34-.76,4.91-3.29,7.12-7.83,7.12-18.37,0-36.73,0-55.1,0-4.72,0-7.3-2.31-7.95-7.3,0-4.8,0-9.4-.03-13.99.55-4.74,3.16-7.08,7.92-7.09,4.41,0,8.82,0,13.19,0C100.65,4.78,106.12-.27,114.35.01c7.2.25,12.68,5.92,13.46,14.18,4.51,0,9.05-.01,13.6,0,4.33.02,6.95,2.38,7.59,6.92Zm-28.38-6.74c-.15-.87-.19-1.77-.47-2.59-.97-2.78-3.71-4.68-6.61-4.68-2.82,0-5.53,1.84-6.56,4.46-1.1,2.8-.39,5.9,1.87,7.87,4.89,4.26,11.43.57,11.77-5.06Z"/><path class="cls-6" d="m47.13,170.23c-1.34.02-2.68.05-4.23.09-19.29-.6-32.88-9.74-39.91-27.39-9.86-24.76,5.66-52.13,31.91-57.23,1.93-.38,3.94-.35,5.91-.58.76-.09,1.49-.37,2.49-.7,1.44.09,2.64.32,3.92.72.88.28,1.68.36,2.46.51,14.85,2.98,25.71,11.12,31.9,25.07,5.48,12.34,4.93,24.7-1.18,36.59-5.26,10.22-13.52,17.31-24.58,20.82-2.83.9-5.79,1.41-8.69,2.09Zm6.42-76.26c-5.28-1.7-10.63-2.07-16.14-1.34-16.2,2.15-29.54,17-30.12,33.4-.81,22.96,19.13,39.69,40.22,36.83,16.56-2.25,30.13-16.85,30.59-33.64.44-16.15-8.85-29.65-24.55-35.26Z"/><path class="cls-11" d="m172.64,212.81c4.73-1.3,8.76-3.77,10.57-8.81.63-1.76,1.11-3.7,1.11-5.55.06-54.28.05-108.56.04-162.85,0-6.95-5.08-13.02-11.8-14.13,2.6,0,5.38-.25,8.01.29,6.42,1.32,10.86,6.96,10.86,13.55.02,54.52.03,109.04,0,163.56,0,7.72-6.23,13.87-13.94,13.98-1.55.02-3.1,0-4.85-.04Z"/><path class="cls-14" d="m77.85,21.28c.22,4.59.24,9.19.03,13.99-4.63.21-9.04.18-13.44.21-4.66.03-7.53,2.92-7.56,7.59-.03,5.15-.03,10.29-.2,15.4-1.68-.47-3.21-.9-4.78-1.36-.04-.02-.13.03-.22-.07-.25-.12-.41-.15-.76-.22-2.86.55-5.53,1.14-8.2,1.72,0-7.97-.03-15.95,0-23.92.01-6.9,6.4-13.32,13.27-13.34,7.22-.02,14.44,0,21.87,0Z"/><path class="cls-1" d="m42.61,58.65c2.78-.68,5.45-1.27,8.4-1.73.44.16.6.19.76.22,0,0,.09-.05.21.12,2.06,2.91,1.81,4.46-1.08,6.58-6.44.06-9.85,4.98-7.26,10.43,1.42,2.45,3.45,3.62,6.15,3.79,2.23.14,3.61,1.65,3.54,3.65-.07,2.01-1.56,3.37-3.79,3.41-.8.01-1.6-.1-2.4-.15-1.19-.23-2.38-.47-3.74-.72-.66-.55-1.08-1.16-1.64-1.6-8.55-6.64-8.21-17.75.86-24.01Z"/><path class="cls-10" d="m56.84,58.51c.01-5.15.01-10.29.04-15.44.03-4.67,2.9-7.56,7.56-7.59,4.4-.03,8.81,0,13.41,0,.88,4.78,3.46,7.09,8.18,7.09,18.37,0,36.73,0,55.1,0,4.54,0,7.07-2.21,7.86-6.92,4.61-.17,9.18-.2,13.75-.17,4.51.03,7.45,2.98,7.45,7.54.01,49.35.01,98.7,0,148.04,0,4.69-2.91,7.59-7.62,7.59-32.67.01-65.34.01-98.01,0-4.81,0-7.67-2.91-7.69-7.75-.02-6.72,0-13.45.21-20.39,2.43-.38,4.65-.53,6.87-.5.42,2.93,1.43,3.82,4.25,3.82,20.79,0,41.58,0,62.37,0,.44,0,.89.03,1.32-.04,2.44-.45,3.67-3.18,2.4-5.33-.91-1.55-2.39-1.74-4.02-1.73-17.69.02-35.39.02-53.08,0-.86,0-1.71-.2-2.43-.37,9.55-4.56,16.29-11.71,21.12-20.96,11.8.04,23.38.06,34.96.05,2.45,0,3.91-1.38,3.92-3.53,0-2.22-1.5-3.54-4.13-3.55-10.84-.02-21.69-.02-32.54-.2,1.79-7.14,1.56-14.1.21-21.07,11.02-.01,21.84,0,32.65-.03,2.31,0,3.74-1.35,3.8-3.41.07-2.08-1.34-3.65-3.55-3.65-11.85-.01-23.69.04-35.64-.05-4.61-9.5-11.55-16.46-20.8-21.05.95-.14,1.76-.2,2.56-.2,17.76,0,35.53,0,53.29,0,2.64,0,4.13-1.31,4.14-3.53,0-2.22-1.49-3.55-4.12-3.55-20.86,0-41.72,0-62.58,0-2.82,0-3.91,1.09-4.32,4-2.36-.19-4.53-.39-6.82-.61,0-.66,0-1.3.15-1.98,3.39-2.01,5.53-4.87,6.38-8.53,1.61-6.87-1.02-12.07-6.64-15.97Zm106.35,24.53c.91-.95,1.92-1.83,2.71-2.87,1.18-1.55,1.06-3.2-.29-4.58-1.36-1.38-2.98-1.47-4.58-.37-.66.45-1.22,1.04-2.11,1.42-1.18-.57-2.31-1.29-3.55-1.67-4.34-1.33-7.96.04-10.87,3.34-2.9,3.29-3.51,7.11-1.69,11.07,1.74,3.79,4.81,6.05,9.06,6.39,6.41.51,12.23-5.52,11.32-12.74Zm-4.27,78.74c-1.18-.57-2.31-1.29-3.55-1.67-4.34-1.33-7.96.04-10.87,3.34-2.9,3.29-3.51,7.11-1.69,11.07,1.74,3.79,4.81,6.05,9.06,6.39,6.41.51,12.23-5.52,11.32-12.74.91-.95,1.92-1.83,2.71-2.87,1.18-1.55,1.06-3.2-.29-4.58-1.36-1.38-2.98-1.47-4.58-.37-.66.45-1.22,1.04-2.11,1.42Zm0-56.76c-1.18-.57-2.31-1.29-3.55-1.67-4.34-1.33-7.96.04-10.87,3.34-2.9,3.29-3.51,7.11-1.69,11.07,1.74,3.79,4.81,6.05,9.06,6.39,6.41.51,12.23-5.52,11.32-12.74.91-.95,1.92-1.83,2.71-2.87,1.18-1.55,1.06-3.2-.29-4.58-1.36-1.38-2.98-1.47-4.58-.37-.66.45-1.22,1.04-2.11,1.42Zm4.27,34.78c.91-.95,1.92-1.83,2.71-2.87,1.18-1.55,1.06-3.2-.29-4.58-1.36-1.38-2.98-1.47-4.58-.37-.66.45-1.22,1.04-2.11,1.42-1.18-.57-2.31-1.29-3.55-1.67-4.34-1.33-7.96.04-10.87,3.34-2.9,3.29-3.51,7.11-1.69,11.07,1.74,3.79,4.81,6.05,9.06,6.39,6.41.51,12.23-5.52,11.32-12.74Zm-25.53-83.04c-23.07,0-46.15,0-69.22,0-2.99,0-4.54,1.27-4.48,3.64.05,2.28,1.55,3.46,4.44,3.46,30.08,0,60.15,0,90.23,0,2.99,0,4.54-1.27,4.48-3.64-.05-2.28-1.55-3.45-4.44-3.46-6.86,0-13.71,0-21.01,0Z"/><path class="cls-5" d="m63.96,169.83c-2.22.15-4.44.3-6.86.47-3.32,0-6.44-.01-9.76-.05,2.69-.71,5.65-1.22,8.49-2.12,11.06-3.51,19.32-10.6,24.58-20.82,6.12-11.89,6.66-24.25,1.18-36.59-6.19-13.95-17.06-22.1-31.9-25.07-.78-.16-1.57-.24-2.46-.51.71-.11,1.51,0,2.31,0,2.23-.04,3.72-1.4,3.79-3.41.07-2.01-1.31-3.52-3.54-3.65-2.7-.16-4.72-1.34-6.01-3.87,1.18-1.06,2.17-2.17,3.4-2.7,3.58-1.53,6.38.06,8.83,2.81.33,3.03.64,5.89.95,8.75v1.94c2.29.21,4.46.42,6.97.68,3.8,1.15,7.26,2.24,10.72,3.32,9.4,4.48,16.33,11.45,20.98,21.11.93,2.51,1.71,4.75,2.5,6.98,1.56,6.96,1.78,13.93-.06,21.22-.83,2.57-1.6,4.81-2.37,7.05-4.61,9.27-11.36,16.42-21.06,21.01-3.75,1.22-7.21,2.34-10.67,3.46Z"/><path class="cls-3" d="m120.61,14.55c-.33,5.44-6.87,9.14-11.76,4.88-2.27-1.98-2.97-5.08-1.87-7.87,1.03-2.62,3.74-4.46,6.56-4.46,2.9,0,5.64,1.9,6.61,4.68.28.82.32,1.73.47,2.78Z"/><path class="cls-9" d="m53.72,94.01c15.53,5.56,24.83,19.07,24.38,35.22-.46,16.78-14.03,31.39-30.59,33.64-21.09,2.86-41.03-13.87-40.22-36.83.58-16.4,13.91-31.25,30.12-33.4,5.51-.73,10.87-.36,16.32,1.38Zm-14.77,27.65c-2.61,1.9-3.85,4.41-3.14,7.63.74,3.37,3.86,5.67,7.26,5.51,3.65-.18,6.19-2.82,7.2-7.09h20.65c.76-13.58-10.65-26.46-24.64-28.41-.62-2.54-2.02-3.75-4.02-3.49-1.95.26-3.08,1.74-3.08,4.17-.01,7.16.01,14.32-.22,21.67Z"/><path class="cls-4" d="m57.09,83.01c-.46-2.82-.76-5.68-.98-8.83,1.78-5.06.18-8.19-5.03-10.35,2.7-2.11,2.95-3.65.94-6.54,1.45.28,2.98.71,4.66,1.18,5.78,3.94,8.41,9.14,6.79,16.01-.86,3.66-2.99,6.52-6.38,8.53Z"/><path class="cls-4" d="m51.69,57.05c-.08.06-.24.03-.48-.09.08-.06.24-.03.48.09Z"/><path class="cls-15" d="m50.9,63.84c5.4,2.14,7,5.28,5.19,10.16-2.55-2.45-5.35-4.04-8.93-2.51-1.23.53-2.21,1.64-3.44,2.56-2.67-5.23.73-10.15,7.17-10.21Z"/><path class="cls-7" d="m137.88,56.76c7.08,0,13.93,0,20.79,0,2.89,0,4.39,1.18,4.44,3.46.05,2.37-1.5,3.64-4.48,3.64-30.08,0-60.15,0-90.23,0-2.89,0-4.39-1.18-4.44-3.46-.05-2.37,1.5-3.63,4.48-3.64,23.07,0,46.15,0,69.44,0Z"/><path class="cls-7" d="m63.96,170.01c3.46-1.29,6.91-2.41,10.52-3.56,1.01.08,1.87.28,2.72.28,17.69.02,35.39.02,53.08,0,1.63,0,3.1.18,4.02,1.73,1.27,2.15.05,4.87-2.4,5.33-.43.08-.88.04-1.32.04-20.79,0-41.58,0-62.37,0-2.82,0-3.83-.89-4.25-3.82Z"/><path class="cls-7" d="m74.79,88.9c-3.6-.98-7.06-2.07-10.67-3.23.06-2.98,1.15-4.07,3.97-4.07,20.86,0,41.72,0,62.58,0,2.62,0,4.12,1.33,4.12,3.55,0,2.22-1.5,3.53-4.14,3.53-17.76,0-35.53,0-53.29,0-.81,0-1.61.07-2.56.2Z"/><path class="cls-7" d="m95.9,145.39c.56-2.26,1.33-4.5,2.16-6.9,10.9-.15,21.74-.15,32.59-.13,2.63,0,4.13,1.32,4.13,3.55,0,2.16-1.47,3.53-3.92,3.53-11.58,0-23.16-.01-34.96-.05Z"/><path class="cls-7" d="m98.32,117.09c-.99-2.23-1.78-4.47-2.6-6.87,11.81-.19,23.66-.24,35.5-.23,2.21,0,3.62,1.57,3.55,3.65-.07,2.06-1.49,3.4-3.8,3.41-10.82.03-21.64.02-32.65.03Z"/><path class="cls-8" d="m163.06,140.06c1.04,6.95-4.78,12.98-11.19,12.47-4.25-.34-7.32-2.6-9.06-6.39-1.82-3.96-1.21-7.78,1.69-11.07,2.91-3.3,6.53-4.67,10.87-3.34,1.24.38,2.37,1.1,3.63,1.87-2.06,2.39-4.2,4.58-6.35,6.78-.51-.41-.73-.59-.95-.78-1.96-1.6-3.85-1.65-5.29-.14-1.48,1.55-1.29,3.56.53,5.45.77.79,1.55,1.57,2.34,2.34,2.4,2.37,4.02,2.38,6.4.06,2.47-2.41,4.93-4.83,7.39-7.25Z"/><path class="cls-8" d="m163.06,111.68c1.04,6.95-4.78,12.98-11.19,12.47-4.25-.34-7.32-2.6-9.06-6.39-1.82-3.96-1.21-7.78,1.69-11.07,2.91-3.3,6.53-4.67,10.87-3.34,1.24.38,2.37,1.1,3.63,1.87-2.06,2.39-4.2,4.58-6.35,6.78-.51-.41-.73-.59-.95-.78-1.96-1.6-3.85-1.65-5.29-.14-1.48,1.55-1.29,3.56.53,5.45.77.79,1.55,1.57,2.34,2.34,2.4,2.37,4.02,2.38,6.4.06,2.47-2.41,4.93-4.83,7.39-7.25Z"/><path class="cls-8" d="m163.06,168.44c1.04,6.95-4.78,12.98-11.19,12.47-4.25-.34-7.32-2.6-9.06-6.39-1.82-3.96-1.21-7.78,1.69-11.07,2.91-3.3,6.53-4.67,10.87-3.34,1.24.38,2.37,1.1,3.63,1.87-2.06,2.39-4.2,4.58-6.35,6.78-.51-.41-.73-.59-.95-.78-1.96-1.6-3.85-1.65-5.29-.14-1.48,1.55-1.29,3.56.53,5.45.77.79,1.55,1.57,2.34,2.34,2.4,2.37,4.02,2.38,6.4.06,2.47-2.41,4.93-4.83,7.39-7.25Z"/><path class="cls-8" d="m163.06,83.3c1.04,6.95-4.78,12.98-11.19,12.47-4.25-.34-7.32-2.6-9.06-6.39-1.82-3.96-1.21-7.78,1.69-11.07,2.91-3.3,6.53-4.67,10.87-3.34,1.24.38,2.37,1.1,3.63,1.87-2.06,2.39-4.2,4.58-6.35,6.78-.51-.41-.73-.59-.95-.78-1.96-1.6-3.85-1.65-5.29-.14-1.48,1.55-1.29,3.56.53,5.45.77.79,1.55,1.57,2.34,2.34,2.4,2.37,4.02,2.38,6.4.06,2.47-2.41,4.93-4.83,7.39-7.25Z"/><path class="cls-16" d="m163.12,111.55c-2.53,2.55-4.99,4.97-7.46,7.38-2.38,2.32-3.99,2.31-6.4-.06-.79-.77-1.57-1.55-2.34-2.34-1.82-1.89-2.01-3.9-.53-5.45,1.43-1.5,3.33-1.45,5.29.14.22.18.45.36.95.78,2.15-2.2,4.29-4.39,6.49-6.71.67-.66,1.23-1.24,1.89-1.7,1.6-1.1,3.22-1.01,4.58.37,1.36,1.38,1.47,3.03.29,4.58-.79,1.04-1.8,1.92-2.78,3Z"/><path class="cls-16" d="m163.12,83.17c-2.53,2.55-4.99,4.97-7.46,7.38-2.38,2.32-3.99,2.31-6.4-.06-.79-.77-1.57-1.55-2.34-2.34-1.82-1.89-2.01-3.9-.53-5.45,1.43-1.5,3.33-1.45,5.29.14.22.18.45.36.95.78,2.15-2.2,4.29-4.39,6.49-6.71.67-.66,1.23-1.24,1.89-1.7,1.6-1.1,3.22-1.01,4.58.37,1.36,1.38,1.47,3.03.29,4.58-.79,1.04-1.8,1.92-2.78,3Z"/><path class="cls-16" d="m163.12,139.93c-2.53,2.55-4.99,4.97-7.46,7.38-2.38,2.32-3.99,2.31-6.4-.06-.79-.77-1.57-1.55-2.34-2.34-1.82-1.89-2.01-3.9-.53-5.45,1.43-1.5,3.33-1.45,5.29.14.22.18.44.36.95.78,2.15-2.2,4.29-4.39,6.49-6.71.67-.66,1.23-1.24,1.89-1.7,1.6-1.1,3.22-1.01,4.58.37,1.36,1.38,1.47,3.03.29,4.58-.79,1.04-1.8,1.92-2.78,3Z"/><path class="cls-16" d="m163.12,168.31c-2.53,2.55-4.99,4.97-7.46,7.38-2.38,2.32-3.99,2.31-6.4-.06-.79-.77-1.57-1.55-2.34-2.34-1.82-1.89-2.01-3.9-.53-5.45,1.43-1.5,3.33-1.45,5.29.14.22.18.44.36.95.78,2.15-2.2,4.29-4.39,6.49-6.71.67-.66,1.23-1.24,1.89-1.7,1.6-1.1,3.22-1.01,4.58.37,1.36,1.38,1.47,3.03.29,4.58-.79,1.04-1.8,1.92-2.78,3Z"/><path class="cls-2" d="m46.33,99.62c13.94,1.64,25.34,14.52,24.59,28.1-6.87,0-13.76,0-20.88-.17-.41-2.76-1.75-4.64-3.81-6.27.04-7.35.07-14.5.1-21.65Z"/><path class="cls-12" d="m46.3,99.46c0,7.31-.03,14.46-.23,21.75-2.42-.96-4.66-.79-6.88.26,0-7.16-.03-14.32-.02-21.49,0-2.43,1.14-3.91,3.08-4.17,2-.27,3.4.95,4.04,3.64Z"/><path class="cls-5" d="m39.08,121.56c2.34-1.15,4.58-1.31,6.99-.15,2.23,1.49,3.57,3.36,3.77,6.13-.57,4.43-3.11,7.08-6.76,7.26-3.39.16-6.52-2.14-7.26-5.51-.71-3.22.53-5.74,3.26-7.73Zm1.08,8.46c.36.25.71.52,1.09.74,1.65.95,3.05.34,4.11-.94,1.07-1.29,1.33-2.83.19-4.27-1.08-1.36-2.52-1.76-4.15-1.13-2.14.83-2.64,2.78-1.23,5.6Z"/><path class="cls-13" d="m40.12,129.96c-1.39-2.64-.95-4.6,1.17-5.49,1.62-.68,3.06-.32,4.18,1.01,1.19,1.41.97,2.96-.07,4.28-1.02,1.31-2.4,1.96-4.08,1.05-.39-.21-.74-.47-1.21-.85Z"/></g></svg>