<?xml version="1.0" encoding="UTF-8"?><svg id="Capa_2" xmlns="http://www.w3.org/2000/svg" viewBox="0 0 138.07 197.47"><defs><style>.cls-1{fill:#f8a01c;}.cls-2{fill:#fa9f19;}.cls-3{fill:#faa019;}.cls-4{fill:#f9a01a;}.cls-5{fill:#f9a01b;}.cls-6{fill:#f06423;}.cls-7{fill:#fff;}.cls-8{fill:#ffd006;}.cls-9{fill:#ffd105;}.cls-10{fill:#ffd205;}.cls-11{fill:#fed106;}.cls-12{fill:#d7e6f0;}.cls-13{fill:#463c4b;}.cls-14{fill:#555a6e;}</style></defs><g id="Win"><path class="cls-4" d="m41.43,111.96c-4.57-3.41-9.55-6.4-13.64-10.32-11.42-10.92-17.24-24.53-17.79-40.43,1.99,5.14,7.75,6.32,11.5,2.26.45-.48.96-.9,1.47-1.18.37,2.4.57,4.65,1.09,6.83,2.42,10.05,7.22,18.66,15.3,25.31,11.79,9.7,25.14,13.04,40,9.73,9.95-2.22,18.27-7.32,24.86-15.23,6.91-8.3,10.42-17.81,10.85-28.55.2-5.11-.6-10.1-2.13-14.93-2.59-8.19-7.08-15.27-13.56-20.91-7.87-6.84-17.18-10.42-27.48-11.58,1.06-1.29,2.41-2.28,3.06-3.62,1.84-3.75.09-7.32-4.29-9.27,11.62.17,22.3,3.56,31.71,10.26,18.06,12.86,27.04,30.62,25.62,52.77-1.38,21.72-12.33,37.89-31.5,48.73-5.04.14-9.83.06-14.61.16-6.74.14-12.15,3.06-15.89,8.61-1.62,2.4-2.53,5.27-3.75,7.92-.16-.59-.34-1.29-.52-1.99-2.24-8.46-10.38-15.07-20.3-14.59Z"/><path class="cls-10" d="m41.25,111.96c10.11-.49,18.25,6.13,20.49,14.58.18.7.37,1.4.52,1.99,1.23-2.65,2.14-5.52,3.75-7.92,3.74-5.55,9.15-8.47,15.89-8.61,4.78-.1,9.57-.02,14.56-.04,2.38,0,4.55.02,7.02.15,2.36.76,3.83,2.08,4.58,4.11,1.38,3.74-.25,6.91-4.49,8.86-3.11.04-6.22.08-9.72.1-4.08-.03-7.76-.05-11.45-.03-4.09.02-6.79,2.75-6.79,6.81,0,8.68,0,17.37-.2,26.08-3.89.05-7.59.08-11.48.08-5-.05-9.81-.08-14.62-.11,0-8.5,0-16.99,0-25.49,0-4.71-2.67-7.37-7.38-7.38-6.09-.01-12.17,0-18.26,0-4.29,0-7.27-2.77-7.23-6.67.04-3.82,2.98-6.49,7.18-6.5,5.81-.02,11.63-.01,17.63-.02Z"/><path class="cls-14" d="m49.12,158.05c5,0,9.81.02,14.91.18,3.47,1.3,5,3.43,5,6.79.01,7.95.05,15.9-.03,23.85-.02,1.7.45,2.21,2.17,2.2,12.45-.07,24.91-.05,37.36-.05,3.87.28,6.25,2.61,6.47,6.46H23.1c.05-3.63,2.24-5.88,6.48-6.57,0-3.39,0-6.81,0-10.23,0-5.28,0-10.57,0-15.85,0-4.12,2.64-6.72,6.81-6.73,4.18,0,8.36,0,12.72-.04Zm-12.96,17.54c0,1.78-.04,3.56.01,5.34.07,2.19,1.28,3.48,3.45,3.49,6.43.05,12.85.04,19.28,0,2.29-.01,3.52-1.29,3.55-3.6.04-4.18.04-8.35,0-12.53-.02-2.31-1.27-3.58-3.55-3.6-6.36-.04-12.71-.04-19.07,0-2.41.01-3.61,1.26-3.65,3.71-.04,2.26,0,4.52,0,7.19Z"/><path class="cls-13" d="m108.51,190.82c-12.44.2-24.89.17-37.34.24-1.72.01-2.19-.5-2.17-2.2.08-7.95.04-15.9.03-23.85,0-3.36-1.53-5.49-4.81-6.76,3.6-.12,7.3-.15,11.38-.18,4.64-.02,8.9-.04,13.16-.06,4.24.02,8.47.04,12.71.07,4.33.03,7,2.7,7.01,7.06.02,8.49,0,16.98.03,25.67Z"/><path class="cls-11" d="m22.94,62.12c-.48.45-.99.87-1.44,1.35-3.75,4.06-9.5,2.87-11.47-2.45-.31-24.28,10.4-42.19,31.19-54.07C50.16,1.84,59.97-.35,70.49.04c4.56,1.98,6.32,5.55,4.47,9.3-.66,1.34-2,2.33-3.25,3.63-6.98-.03-13.56.9-19.85,3.51-11.45,4.75-19.73,12.76-24.89,24.05-3.14,6.87-4.18,14.11-4.03,21.59Z"/><path class="cls-3" d="m88.77,157.83c-4.26.21-8.52.22-12.97.22-.19-8.71-.19-17.39-.18-26.08,0-4.06,2.71-6.79,6.79-6.81,3.69-.02,7.37,0,11.27.01-3.52,1.42-5.02,4.12-4.95,8.1.14,8.12.04,16.25.04,24.56Z"/><path class="cls-5" d="m103.76,125.11c4.05-1.98,5.68-5.14,4.3-8.88-.75-2.03-2.21-3.35-4.38-4.09,3.87-.12,7.84-.22,11.81-.13,3.4.07,6.13,3.03,6.16,6.47.03,3.55-2.69,6.56-6.19,6.65-3.83.09-7.67.02-11.69-.01Z"/><path class="cls-1" d="m9.87,148.22c0-2.12-.05-4.24,0-6.37.04-2.14,1.29-3.47,3.18-3.52,1.98-.05,3.33,1.33,3.37,3.55.04,1.98,0,3.97,0,6.14,0,.19.02.17-.18.18-2.27,0-4.34,0-6.41,0,0,0,.02.02.02.02Z"/><path class="cls-1" d="m121.66,148.22c0-2.12-.05-4.24,0-6.37.04-2.14,1.29-3.47,3.18-3.52,1.98-.05,3.33,1.33,3.37,3.55.04,1.98,0,3.97,0,6.14,0,.19.02.17-.18.18-2.27,0-4.34,0-6.41,0,0,0,.02.02.02.02Z"/><path class="cls-1" d="m9.87,154.78c-2.12,0-4.24.05-6.35,0-2.13-.04-3.47-1.3-3.52-3.19-.05-1.99,1.32-3.33,3.54-3.37,1.98-.04,3.96,0,6.14,0,.19,0,.18,0,.18.18,0,2.26-.01,4.34,0,6.41,0,0,.02-.02.02-.02Z"/><path class="cls-1" d="m16.42,148.22c2.11,0,4.23-.04,6.34,0,2.13.04,3.47,1.3,3.52,3.19.05,1.98-1.33,3.33-3.54,3.38-1.98.04-3.96,0-6.13,0-.19,0-.17.02-.18-.18,0-2.27,0-4.35,0-6.43,0,0-.02.02-.02.02Z"/><path class="cls-1" d="m121.66,154.78c-2.12,0-4.24.05-6.35,0-2.13-.04-3.47-1.3-3.52-3.19-.05-1.99,1.32-3.33,3.54-3.37,1.98-.04,3.96,0,6.14,0,.19,0,.18,0,.18.18,0,2.26-.01,4.34,0,6.41,0,0,.02-.02.02-.02Z"/><path class="cls-1" d="m128.21,148.22c2.11,0,4.23-.04,6.34,0,2.13.04,3.47,1.3,3.52,3.19.05,1.98-1.33,3.33-3.54,3.38-1.98.04-3.96,0-6.13,0-.19,0-.17.02-.18-.18,0-2.27,0-4.35,0-6.43,0,0-.02.02-.02.02Z"/><path class="cls-1" d="m16.42,154.79c0,2.11.04,4.24,0,6.36-.04,2.13-1.3,3.48-3.19,3.53-1.98.05-3.32-1.33-3.37-3.55-.04-1.98,0-3.97,0-6.15,0-.19,0-.18.18-.18,2.26,0,4.33.01,6.41.02,0,0-.02-.02-.02-.02Z"/><path class="cls-1" d="m128.21,154.79c0,2.11.04,4.24,0,6.36-.04,2.13-1.3,3.48-3.19,3.53-1.98.05-3.32-1.33-3.37-3.55-.04-1.98,0-3.97,0-6.15,0-.19,0-.18.18-.18,2.26,0,4.33.01,6.41.02,0,0-.02-.02-.02-.02Z"/><path class="cls-6" d="m22.97,62.29c-.18-7.65.86-14.89,4-21.76,5.17-11.29,13.45-19.3,24.89-24.05,6.29-2.61,12.87-3.54,19.82-3.37,10.51,1.01,19.83,4.59,27.7,11.43,6.49,5.64,10.97,12.72,13.56,20.91,1.53,4.83,2.33,9.82,2.13,14.93-.43,10.74-3.94,20.25-10.85,28.55-6.59,7.92-14.9,13.02-24.86,15.23-14.86,3.31-28.21-.02-40-9.73-8.08-6.65-12.88-15.26-15.3-25.31-.52-2.18-.72-4.43-1.09-6.83Zm22.29-15.37c-2.66-1.27-4.4-1.11-6.34.73-2.66,2.54-3.42,5.6-2.3,9.42.14.46.22.93.41,1.36,1.7,3.87,5.73,5.29,8.86,3.15,4.72-3.23,4.53-11.38-.64-14.66Zm43.97,10.15c.14.46.22.93.41,1.36,1.7,3.87,5.73,5.29,8.86,3.15,4.72-3.23,4.53-11.38-.64-14.66-2.66-1.27-4.4-1.11-6.34.73-2.66,2.54-3.42,5.6-2.3,9.42Zm-16.51-16.79c0,.34-.02.69.02,1.02.4,3.66,3.73,7.57,6.88,8.07,3.11.49,6.54-1.83,8.05-5.71,1.66-4.26,1.68-8.59-.58-12.62-.78-1.4-2.4-2.34-3.91-3.61-1.92-1.61-3.86-1.27-5.89-.16-3.71,2.04-6.02,8.93-4.58,13.02Zm-12.55-12.86c-1.92-1.61-3.86-1.27-5.89-.16-3.71,2.04-6.02,8.93-4.58,13.02,0,.34-.02.69.02,1.02.4,3.66,3.73,7.57,6.88,8.07,3.11.49,6.54-1.83,8.05-5.71,1.66-4.26,1.68-8.59-.58-12.62-.78-1.4-2.4-2.34-3.91-3.61Zm10.61,22.26c-6.39-1.42-14.54,3.17-16.88,9.78-1.03,2.91-2.44,5.33-4.58,7.59-3.02,3.19-4.1,7.15-2.86,11.85,2.15,8.44,11.14,12.48,18.94,8.45,2.45-1.26,4.8-1.3,7.22-.02,6.22,3.29,12.31,1.37,16.08-2.79,4.52-4.99,4.7-11.73.34-16.87-2.49-2.93-3.97-6.25-5.66-9.58-2.51-4.94-6.59-7.92-12.61-8.42Z"/><path class="cls-12" d="m36.16,175.38c0-2.47-.03-4.73,0-6.99.04-2.44,1.24-3.69,3.65-3.71,6.36-.03,12.72-.04,19.07,0,2.29.01,3.53,1.28,3.55,3.6.04,4.18.04,8.35,0,12.53-.02,2.32-1.26,3.59-3.55,3.6-6.43.04-12.85.04-19.28,0-2.17-.02-3.38-1.3-3.45-3.49-.05-1.78-.01-3.56-.01-5.55Z"/><path class="cls-7" d="m16.44,154.62c-2.07.19-4.14.18-6.41.19-.19-2.07-.18-4.15-.19-6.42,2.07-.19,4.14-.18,6.41-.19.19,2.07.18,4.15.19,6.42Z"/><path class="cls-7" d="m128.23,154.62c-2.07.19-4.14.18-6.41.19-.19-2.07-.18-4.15-.19-6.42,2.07-.19,4.14-.18,6.41-.19.19,2.07.18,4.15.19,6.42Z"/><path class="cls-3" d="m71.09,49.81c5.71.37,9.78,3.35,12.29,8.29,1.69,3.33,3.17,6.65,5.66,9.58,4.36,5.13,4.18,11.88-.34,16.87-3.77,4.17-9.86,6.08-16.08,2.79-2.42-1.28-4.78-1.24-7.22.02-7.79,4.03-16.79-.01-18.78-8.58,3.53,1.96,5.67.69,6.05-3.33.13-1.39.71-3.08,1.68-3.99,2.74-2.57,4.37-5.64,5.6-9.12,1.31-3.71,4.23-5.83,8.09-6.31,4.36-.53,5.46-2.62,3.05-6.22Z"/><path class="cls-9" d="m70.94,49.74c2.57,3.67,1.46,5.75-2.9,6.29-3.86.47-6.78,2.59-8.09,6.31-1.23,3.48-2.86,6.55-5.6,9.12-.97.91-1.55,2.6-1.68,3.99-.38,4.02-2.52,5.29-6.04,3.17-1.41-4.42-.33-8.38,2.69-11.57,2.14-2.26,3.55-4.68,4.58-7.59,2.34-6.62,10.49-11.2,17.03-9.72Z"/><path class="cls-2" d="m60.44,27.55c1.24,1.15,2.86,2.09,3.64,3.49,2.25,4.03,2.24,8.37.58,12.62-1.52,3.89-4.94,6.21-8.05,5.71-3.14-.5-6.48-4.41-6.88-8.07-.04-.34-.01-.68.12-1.14,1.37.95,2.71,1.42,4.27.63,1.49-.75,1.57-2.13,1.86-3.59.3-1.48.92-3.38,2.04-4.12,2.8-1.84,3.2-2.17,2.43-5.55Z"/><path class="cls-2" d="m83.45,27.55c1.24,1.15,2.86,2.09,3.64,3.49,2.25,4.03,2.24,8.37.58,12.62-1.52,3.89-4.94,6.21-8.05,5.71-3.14-.5-6.48-4.41-6.88-8.07-.04-.34-.01-.68.12-1.14,1.37.95,2.71,1.42,4.27.63,1.49-.75,1.57-2.13,1.86-3.59.3-1.48.92-3.38,2.04-4.12,2.8-1.84,3.2-2.17,2.43-5.55Z"/><path class="cls-8" d="m60.3,27.49c.91,3.44.5,3.77-2.29,5.61-1.12.73-1.74,2.64-2.04,4.12-.29,1.46-.37,2.83-1.86,3.59-1.56.79-2.9.32-4.26-.81-1.59-3.8.72-10.69,4.43-12.73,2.02-1.11,3.96-1.45,6.02.22Z"/><path class="cls-8" d="m83.32,27.49c.91,3.44.5,3.77-2.29,5.61-1.12.73-1.74,2.64-2.04,4.12-.29,1.46-.37,2.83-1.86,3.59-1.56.79-2.9.32-4.26-.81-1.59-3.8.72-10.69,4.43-12.73,2.02-1.11,3.96-1.45,6.02.22Z"/><path class="cls-2" d="m98.15,47.03c4.87,3.17,5.07,11.32.35,14.55-3.13,2.14-7.15.72-8.86-3.15-.19-.43-.28-.91-.26-1.49,3.71,1.5,5.12.77,5.99-3.07.09-.41.39-.97.73-1.11,2.83-1.17,2.83-3.3,2.05-5.74Z"/><path class="cls-2" d="m45.55,47.03c4.87,3.17,5.07,11.32.35,14.55-3.13,2.14-7.15.72-8.86-3.15-.19-.43-.28-.91-.26-1.49,3.71,1.5,5.12.77,5.99-3.07.09-.41.39-.97.73-1.11,2.83-1.17,2.83-3.3,2.05-5.74Z"/><path class="cls-8" d="m98.01,46.98c.93,2.49.92,4.62-1.9,5.79-.34.14-.64.7-.73,1.11-.87,3.84-2.28,4.57-5.98,2.92-1.29-3.55-.53-6.61,2.13-9.14,1.94-1.84,3.67-2,6.48-.68Z"/><path class="cls-8" d="m45.4,46.98c.93,2.49.92,4.62-1.9,5.79-.34.14-.64.7-.73,1.11-.87,3.84-2.28,4.57-5.98,2.92-1.29-3.55-.53-6.61,2.13-9.14,1.94-1.84,3.67-2,6.48-.68Z"/></g></svg>