<?xml version="1.0" encoding="UTF-8"?><svg xmlns="http://www.w3.org/2000/svg" viewBox="0 0 801.7 237.1"><defs><style>.f{fill:#f5ac7e;}.g{fill:#f5f3f4;}.h{fill:#66c4da;}.i{fill:#b71825;}.j{fill:#1f2428;}.k{fill:#1d1d1b;}.l{fill:#844c3b;}.m{fill:#512110;}</style></defs><g id="a"/><g id="b"><g id="c"><g id="d"><path d="M337.13,123.04c.07,6.32-1.2,45.11-43.89,45.64-30.27,.37-46.05-21.66-46.38-50.85-.11-9.74,2-47.4,46-47.89,43.51-.59,44.09,37.2,44.27,53.1Zm-31.27-5.1c-.08-7.46-1.38-26.1-13.49-25.95-12.73,.15-13.93,17.53-13.82,27.42,0,2.11,.46,26.44,14.27,26.27,12.27-.18,13.15-18.36,13.04-27.74Z"/><path d="M343.68,70.09l83.18,2.34-.73,28.38-21-.59-1.76,68.42-37.4-1-.63-65.89-22.48-.69,.75-29,.07-1.97Z"/><path d="M432.75,70.86l83.22,.24-.11,28.38-21-.05-.18,68.45-37.41-.11-2.09-65.83-22.51-.07,.08-29v-2.01Z"/><path d="M606.48,121.84c0,6.32-1.56,45.08-44.3,46.18-30.31,.79-45.92-21-46-50.18,0-9.72,2.33-47.37,46.47-48.51,43.5-1.12,43.78,36.61,43.83,52.51Zm-31.26-4.71c0-7.45-1.17-26.06-13.29-25.74-12.75,.33-14.07,17.7-14.07,27.55,0,2.11,.25,26.41,14.08,26.05,12.29-.29,13.31-18.46,13.28-27.86Z"/><path d="M683.06,119.43c3.41,.09,23.1,1.72,22.53,26-.62,26.92-30.78,28.6-46.92,28.19s-39-5.69-39-5.69c0,0,.29-73-.43-88.93,0,0,10.3-8.82,35.29-8.2,24.52,.62,44,6.14,43.49,26.41-.46,20-15.42,22.17-15.42,22.17l.46,.05Zm-32-6c.66,.13,1.33,.21,2,.22,4.66,.11,15.39-.75,15.63-11.13v-1c-.46-7-4.92-8.88-9.27-9-3.42,.03-6.8,.66-10,1.86l1.64,19.05Zm5.57,41.19c6.83,.18,17.43-1.5,17.69-12.86,.22-9.4-6.87-11.69-13.24-11.85-3.25,0-6.48,.35-9.65,1.06l-.53,23c1.88,.38,3.8,.6,5.72,.65h.01Z"/><path d="M801.7,98.57c0,19.3-5,43.31-27.65,51.08v22.06h-35.56v-22.07c-23-7.79-27.78-31.8-27.77-51.1,.09-7.95,.87-15.88,2.33-23.69h33.07c0,26.6-.32,27.9-.32,29.84,0,6,1.39,16.22,9.77,16.23h.94c8.38,0,9.94-10.22,9.94-16.22,0-2-.31-3.24-.3-29.85h33.06c.79,5.09,2.49,13.66,2.49,23.72Z"/></g><g id="e"><circle class="h" cx="118.37" cy="117" r="115.29"/><path class="g" d="M133.27,160.95l10.88-12.51h24.48l22.14,11.9-6.86,9.92s-11.52,5.3-24.93-1.78l-9.14,1.78s-14.31,2.89-16.57-9.31Z"/><path class="f" d="M149.88,151.91s-11.91,.53-14.33,12.39c0,0-12.22-12.66,1.79-25.48l12.54-19.44-7.38-6.14-12.73,6-7.56-1.92,4-9,22.78-13.7,8.73,9.26,2.69,5.39,16.42-2.2,16,4.38,6.42-12.44,15,5.11,16.37,11.59s-2.63,5.92-3.32,6.22-12.8,.15-12.8,.15l-7.53-4.72-2.48,5.65s12.13,11.47,13.72,47.68c0,0-12.38,71.2-121.49,60.53l27.91-29.75,25.25-31.19,8.93-3.23,15.52,6.08,12.93-6.12s-7.6-15.19-28-12.41l-9.38-2.69Z"/><path class="g" d="M152.03,141.88s14.08,.39,20-21.3c0,0,1,16,.13,26.79l-3.29-2.09-16.84-3.4Z"/><path class="g" d="M149.88,170.26l-50.49,58.47s12.84,3.27,36.9,2.65,31.32-8.47,36.8-17.91,17.92-23.5,11.5-31.94-17.88-9.37-17.88-9.37l-7.69-3.68-9.14,1.78Z"/><path class="i" d="M144.15,181.43l-10.92,13.11s71.59,13.47,85.92-17.17l-1.51-11s-14.18,23.35-73.49,15.06Z"/><path class="j" d="M3.77,137.01s24.11,94.47,97.08,94.22l-26.3-155.62-18.59,7.21s-15.7,6.38-19.65,3.71c0,0-8.74,31.12-32.54,50.48Z"/><path class="l" d="M55.96,36.59s10.58-8.93,32.64-1.53c0,0,13,2.18,36.3-7.56,0,0,14.28,2.61,10.86,28.07-3.42,25.46-35.62,21-46.53,14.12,0,0-1.69,15.57,23.22,20.38h13.18s1.5,14.66-21.6,13.25l-17.39-5.31s-15,.72-15.75-2.49,.23-7.63-1.59-9.44-6.44-2.41-6.44-2.41c0,0-5.8,1.21-6.21-6.42,0-.03,5.86-23.44-.69-40.66Z"/><path class="g" d="M84.62,33.86s3.95,16.75,32.47,4.54l-5-7.58s-15.55,10.11-27.47,3.04Z"/><path class="g" d="M72.24,95.81s5.65,18.86-4.26,19.6-28.39,52.17-15.63,87.89,66.19,27,66.19,27c0,0-16.11-74.7-18.66-127.86,0-.04-22.43-14.34-27.64-6.63Z"/><path class="m" d="M54.71,39.31s-10.35-4.63-22.29,19.55,7.73,27.15,7.73,27.15c0,0,14.66,2,16.49-8.83,.01,.04,11.01-32.99-1.93-37.87Z"/><path class="i" d="M33.03,100.43l-10.17,18.1s20.54,15.16,53.1,22h24.89l-1.51-22.84s-24.32,9.23-66.31-17.26Z"/><ellipse class="k" cx="142.56" cy="211.72" rx="8.17" ry="6.53" transform="translate(-102.97 281.44) rotate(-71.9)"/><ellipse class="k" cx="147.97" cy="196.95" rx="5.46" ry="6.09" transform="translate(-69.46 312.75) rotate(-81.12)"/><path class="k" d="M151.68,156.47c-2.34-2.66-9.77-11.53-2.14-14.23,7.06-2.49,19.26,0,21.3,1.62,2.44,2,3.13,7.8-9.91,14.45-3.14,1.57-6.95,.81-9.25-1.84Z"/><path class="k" d="M153.61,156.32c-1.05,5.38,.61,10.93,4.44,14.85,4,3.81,9.56,5.11,14.9,5.33,3.09,.18,6.17-.31,9.05-1.44,2.58-.98,4.88-2.56,6.73-4.61,2.32-2.81,3.75-6.25,4.11-9.88,.22-1.64-1.56-3.05-3.06-3.05-1.65,.06-2.96,1.4-3,3.05,0-.31-.09,.44-.11,.54-.06,.32-.14,.63-.22,1s-.16,.59-.26,.89c0,.12-.44,1.13-.23,.64-.22,.51-.48,1-.77,1.48-.13,.22-.29,.44-.43,.66-.26,.42,.21-.21-.22,.3-.35,.4-.71,.79-1.1,1.15-.18,.17-.36,.31-.54,.47-.37,.35,.36-.23-.2,.16-.78,.53-1.6,1.01-2.45,1.42-.55,.27,.15-.05,0,0l-.54,.21c-.38,.14-.76,.27-1.14,.38-.66,.19-1.33,.34-2,.46l-.37,.06c-.52,.1,.21-.06,.37,0-.18,0-.37,.02-.55,.06h-1c-1.54,.03-3.08-.05-4.61-.23-.37,0,0,0,0,0l-.46-.07-.89-.17c-.6-.12-1.19-.26-1.78-.43s-1.07-.36-1.6-.55c-.33-.12,.13,.06,.16,.08l-.32-.15c-.25-.12-.5-.23-.74-.36s-.77-.43-1.14-.67c-.18-.11-.34-.24-.52-.36-.39-.24,.38,.36-.18-.14-.29-.26-.58-.52-.85-.79s-.26-.27-.38-.41-.54-.64-.23-.25-.06-.09-.13-.19-.23-.34-.33-.51c-.2-.32-.38-.66-.54-1-.08-.15-.14-.3-.22-.44-.26-.52,.1,.3,.06,.14-.08-.35-.25-.69-.36-1-.17-.58-.31-1.17-.41-1.76,0-.15-.13-.74,0-.13s0,0,0-.18,0-.56-.06-.84c-.03-.5-.03-.99,0-1.49,0-.33,.07-.65,.08-1,0,.08-.16,1,0,.39,.4-1.62-.54-3.28-2.14-3.76-1.62-.43-3.29,.52-3.76,2.13h-.06Z"/><path class="k" d="M154.95,164.31c-.41,.5-.95,.87-1.4,1.33-.27,.27,.66-.44,.13-.11-.13,.08-.25,.18-.38,.27-.29,.19-.58,.37-.88,.54s-.74,.39-1.13,.57c.67-.31-.58,.18-.8,.25-1.86,.56-3.83,.56-5.69,0-1.09-.29-2.13-.72-3.12-1.26-.42-.24-.83-.49-1.23-.77l-.46-.34c.44,.34-.43-.37-.51-.44-1.45-1.22-2.63-2.74-3.47-4.44-.23-.43-.45-.87-.66-1.32-.39-.86,.11,.3-.09-.22-.1-.23-.18-.46-.27-.69-.36-1.02-.65-2.06-.85-3.12,0-.24-.09-.48-.13-.72-.08-.55,.06,.72,0-.2,0-.48-.08-1-.1-1.44s0-1,0-1.42c0-.28,0-.56,.06-.85,0-.67-.1,.43,0-.29,.16-.9,.38-1.79,.68-2.66,0-.08,.39-.89,.1-.28l.24-.48c.24-.48,.52-.95,.82-1.4,0-.06,.59-.74,.17-.24,.12-.14,.23-.28,.36-.41,.31-.36,.64-.69,1-1,.89-.77,1.81-1.5,2.66-2.34,1.83-1.85,3.51-3.86,5-6,2.78-4,5.3-8.17,7.55-12.49,.93-1.69,1.84-3.4,2.84-5.05,.19-.3,.38-.6,.58-.9l.22-.33c.32-.57-.51,.5-.08,.08,.21-.2,.39-.43,.61-.63,.1-.08,.19-.16,.28-.25,.34-.33-.51,.33,.19-.14,3.18-2.04,6.75-3.41,10.48-4,4.87-1.06,9.91-1.01,14.76,.14,.63,.17,1.25,.36,1.85,.58,0,0,.95,.38,.45,.17,.29,.12,.58,.26,.86,.4,.54,.27,1,.58,1.56,.88l3.8,2.24c1.48,.85,3.37,.33,4.21-1.15,.12-.21,.22-.44,.29-.68,.36-1.6,.85-3.18,1.44-4.71,.12-.32,.25-.64,.38-1-.23,.55,.1-.2,.17-.37,.33-.7,.68-1.39,1.08-2.06,.18-.31,.37-.62,.57-.92,.08-.12,.72-.94,.31-.46,.23-.26,.45-.53,.69-.77l.36-.36c.06,0,.6-.49,.26-.23s.48-.29,.59-.36c.62-.37-.14,0,.16-.08s.54,0,0,0h.88c.75,0-.27-.1,.14,0l.72,.14c.64,.15,1.27,.35,1.88,.58,.32,.11,.63,.23,1,.36-.63-.25,.37,.17,.49,.22,.73,.34,1.44,.69,2.15,1.07,1.47,.77,2.9,1.61,4.31,2.48,2.67,1.64,5.26,3.4,7.82,5.19l3,2,1,.68c.61,.39-.28-.33,.22,.18,.22,.23,.44,.46,.67,.68s-.25-.44,.16,.22c.15,.24,.29,.48,.42,.72,.07,.12,.12,.25,.18,.37,0-.08-.2-.65-.08-.16,.07,.29,.17,.58,.24,.86,.19,.69,.06-.43,0,.05-.02,.25-.02,.5,0,.75-.1-.62,.13-.52,0-.26-.04,.12-.07,.24-.09,.36,0,.43,.05-.1,.11-.22-.1,.16-.19,.32-.26,.49-.16,.4,.43-.4,0,0s.47-.21-.18,.16c-.13,.07-.26,.14-.38,.22-.35,.22,.51-.17,.09,0s-.74,.22-1.12,.31c-.56,.14-.19,0,0,0-.21,0-.42,0-.62,.05-.46,.02-.92,.02-1.38,0-.84-.03-1.67-.16-2.47-.39-1.91-.48-3.73-1.23-5.43-2.22-.93-.53-1.85-1.1-2.74-1.7-.4-.27-.8-.55-1.19-.84l-.38-.28s-.77-.58-.35-.25c-1.66-1.28-3.23-2.69-4.68-4.21-2.69-2.88-7,1.45-4.32,4.33,4.39,4.79,9.88,8.43,16,10.62,3.81,1.28,8.9,1.87,12.42-.53,2.82-1.99,3.96-5.62,2.78-8.86-1-3.07-3.16-4.88-5.73-6.65s-5.14-3.6-7.77-5.31c-2.99-2.04-6.14-3.84-9.41-5.38-2.78-1.25-6.16-2.64-9.26-1.8-3.9,1.06-6.44,4.89-8,8.36-1.08,2.33-1.92,4.76-2.5,7.26l4.49-1.83c-2.75-1.81-5.68-3.32-8.74-4.52-5.01-1.51-10.29-1.89-15.47-1.11-4.95,.52-9.75,1.96-14.17,4.24-1.55,.8-2.93,1.88-4.08,3.19-1.14,1.54-2.14,3.16-3,4.87-2.44,4.41-4.77,8.87-7.59,13.05-1.4,2.15-2.99,4.16-4.77,6-1.72,1.77-3.72,3.14-5.2,5.13-5.82,7.81-3.18,19.64,3.06,26.37,4.26,4.63,10.55,6.81,16.76,5.82,3.28-.59,6.27-2.25,8.49-4.74,1.15-1.21,1.15-3.11,0-4.32-1.2-1.18-3.12-1.18-4.32,0l-.31,.13Z"/><path class="k" d="M205.72,116.65l-3.07,5.08c-.49,.84-.35,1.9,.34,2.58,.47,.41,.9,.86,1.29,1.35,.11,.12,.2,.25,.31,.37,.4,.48-.24-.34,.07,.09s.52,.71,.76,1.07c.62,.91,1.18,1.85,1.71,2.82,1.53,2.82,2.78,5.8,3.71,8.87,1.5,4.76,2.63,9.62,3.39,14.55,1.21,8.04,1.82,16.17,1.85,24.3,0,2.74,4.3,2.75,4.26,0-.15-12.9-1.19-26.11-4.94-38.52-1.71-5.68-4-11.42-7.73-16.1-.49-.66-1.05-1.27-1.67-1.81l.33,2.58,3.07-5.08c1.42-2.35-2.26-4.5-3.68-2.15h0Z"/><path class="k" d="M161.97,107.32c-.59-2.08-1.36-4.11-2.29-6.07-1.46-3.15-3.55-6.52-6.68-8.25s-6.12-1-9.11,.23c-3.27,1.46-6.38,3.25-9.28,5.35-2.83,2-5.56,4.07-8.29,6.17-2.25,1.74-4.71,3.26-6,5.9-1.51,3-1.65,6.77,.69,9.43,2.75,3.14,7.54,3.07,11.27,2.22,4.77-1.09,9-3.89,12.77-7,1.95-1.57,3.76-3.31,5.4-5.21,1.15-1.21,1.15-3.11,0-4.32-1.2-1.18-3.12-1.18-4.32,0-1.08,1.24-2.23,2.42-3.46,3.52-1.1,1.02-2.25,1.97-3.46,2.86-1.51,1.1-3.11,2.07-4.78,2.89-1.51,.73-3.12,1.24-4.77,1.52,.41-.07-.19,0-.23,0h-.7c-.43,.02-.87,.02-1.3,0-.19,0-.39,0-.58,0,.59,.08,.11,0,0,0s-1.29-.53-.63-.16l-.64-.37c-.35-.2,.5,.25,.15,.1-.12-.06-.21-.15-.27-.27-.21-.33,.29,.53,.13,.18-.07-.1-.13-.21-.19-.32-.25-.59,.13,.57-.06-.2s-.08,.38,0-.11c.02-.25,.02-.51,0-.76,0-.46-.18,.63,0-.15l.27-.87c.12-.39-.26,.52-.06,.16l.18-.37c.14-.25,.29-.48,.44-.72,.38-.6-.33,.29,.18-.21l.68-.68c.39-.39-.43,.31,.12-.09l.52-.38,1.32-1c2.31-1.78,4.61-3.57,7-5.27,2.64-1.96,5.41-3.74,8.3-5.31,.62-.33,1.26-.63,1.9-.93,.12-.06,.55-.21,0,0l.45-.18c.32-.11,.64-.23,1-.33s.54-.16,.82-.22c.13,0,1-.14,.46-.1s.19,0,.31,0h.34c.48,0-.59-.21-.18,0,.1,.03,.2,.06,.3,.08,.48,0-.19-.13,0,0l.93,.55c.46,.29,.06,.06,0,0,.19,.17,.38,.34,.56,.52,.25,.24,.49,.49,.71,.76,.12,.13,.23,.27,.34,.41-.4-.51,.14,.2,.17,.25,.23,.33,.46,.68,.67,1,.45,.73,.86,1.49,1.22,2.27,.15,.31,.3,.62,.44,.94,.07,.15,.13,.31,.2,.46-.29-.69,0,.06,.06,.16,.22,.58,.44,1.16,.65,1.74s.39,1.18,.56,1.78c1,3.79,6.93,2.18,5.89-1.63l-.12,.03Z"/><path class="k" d="M142.35,114.68l2.9,4.31,.41,.62c.29,.48,.74,.83,1.27,1,.55,.15,1.14,.07,1.64-.22,.49-.27,.85-.73,1-1.27,.16-.55,.08-1.15-.21-1.64l-2.9-4.31-.41-.62c-.29-.48-.74-.83-1.27-1-.56-.15-1.15-.07-1.65,.22-.49,.28-.85,.73-1,1.27-.16,.55-.08,1.15,.21,1.64h.01Z"/><path class="k" d="M147.24,170.01c-.79,1.15-1.6,2.29-2.42,3.42-1,1.34-1.93,2.66-2.91,4-.59,.8-1.19,1.6-1.8,2.4l-1,1.34-.49,.65-.1,.13c.19-.25-.16,.2-.19,.24-7.36,9.54-15.24,18.67-23.61,27.34-5.52,5.74-11.35,11.17-17.46,16.27-1.18,1.2-1.18,3.12,0,4.32,1.21,1.16,3.11,1.16,4.32,0,10.52-8.88,20.29-18.62,29.2-29.11,6.53-7.56,12.74-15.39,18.63-23.49,1-1.45,2.1-2.91,3.11-4.39,.84-1.46,.35-3.32-1.1-4.18-1.46-.81-3.31-.33-4.18,1.1v-.04Z"/><path class="k" d="M142.51,185.88c6.74,1.06,13.55,1.62,20.37,1.7,12.77,.24,26.21-.8,38.17-5.58,6.78-2.71,13.19-6.62,17.73-12.44,1.14-1.22,1.14-3.11,0-4.33-1-1.05-3.3-1.31-4.32,0-.92,1.19-1.92,2.32-3,3.37-.52,.51-1.07,1-1.63,1.47l-.8,.65c-.09,.08-.46,.35,0,0l-.62,.47c-2.44,1.75-5.06,3.23-7.81,4.44-.13,0-1.1,.46-.51,.22-.38,.15-.76,.31-1.14,.45-.76,.3-1.53,.58-2.31,.84-1.52,.52-3.06,.98-4.62,1.39-3.06,.79-6.16,1.42-9.29,1.87l-.57,.08-1.24,.16-2.47,.26c-1.58,.16-3.17,.28-4.76,.37-2.93,.17-5.88,.23-8.82,.22-4.86,0-9.71-.25-14.55-.76-1-.09-1.92-.19-2.88-.31l-1.15-.14c-.36,0-1.67-.25-.31,0-.6-.1-1.21-.17-1.82-.27-1.62-.4-3.27,.54-3.76,2.14-.4,1.46,.5,3.49,2.14,3.76l-.03-.03Z"/><path class="k" d="M133.55,198.31c6.22,1,12.53,1.58,18.82,2,12.53,.78,25.22,.61,37.61-1.54,7.05-1.1,13.88-3.29,20.25-6.49,1.52-.75,2.14-2.58,1.4-4.1-.75-1.52-2.58-2.14-4.1-1.4-.13,.06-.26,.14-.38,.22-2.45,1.31-5.02,2.37-7.67,3.19-2.91,.93-5.88,1.69-8.88,2.27-6.1,1.16-12.29,1.83-18.5,2-10.48,.36-20.97-.07-31.38-1.3l-2.63-.32-.7-.09-.57-.08-1.67-.27c-1.62-.39-3.27,.55-3.76,2.14-.44,1.63,.51,3.3,2.13,3.76h.03Z"/><path class="k" d="M146.05,133.73s-.68,.83-.22,.3c.21-.24,.41-.48,.63-.71s.67-.66,1-1l.3-.26c.37-.31-.07,.09-.24,.18,.27-.15,.51-.36,.77-.53s.48-.3,.73-.43l.36-.19,.24-.11c.36-.18-.31,.14-.36,.15,.31-.08,.62-.18,.92-.31l.41-.1h.2c.51-.12-.18,0-.32,0,.31,0,.64-.05,.95-.05h.42c-.58-.07-.05,0,0,0,.35,.09,.68,.22,1,.3s-.33-.15-.33-.15c.08,.04,.16,.08,.24,.11,.22,.11,.44,.22,.65,.35s.44,.27,.65,.42c.09,.04,.18,.1,.25,.18-.11-.22-.42-.35,0,0,.44,.38,.86,.79,1.25,1.22,.23,.26,.46,.52,.68,.79l.09,.12,.27,.38c.49,.69,.93,1.41,1.35,2.14,.81,1.48,2.67,2.02,4.16,1.21s2.02-2.67,1.21-4.16c-.03-.05-.05-.1-.08-.14-2.53-4.38-6.48-8.92-12-8.9-3.34,.15-6.49,1.59-8.8,4-.63,.62-1.21,1.29-1.73,2-.84,1.46-.35,3.32,1.1,4.18,1.46,.8,3.3,.32,4.18-1.1l.08,.11Z"/><path class="k" d="M179.42,135.62s-.68,.83-.22,.3c.21-.24,.42-.48,.64-.71,.31-.35,.65-.69,1-1l.3-.26c.37-.31-.07,.09-.24,.18,.27-.15,.51-.37,.77-.53,.24-.16,.48-.3,.73-.43l.36-.19,.24-.11c.36-.19-.31,.14-.36,.15,.31-.08,.62-.18,.92-.31l.41-.1h.21c.5-.11-.19,0-.32,0h1.36c-.58-.07-.05,0,.06,0,.34,.09,.67,.22,1,.3s-.33-.15-.33-.15c.08,.04,.16,.08,.24,.11,.22,.11,.44,.22,.65,.35s.44,.27,.65,.42c.09,.04,.18,.1,.25,.17-.1-.22-.42-.35,0,0,.44,.38,.86,.79,1.25,1.22,.24,.25,.46,.52,.68,.78,0,0,.28,.38,.09,.13l.27,.38c.49,.69,.93,1.41,1.35,2.14,.81,1.48,2.67,2.02,4.16,1.21s2.02-2.67,1.21-4.16c-.03-.05-.05-.1-.08-.14-2.53-4.38-6.48-8.92-12-8.9-3.35,.17-6.5,1.62-8.8,4.05-.63,.62-1.21,1.29-1.73,2-.84,1.46-.35,3.33,1.1,4.19,1.46,.8,3.3,.32,4.18-1.1h0Z"/><path class="k" d="M54.96,36.43c-4-.88-7.65,1.29-10.52,3.83-2.46,2.3-4.61,4.9-6.41,7.75-2.88,4.4-5.39,9.02-7.52,13.83-1.45,2.96-2.74,6-3.87,9.09-.62,1.79-.85,3.69-.66,5.58,.45,3.67,2.3,7.03,5.17,9.36,5.49,4.58,13.82,6.85,20.77,4.66,4-1.12,7.17-4.18,8.45-8.13,2.1-7.08,3.45-14.36,4-21.73-.02-1.78-1.46-3.22-3.24-3.24-1.77,.04-3.2,1.47-3.24,3.24-.55,5.99-1.61,11.93-3.15,17.75-.25,1-.51,1.89-.8,2.82-.19,.61,.32-.4,0-.14-.09,.13-.16,.28-.21,.43-.19,.33-.42,.62-.61,.94,.47-.8,0,0-.22,.19s-.45,.41-.67,.62c.56-.54,.11-.08-.25,.14s-.59,.34-.9,.51c-.14,.08-.29,.13-.43,.2,.78-.39,.38-.14,.15-.07s-.61,.22-.92,.31-.65,.17-1,.24-1.35,.19-.45,.1c-1.49,.13-2.98,.13-4.47,0-.77-.07,.74,.15,0,0l-.44-.07c-.36-.07-.72-.14-1.08-.23-.78-.19-1.54-.42-2.29-.7l-1-.4c.89,.36-.26-.13-.43-.22-.72-.35-1.41-.74-2.08-1.18-.29-.19-.57-.42-.87-.61,.77,.5-.13-.12-.32-.29-.55-.51-1.07-1.05-1.56-1.62,.54,.6,0,0-.2-.31-.19-.27-.36-.56-.51-.85-.14-.26-.47-1.24-.17-.3-.11-.35-.24-.68-.34-1-.05-.34-.12-.67-.2-1-.15-.39,0,.82,0,.15v-1.4c0-.3,.15-.91,0,0,0-.22,.07-.44,.12-.66,.67-2.39,1.57-4.7,2.7-6.9,2.04-4.72,4.39-9.29,7.05-13.69,.95-1.54,2-3,3-4.49,.11-.16,.47-.6,0,0l.35-.43c.22-.28,.45-.55,.68-.82,.44-.52,.89-1,1.36-1.52s1-1,1.47-1.4l.7-.58c.36-.31-.31,.26-.32,.24l.38-.28c.4-.27,.79-.53,1.2-.77l.59-.3,.23-.11c.51-.28-.82,.27-.36,.15s.64-.24,1-.32l.43-.1c.69-.19-.91,0-.35,0h.78c.81,0-1-.21-.16,0,1.72,.44,3.49-.56,4-2.26,.46-1.73-.55-3.51-2.27-4h-.09Z"/><path class="k" d="M37.25,85.46c-1.94,4.18-4.14,8.25-6.41,12.26s-4.55,7.77-7,11.52c-2.67,4.11-5.58,8.06-8.73,11.82-1.74,2-3.55,4-5.48,5.9-1,.93-2,1.83-3,2.69-.46,.38-.92,.76-1.39,1.13,.53-.42-.23,.17-.28,.2l-.93,.68c-1.51,.93-2.02,2.88-1.17,4.43,.91,1.54,2.89,2.06,4.44,1.17,8.38-5.92,14.9-14.18,20.64-22.59,4.68-6.88,8.92-14.06,12.69-21.48,.76-1.47,1.51-3,2.21-4.46,.84-1.55,.33-3.5-1.17-4.43-1.55-.88-3.52-.37-4.43,1.16h0Z"/><path class="k" d="M73.99,59.91c-.02-.48-.02-.96,0-1.44,.07-.51,.11-1.02,.12-1.53,0,.27-.15,1,0,.38,0-.14,0-.28,.08-.42,.06-.32,.13-.64,.22-1s.17-.59,.27-.88c.07-.14,.12-.29,.17-.44-.36,1.15-.2,.47,0,.16s.31-.58,.48-.86l.28-.41c.26-.41-.59,.69-.26,.34l.2-.24c.23-.26,.47-.5,.73-.73,.08-.07,.17-.13,.24-.2s-.75,.54-.4,.31c.19-.11,.37-.25,.56-.36l.5-.27,.32-.14s-.87,.32-.45,.19c.44-.15,.89-.28,1.35-.39l.4-.08c.55-.13-.88,.08-.3,0,.29,0,.59-.06,.89-.07,.67-.02,1.34,0,2,.07h.36c-1,0-.22,0,.07,0s.79,.15,1.18,.24c.88,.19,1.74,.43,2.59,.72,1.73,.47,3.51-.55,4-2.27,.45-1.72-.55-3.49-2.26-4-5.2-1.68-11.43-2.28-15.76,1.69-2.63,2.4-3.68,6-3.9,9.47-.05,.67-.05,1.33,0,2,.04,1.77,1.47,3.2,3.24,3.24,1.61-.07,3.42-1.44,3.24-3.24l-.16,.16Z"/><path class="k" d="M77.97,94.55c1.31,1.95,2.97,3.65,4.89,5,4.29,3.11,9.22,5.21,14.43,6.15,4.05,.8,8.17,1.16,12.29,1.09,3.72,.05,7.43-.46,11-1.52,4.3-1.4,8.3-4.2,9.57-8.75,.64-2.26,.59-4.67-.17-6.9-.53-1.69-2.28-2.67-4-2.26-3.05,.42-6.12,.64-9.19,.64-1.38,0-2.76-.06-4.13-.18l-1-.1-.58-.07-.54-.09-1.08-.19c-1.09-.21-2.17-.47-3.24-.79l-1.36-.44-.66-.24c-.11,0-1-.41-.55-.22s-.21-.1-.32-.15l-.58-.28c-.44-.21-.87-.44-1.29-.68-.74-.43-1.44-.9-2.14-1.39-.52-.36,.19,.18,.06,.06s-.34-.27-.5-.41-.59-.5-.87-.77c-.54-.5-1.05-1.03-1.53-1.59-.13-.15-.24-.3-.37-.44-.35-.43-.11,0,.11,.15-.22-.12-.45-.62-.59-.83-.38-.55-.73-1.12-1.06-1.71s-.55-1.07-.8-1.61,.29,.76,0-.07c-.1-.28-.21-.55-.31-.82-.31-.89-.56-1.81-.76-2.73-.08-.41-.15-.82-.22-1.23-.11-.64,.11,1,0,.26,0-.14,0-.28-.05-.41s0-.57,0-.85l-4.1,3.12c12.36,4.89,28.56,8.8,40.64,1,8.34-5.41,12.25-15.15,12.38-24.83,.1-7.75-2-17.29-8.57-22.17-4.32-3.2-10.16-1.84-14.86-.28-3.39,1.27-6.69,2.75-9.89,4.44-.69,.34-1.39,.66-2.1,1,.83-.37-.31,.12-.52,.2-.44,.17-.89,.32-1.34,.47-.77,.24-1.55,.45-2.34,.61-.42,.09-.84,.16-1.25,.22,.75-.11,.14,0,0,0l-1,.07c-.97,.06-1.93,.06-2.9,0-.53,0-1-.08-1.58-.14s-.28,0-.13,0c-.46-.06-.93-.14-1.38-.23-2.81-.54-5.46-1.49-8.2-2.29-4.95-1.55-10.16-2.12-15.33-1.68-5.91,.63-11.89,2.75-16.22,7-.2,.19-.4,.4-.58,.61-1.22,1.28-1.22,3.3,0,4.58,1.27,1.25,3.31,1.25,4.58,0,.17-.2,.36-.39,.55-.58l.69-.63,.45-.37c.55-.47-.63,.44,0,0,.96-.68,1.96-1.29,3-1.84l.81-.4c.22-.1,1.29-.49,.41-.19,.78-.27,1.53-.57,2.32-.81s1.58-.43,2.39-.59c.45-.09,.91-.16,1.37-.23-.65,.09-.14,0,0,0,.35,0,.69-.08,1-.1,2.22-.17,4.45-.13,6.66,.14,.68,.09-.79-.13,.43,.06l.95,.16c.59,.1,1.17,.22,1.76,.35,1.54,.34,3.06,.77,4.57,1.26,2.52,.87,5.11,1.54,7.74,2,4.09,.75,8.29,.59,12.3-.48,3.16-1.05,6.22-2.39,9.14-4,.69-.34,1.39-.68,2.09-1l1-.46c.79-.35-.64,.24,.17-.07l.73-.29c1.76-.68,3.58-1.19,5.43-1.55,.52-.1,1-.19,1.56-.26h.11c.34,0,.68-.08,1-.1s.62,0,.93,0c.55,0,.29,.3-.32-.06,.15,.04,.3,.07,.45,.08l.87,.27c.6,.17-.81-.42-.26-.11,.13,.07,.28,.13,.41,.21,.28,.15,.56,.32,.82,.51,.64,.41-.44-.4-.19-.15l.39,.32c.26,.23,.51,.47,.74,.73,.19,.2,.47,.72,.71,.82-.44-.19-.5-.68-.1-.11,.11,.15,.22,.31,.32,.47,.45,.67,.85,1.37,1.21,2.09,.14,.4,.32,.78,.53,1.15-.52-.69-.21-.51,0-.05,.09,.2,.16,.41,.24,.62,.31,.86,.58,1.73,.81,2.62s.45,1.91,.61,2.88c0,.21,.07,.43,.11,.65,.13,.83-.09-.8,0,0,.05,.52,.11,1,.15,1.56,.15,2.04,.13,4.09-.07,6.13,0,.23-.06,.46-.08,.69-.09,.85,.13-.77,0,.06-.09,.57-.18,1.13-.3,1.69-.21,1.01-.47,2.01-.78,3-.14,.45-.29,.89-.46,1.33-.09,.24-.18,.48-.28,.72s-.26,.6,0,0,0,.07-.09,.18c-.48,.93-1.01,1.83-1.59,2.7-.25,.4-.51,.79-.77,1.17-.15,.22-.32,.42-.46,.64-.35,.5,.52-.62,.12-.17l-.3,.37c-.68,.81-1.41,1.57-2.2,2.27l-.61,.53-.25,.2c-.45,.4,.55-.38,.21-.16s-.94,.68-1.43,1c-.96,.6-1.97,1.14-3,1.61-.48,.22,.25-.11,.28-.12l-.5,.2-.76,.28c-.62,.21-1.25,.4-1.88,.57s-1.26,.3-1.9,.42l-.89,.16-.5,.07c1-.16,.24,0,0,0-3.08,.29-6.19,.25-9.26-.12-.84-.09,.49,.07,0,0l-.66-.1c-.44-.06-.88-.14-1.33-.22-.92-.16-1.84-.35-2.75-.55-2-.45-4-1-5.9-1.61-2.18-.68-4.32-1.46-6.43-2.29s-4.11,1.2-4.11,3.12c.13,3.53,1.06,6.99,2.73,10.11,3.5,6.88,10.3,11.28,17.68,13,7,1.66,14.31,1.3,21.41,.29l-4-2.27c.13,.38,.24,.77,.31,1.16,.12,.54,0,.59,0-.2,0,.24,0,.48,.06,.72s0,.46,0,.69v.4c0,.63-.13-.07,.05-.28-.06,.07-.47,1.7-.46,1.71-.14-.2,.39-.78,.08-.2-.08,.14-.15,.29-.24,.44s-.18,.29-.27,.44c-.33,.54,0,0,.06,0-.26,.24-.47,.54-.72,.79l-.46,.41c-.52,.48,.53-.33-.08,.06-.39,.26-.78,.52-1.2,.75-.23,.13-.46,.24-.69,.35l-.31,.15c-.35,.16,.58-.22,0,0-1.22,.44-2.47,.8-3.74,1.06l-1.11,.2-.49,.07c.47-.07-.11,0-.18,0-.94,.1-1.88,.18-2.83,.22-1.98,.11-3.96,.11-5.94,0-1.67-.07-3.34-.24-5-.5-2.88-.46-5.69-1.23-8.4-2.3l-.36-.15,.18,.08-.8-.36c-.53-.25-1-.52-1.56-.8-.87-.47-1.72-.99-2.53-1.56-.2-.14-.4-.28-.59-.43-.62-.45,.27,.25,0,0s-.6-.49-.89-.75c-.5-.46-.98-.95-1.43-1.46l-.48-.55c-.5-.58,.49,.7,.14,.18-.08-.13-.18-.24-.26-.37-2.16-3.56-7.77-.3-5.59,3.27h.01Z"/><path class="k" d="M95.15,103.53c.43,9.22,1.19,18.43,2.06,27.62,1.74,18.36,4,36.76,7.92,54.8,1.81,9.12,4.52,18.03,8.07,26.62,.7,1.6,3.06,2,4.44,1.16,1.5-.93,2.01-2.88,1.16-4.43l-.27-.64c.34,.81,0,.07,0-.08-.15-.37-.3-.74-.44-1.11-.36-.91-.71-1.83-1-2.76-.64-1.8-1.23-3.62-1.79-5.45-1.24-4.09-2.3-8.23-3.25-12.4-2.06-9-3.61-18.1-4.93-27.22-.17-1.14-.33-2.28-.49-3.42,0-.21,0-.41-.08-.62,0-.06-.15-1.08-.05-.38-.08-.61-.17-1.23-.25-1.85-.3-2.33-.59-4.67-.86-7-.5-4.21-1-8.44-1.37-12.66-.67-6.88-1.24-13.76-1.73-20.65-.22-3.18-.43-6.36-.58-9.54-.04-1.77-1.47-3.2-3.24-3.24-1.78,.02-3.22,1.46-3.24,3.24h-.08Z"/><path class="k" d="M109.2,33.31s7.94,23.57,27.33,8.29c0,0,.17-13.44-9.61-13.07-6.18,.33-12.22,1.96-17.72,4.78Z"/><path class="k" d="M31.54,102.72c3.42,2.98,7.17,5.56,11.17,7.69,9.53,5.3,19.93,8.85,30.72,10.46,8.27,1.25,16.67,1.45,25,.61,1.77-.05,3.19-1.47,3.24-3.24,0-1.62-1.49-3.42-3.24-3.24-13.01,1.46-26.17,.07-38.59-4.07-1.22-.4-2.42-.83-3.61-1.29l-1.71-.68-.36-.15-.87-.37c-2-.9-4-1.87-6-2.93-2.88-1.53-5.66-3.25-8.32-5.15-.5-.36-1-.73-1.47-1.09-.06,0,.72,.56,.25,.19l-.26-.2-.47-.38c-.29-.24-.59-.48-.86-.74-1.26-1.27-3.32-1.27-4.59,0s-1.27,3.32,0,4.59h-.03Z"/><path class="k" d="M22.95,120.15c4.41,3.47,9.13,6.55,14.08,9.19,11.01,6.18,22.96,10.53,35.37,12.87,8.57,1.58,17.32,1.97,26,1.15,1.77-.05,3.19-1.47,3.24-3.24,0-1.62-1.49-3.42-3.24-3.24-14.27,1.44-28-.73-41.51-5.58-1.44-.51-2.87-1.06-4.29-1.64l-1-.42-.39-.17c-.71-.3-1.42-.61-2.12-.93-2.43-1.1-4.82-2.27-7.17-3.52-3.6-1.91-7.1-4.01-10.49-6.28-1.13-.76-2.24-1.54-3.32-2.34l-.52-.39c-.62-.47,.41,.35,.24,.19-.09-.09-.18-.16-.29-.23-1.28-1.22-3.3-1.22-4.58,0-1.14,1.13-1.37,3.47,0,4.58h-.01Z"/><path class="k" d="M230.25,118.54c0,3-.11,6.07-.35,9.09-.12,1.5-.26,3-.44,4.48l-.12,1-.09,.68c0-.07,.06-.46,0-.05-.1,.73-.21,1.47-.33,2.2-.93,5.85-2.32,11.62-4.15,17.26-.9,2.75-1.89,5.46-3,8.14-.07,.15-.36,.85-.28,.67l-.29,.66c-.31,.71-.62,1.42-.94,2.12-.6,1.3-1.23,2.6-1.87,3.88-2.58,5.09-5.54,9.99-8.84,14.65-1.81,2.55-2.92,4-4.86,6.32s-3.71,4.3-5.68,6.35-4.09,4.09-6.25,6c-1,.95-2.13,1.87-3.22,2.78l-1.52,1.24c-.25,.21-.51,.41-.77,.61l-.51,.41c.28-.23,.07-.06-.09,.06-4.54,3.46-9.32,6.58-14.31,9.34-2.51,1.38-5.07,2.67-7.67,3.87l-2,.88-.67,.28-.2,.09-.62,.25c-1.33,.55-2.68,1.07-4,1.57-5.48,2.01-11.11,3.59-16.84,4.73-1.5,.3-3,.57-4.53,.81l-2,.31c-.4,.05,0,0,.06,0l-.52,.07-1.36,.16c-3,.35-6,.58-9,.69-6.06,.23-12.12-.01-18.14-.73l-1-.12-.51-.07c.15,0,.58,.08-.12,0s-1.47-.21-2.2-.33c-1.46-.24-2.92-.5-4.37-.79-2.87-.58-5.71-1.27-8.54-2.07-2.83-.8-5.59-1.7-8.29-2.69-1.41-.52-2.8-1.06-4.19-1.63-.14-.06-.89-.38-.41-.18l-.92-.39-2.12-.95c-5.2-2.4-10.21-5.18-15-8.32-2.38-1.56-4.71-3.23-7-5l-.35-.27-.77-.61-1.78-1.45c-1.09-.91-2.17-1.84-3.22-2.79-4.22-3.79-8.16-7.89-11.78-12.26-1.93-2.32-3-3.78-4.86-6.34-1.67-2.37-3.25-4.8-4.75-7.29-1.47-2.46-2.85-5-4.13-7.52-.65-1.28-1.27-2.58-1.86-3.88-.28-.61-.55-1.21-.81-1.82-.06-.14-.47-1.09-.25-.56l-.44-1.08c-2.19-5.38-3.98-10.93-5.33-16.58-.68-2.87-1.26-5.77-1.72-8.68l-.33-2.2c.08,.52,0-.31-.06-.46-.05-.4-.09-.8-.14-1.2-.17-1.49-.32-3-.43-4.48-.49-6.11-.49-12.25,0-18.36,.12-1.5,.27-3,.45-4.48,0-.34,.08-.68,.13-1,.08-.63,0,.17,.06-.46,.12-.79,.23-1.58,.36-2.37,.48-2.91,1.06-5.8,1.76-8.66,1.38-5.65,3.18-11.19,5.4-16.56,.06-.15,.13-.3,.19-.46,.22-.52-.18,.42,.05-.1l.39-.92c.29-.65,.58-1.31,.89-2,.6-1.31,1.22-2.6,1.87-3.88,1.32-2.59,2.74-5.14,4.25-7.63s3-4.82,4.7-7.14c1.8-2.51,2.89-3.93,4.88-6.31,3.64-4.35,7.6-8.44,11.84-12.21,1.06-1,2.14-1.87,3.23-2.78,.55-.45,1.1-.9,1.66-1.34l.77-.61s.43-.34,.17-.13l.31-.24c2.26-1.72,4.59-3.36,7-4.91,4.84-3.15,9.92-5.94,15.18-8.33l1.82-.8,.41-.18c.4-.18,.82-.34,1.23-.51,1.33-.54,2.68-1.06,4-1.55,2.73-.99,5.5-1.87,8.3-2.66,2.83-.79,5.69-1.46,8.56-2,1.46-.29,2.91-.54,4.37-.77l1-.16,.68-.1h.23l.74-.09,1.2-.15c6.02-.69,12.09-.9,18.15-.65,3.06,.13,6.12,.38,9.16,.75l1,.13c.4,.06,0,0-.06,0l.51,.07,2.37,.36c1.46,.24,2.91,.51,4.36,.81,5.72,1.17,11.34,2.78,16.81,4.8,1.36,.51,2.7,1,4,1.59l.47,.19c-.07,0-.41-.18,0,0l1.06,.46,2,.89c2.6,1.2,5.15,2.5,7.66,3.9,2.51,1.4,4.94,2.88,7.31,4.44,1.19,.78,2.36,1.59,3.52,2.41l1.77,1.31,.78,.59,.39,.29c.08,.06,.66,.51,.23,.17,4.48,3.48,8.7,7.3,12.62,11.4,1.96,2.06,3.84,4.18,5.65,6.37l1.24,1.53,.71,.9c.24,.31,0,0,0,0l.4,.52c.86,1.13,1.7,2.28,2.52,3.44,3.28,4.68,6.21,9.59,8.77,14.69,.64,1.29,1.26,2.58,1.85,3.89,.3,.65,.59,1.31,.88,2l.19,.46c0-.06-.17-.41,0,0s.3,.72,.44,1.08c1.11,2.73,2.12,5.51,3,8.32,1.77,5.6,3.11,11.33,4,17.13,.06,.33,.11,.67,.16,1,0,.17,.13,.95,.1,.74s.09,.7,.12,.91l.12,1c.17,1.43,.3,2.87,.41,4.31,.23,3,.34,5.94,.34,8.92,0,4.38,6.82,4.39,6.81,0,.06-24.54-7.53-48.49-21.72-68.51-7-9.83-15.42-18.56-25-25.9C139.77-14.31,67.75-6.03,27.24,43.01c-7.69,9.32-13.93,19.75-18.51,30.93-23.9,58.89,2.87,126.15,60.69,152.52,22.88,10.38,48.45,13.25,73.06,8.22,11.82-2.42,23.2-6.64,33.73-12.53,20.83-11.62,37.68-29.24,48.36-50.57,5.46-10.89,9.19-22.57,11.05-34.61,.94-6.09,1.42-12.23,1.44-18.39,.01-4.42-6.8-4.43-6.81-.04Z"/><ellipse class="k" cx="79.76" cy="155.28" rx="6.55" ry="8.2" transform="translate(-10.65 5.95) rotate(-4)"/><ellipse class="k" cx="78.1" cy="139.23" rx="5.46" ry="6.1" transform="translate(-67.62 204.42) rotate(-84.81)"/></g></g></g></svg>