<svg xmlns="http://www.w3.org/2000/svg" viewBox="0 0 1076.55 1354.26"><defs><style>.cls-1{fill:#fff;}.cls-2{fill:#66c5da;}.cls-3{fill:#f6f4f4;}.cls-4{fill:#f6ac7d;}.cls-5{fill:#b81825;}.cls-6{fill:#2e3438;}.cls-7{fill:#854c3c;}.cls-8{fill:#512110;}.cls-9{fill:#1d1d1b;}</style></defs><g id="Capa_2" data-name="Capa 2"><g id="logos"><path class="cls-1" d="M147.75,1198.33c-6.27,9-47.24,62.58-110.88,18.37-45.14-31.35-46.25-79.14-17.32-120.8,9.65-13.88,50.65-65,116.38-19.35C200.73,1121.57,163.5,1175.65,147.75,1198.33Zm-41-40.18c7.39-10.64,24.26-38.39,6.21-50.93-19-13.18-38.27,10.14-48.07,24.26-2.09,3-26,37.88-5.38,52.19C77.75,1196.37,97.37,1171.57,106.7,1158.15Z"/><path class="cls-1" d="M205.12,1126.19,348,1175.08l-16,46.66-36-12.31-38.49,112.51-64.25-22,33-109.62-38.66-13.23L204,1129.39Z"/><path class="cls-1" d="M356,1176.2l150.38,14.12-4.61,49.1-37.87-3.56-11.12,118.4-67.62-6.35,6.49-114.3-40.68-3.82,4.71-50.22Z"/><path class="cls-1" d="M688.35,1262.44c1.15,10.92,5.15,78.23-71.91,86.38-54.65,5.77-86.73-29.66-92.07-80.1-1.78-16.81-4.17-82.3,75.42-90.72C678.26,1169.71,685.44,1235,688.35,1262.44ZM631,1258.86c-1.36-12.89-6.73-44.91-28.59-42.6-23,2.43-22.33,32.68-20.52,49.78.38,3.64,5.11,45.65,30.05,43C634.09,1306.71,632.73,1275.12,631,1258.86Z"/><path class="cls-1" d="M824.76,1205.79c5.86-2,40.35-11.79,54.1,28.18,15.21,44.24-35.11,66-62.82,75.55-27.45,9.44-69.81,15.38-69.81,15.38s-43.65-119.09-54.5-144.56c0,0,12.19-20.89,55.09-35.65,42.1-14.48,78.52-17.77,90,15.54C848.07,1193,824,1206.07,824,1206.07Zm-58.09,10.45a20.58,20.58,0,0,0,3.55-.92c8-2.75,25.74-10.94,19.87-28l-.55-1.59c-5-11.1-13.74-11.37-21.2-8.8-8.53,2.93-15.86,9.33-15.86,9.33Zm34.38,63.57c11.73-4,28.75-13.46,22.33-32.12-5.32-15.45-18.77-14.7-29.69-10.94a82.73,82.73,0,0,0-15.79,7.82l13,37.83A61.82,61.82,0,0,0,801.05,1279.81Z"/><path class="cls-1" d="M1006.23,1052.81c19.72,27.12,37,66.15,11.64,101.29l22.54,31-52.19,38-22.54-31c-41.68,13.59-73.28-15-93-42.12-10.61-14.58-17.28-28.55-20.78-35.76l48.54-35.3c27.18,37.38,28,39.53,30,42.26,6.13,8.44,18.63,21.3,30.93,12.35l1.37-1c12.31-9,4.14-25-2-33.4-2-2.73-3.77-4.23-30.95-41.6l48.54-35.3C984.66,1028.42,996,1038.68,1006.23,1052.81Z"/><circle class="cls-2" cx="547.3" cy="521.66" r="514.07"/><path class="cls-3" d="M613.74,717.6l48.69-55.74H771.58l98.74,53.06-30.6,44.2s-51.38,23.64-111.14-7.93l-40.77,7.93S623.82,772,613.74,717.6Z"/><path class="cls-4" d="M687.81,677.3s-53.09,2.37-63.91,55.25c0,0-54.49-56.45,8-113.61l55.93-86.66-32.89-27.39L598.15,531.8l-33.74-8.53L582,483,683.6,421.92l38.95,41.29,12,24,73.22-9.81,71.28,19.53,28.88-55.5,66.7,22.8,73,51.64s-11.74,26.42-14.79,27.76-57.08.67-57.08.67l-33.58-21-10.87,25.07S985.4,599.49,992.5,761c0,0-55.22,317.47-541.72,269.9L575.24,898.22l112.57-139.1,39.82-14.38,69.19,27.08,57.67-27.08s-33.91-67.75-125-55.35Z"/><path class="cls-3" d="M702.49,753.06,477.36,1013.8s61.83,24.72,169.13,21.93,135.08-47.91,159.48-90S885.9,841,857.25,803.34s-79.73-41.78-79.73-41.78l-34.25-16.43Z"/><path class="cls-3" d="M697.38,632.59s62.79,1.73,89.33-95c0,0,4.58,71.28.57,119.45l-14.68-9.3Z"/><path class="cls-5" d="M662.43,809l-48.69,58.44s319,59.82,382.85-76.55l-6.71-49.06S926.73,845.89,662.43,809Z"/><path class="cls-6" d="M36.3,610.75S143.83,1032,469.2,1030.87L351.91,337.08,269,369.26s-70,28.42-87.59,16.51C181.42,385.77,142.42,524.53,36.3,610.75Z"/><path class="cls-7" d="M269,163.11s47.2-39.84,145.56-6.82c0,0,57.88,9.72,161.85-33.71,0,0,63.67,11.64,48.44,125.16S466,341.62,417.37,310.69c0,0-7.54,69.41,103.56,90.89h58.75s6.68,65.35-96.31,59.08l-77.52-23.84s-66.66,3.24-70.25-11.08,1-34-7.09-42.1-28.73-10.74-28.73-10.74-25.83,5.41-27.69-28.64C272.09,344.26,298.25,239.89,269,163.11Z"/><path class="cls-3" d="M341.6,427.15s25.21,84.11-19,87.43S196.05,747.2,252.94,906.44s295.11,120.21,295.11,120.21-71.8-333.08-83.17-570.11C464.88,456.54,364.84,392.81,341.6,427.15Z"/><path class="cls-8" d="M263.46,175.24s-46.16-20.63-99.4,87.17,34.52,121.23,34.52,121.23,65.38,9,73.51-39.38C272.09,344.26,321.17,197,263.46,175.24Z"/><path class="cls-5" d="M166.77,447.77l-45.33,80.71S213,596.05,358.22,626.74h111l-6.76-101.86S354,565.89,166.77,447.77Z"/><ellipse class="cls-9" cx="654.92" cy="943.78" rx="36.44" ry="29.09" transform="translate(-445.6 1273.17) rotate(-71.9)"/><ellipse class="cls-9" cx="679.54" cy="878.22" rx="24.33" ry="27.15" transform="translate(-293.09 1413.97) rotate(-81.12)"/><path class="cls-9" d="M695.82,697.65c-10.43-11.88-43.55-51.43-9.54-63.44,31.51-11.12,85.91,0,95,7.22,10.89,8.68,14,34.78-44.2,64.44C726.7,711.15,708.6,712.2,695.82,697.65Z"/><path class="cls-9" d="M704.46,697a74.31,74.31,0,0,0-.77,21.89,94.34,94.34,0,0,0,2,11.8,79.92,79.92,0,0,0,4.26,12,63.7,63.7,0,0,0,13.77,20c7.93,7.85,17.51,13.23,27.85,17.2a92.82,92.82,0,0,0,15.88,4.43,158.32,158.32,0,0,0,23.28,2.64,121.73,121.73,0,0,0,12.38,0c2.74-.17,5.48-.59,8.2-1a80.8,80.8,0,0,0,18.59-5,90.81,90.81,0,0,0,14.44-7,77.19,77.19,0,0,0,13.6-10.69A73.92,73.92,0,0,0,877.15,729a106.47,106.47,0,0,0,2.22-13.05c.4-3.21-1.81-7.45-4-9.63a13.62,13.62,0,0,0-19.28,0L854,709.05a13.53,13.53,0,0,0-1.86,6.88c-.05.35-.09.7-.14,1.05l.49-3.62a71.87,71.87,0,0,1-4.81,18l1.38-3.26a59.81,59.81,0,0,1-7.64,13.13l2.13-2.76A59.69,59.69,0,0,1,833,749l2.76-2.13a68.68,68.68,0,0,1-15.2,8.77l3.25-1.37a81.61,81.61,0,0,1-16.9,5c-1.16.21-2.31.4-3.48.55l3.63-.48a100.14,100.14,0,0,1-18.16.3c-3.82-.2-7.64-.53-11.44-1l3.62.49a96.6,96.6,0,0,1-24.61-6.4l3.26,1.38a65.51,65.51,0,0,1-14.47-8.34l2.76,2.13a54.7,54.7,0,0,1-9.72-9.69l2.13,2.75a54.12,54.12,0,0,1-7-12l1.37,3.25a62.4,62.4,0,0,1-4.24-15.83l.49,3.63a70,70,0,0,1-.37-15.38q.12-1.21.27-2.43l-.48,3.62c.07-.5.14-1,.23-1.51a14.59,14.59,0,0,0-1.37-10.5,13.9,13.9,0,0,0-8.15-6.26c-3.49-.8-7.4-.62-10.5,1.37-2.85,1.84-5.59,4.69-6.26,8.15Z"/><path class="cls-9" d="M710.42,732.59a43.22,43.22,0,0,1-7.08,6.57L706.1,737a59.65,59.65,0,0,1-12.89,7.53l3.26-1.37a57.59,57.59,0,0,1-14.11,3.88l3.62-.49a59.85,59.85,0,0,1-15.82,0l3.63.49a74.6,74.6,0,0,1-18.48-5.23l3.25,1.37a73.28,73.28,0,0,1-15.8-9.16l2.76,2.13a80,80,0,0,1-13.93-14l2.14,2.76A92.53,92.53,0,0,1,622,704.67l1.37,3.26a96.15,96.15,0,0,1-6.56-23.82l.49,3.62a83.66,83.66,0,0,1-.12-22.13l-.49,3.62a67.89,67.89,0,0,1,4.46-16.74l-1.38,3.26a58,58,0,0,1,7.18-12.48L624.81,646a58,58,0,0,1,9.65-9.66,128,128,0,0,0,12.16-11.23A231.59,231.59,0,0,0,670,595.79c12.48-18.19,22.86-37.67,33.47-57,4.17-7.59,8.2-15.63,13.48-22.54L714.79,519a35.33,35.33,0,0,1,6.34-6.12L718.37,515a87.42,87.42,0,0,1,19.08-10.64l-3.26,1.37a180,180,0,0,1,45.56-12.05l-3.62.48a170.35,170.35,0,0,1,44.66-.4l-3.62-.49a111,111,0,0,1,28.15,7.41l-3.26-1.37c10.08,4.31,19.37,10.61,28.81,16.15,7.26,4.27,18.12.52,20-8.14a152.07,152.07,0,0,1,8.51-26.17L898,484.43a95.65,95.65,0,0,1,11.78-21l-2.13,2.76a46.63,46.63,0,0,1,8.06-8.25L913,460a30.54,30.54,0,0,1,6.29-3.74L916,457.67a18.7,18.7,0,0,1,4.47-1.26l-3.62.48a28.62,28.62,0,0,1,7.51.11l-3.63-.49a74.76,74.76,0,0,1,18.54,5.61L936,460.75c13.82,5.87,26.82,13.65,39.46,21.72,11.73,7.49,23.15,15.44,34.57,23.4,4.39,3.06,9,5.88,13.27,9.15l-2.76-2.13a36.36,36.36,0,0,1,6.09,6.12l-2.13-2.76a36.29,36.29,0,0,1,4.62,7.86l-1.37-3.25a31.24,31.24,0,0,1,2.09,7.46l-.49-3.62a24.29,24.29,0,0,1,0,6.43l.49-3.62a20.66,20.66,0,0,1-1.34,4.88l1.37-3.26a18.5,18.5,0,0,1-2.29,3.89l2.13-2.76a20,20,0,0,1-3.4,3.36l2.76-2.13a24.41,24.41,0,0,1-4.94,2.83l3.26-1.37a35.34,35.34,0,0,1-8.66,2.28l3.63-.48a62.74,62.74,0,0,1-16.37-.19l3.63.49a92.38,92.38,0,0,1-22.8-6.48l3.26,1.38c-12.69-5.37-24.4-12.81-35.3-21.19l2.76,2.13A184.6,184.6,0,0,1,935.28,491c-4.87-5.23-14.41-5.3-19.27,0a13.91,13.91,0,0,0,0,19.27,179.25,179.25,0,0,0,19.33,17.52c15.25,12.2,31.63,22.75,50.14,29.3a90.09,90.09,0,0,0,30.27,5.34c8.89-.06,18.85-1.68,26.33-6.84,6.72-4.64,12.09-11.24,13.85-19.39a38.33,38.33,0,0,0-1.48-21.7A49.84,49.84,0,0,0,1042,495.41c-4.31-4-9.4-7-14.21-10.34-11.41-7.91-22.74-15.91-34.38-23.48-13-8.44-26.29-16.62-40.43-23-12.65-5.71-27.63-11.78-41.72-8.07-7.86,2.07-15.05,7.42-20.39,13.42a89.59,89.59,0,0,0-13.46,20.38A171.22,171.22,0,0,0,865,498.24c-.15.62-.3,1.24-.44,1.86l20-8.14c-13-7.61-25.46-15.78-39.86-20.43-23.93-7.73-49.82-7.4-74.43-3.81a189.69,189.69,0,0,0-32,7.49,136,136,0,0,0-27.9,12.32A57.92,57.92,0,0,0,691.63,505c-4.74,7.09-8.78,14.65-12.87,22.12-11.12,20.33-22.14,40.8-35.67,59.67q-2.61,3.65-5.35,7.19l2.13-2.76a158.42,158.42,0,0,1-22.63,24.17,82,82,0,0,0-10,9.31A69.2,69.2,0,0,0,598.06,638c-9.77,19.19-10.82,41.45-5.89,62.19,4.74,19.95,15.64,39.6,31.34,53,19.22,16.39,45.37,24.87,70.39,19.41a67.29,67.29,0,0,0,23.58-10.3,65.71,65.71,0,0,0,11.8-10c.14-.15.28-.31.41-.47,2.36-2.89,4-5.78,4-9.64a13.87,13.87,0,0,0-4-9.64,13.73,13.73,0,0,0-9.64-4c-3.39.15-7.39,1.24-9.63,4Z"/><path class="cls-9" d="M936.79,520.09l-12,19.82-1.71,2.84a9.29,9.29,0,0,0-1.13,6.06c.25,1.88,1.06,4.22,2.61,5.45.48.38.93.81,1.38,1.24,1.34,1.27,2.59,2.64,3.8,4q1.54,1.8,3,3.69l-1.48-1.93a124.6,124.6,0,0,1,7.24,10.55A176.12,176.12,0,0,1,947,587.34c1.8,3.69,3.48,7.43,5.08,11.21l-1-2.27a298.06,298.06,0,0,1,11.13,31.5,427.56,427.56,0,0,1,10,42q2.68,14.34,4.61,28.81l-.34-2.53c3.22,24.08,5.06,48.33,5.94,72.6q.42,11.91.56,23.84c0,5,4.32,9.73,9.49,9.5s9.56-4.17,9.5-9.5c-.21-18-.88-36-2.18-54q-1.73-24.07-5.07-48c-1.79-12.86-4-25.67-6.72-38.36-2.28-10.57-4.92-21.06-8-31.41-2.56-8.47-5.43-16.84-8.71-25.06-2.9-7.26-6-14.44-9.6-21.41-2.48-4.83-5.15-9.58-8.09-14.15a137.78,137.78,0,0,0-8.24-11.42,72.87,72.87,0,0,0-4.91-5.62,29.63,29.63,0,0,0-2.31-2.17l-.1-.08,1.49,11.51,12-19.82,1.71-2.84c2.57-4.26,1.09-10.62-3.4-13a9.69,9.69,0,0,0-13,3.4Z"/><path class="cls-9" d="M741.72,478.5a170.92,170.92,0,0,0-9.94-26.42,108.9,108.9,0,0,0-10.5-18.54c-5.21-7.24-11.15-14-18.93-18.56-6.25-3.66-13.53-5.71-20.79-4.89a63.5,63.5,0,0,0-11.13,2.09,107.73,107.73,0,0,0-11.71,4.48c-13.72,5.89-26.43,14.17-38.67,22.65s-23.9,17.39-35.6,26.42c-4,3.09-8,6.21-12.08,9.2a58.58,58.58,0,0,0-8.55,7.16,51.41,51.41,0,0,0-6.91,9.29,45.31,45.31,0,0,0-6.13,21.55,33.15,33.15,0,0,0,1.53,10.75,34.25,34.25,0,0,0,6.87,12,28.75,28.75,0,0,0,8.94,6.88,40.51,40.51,0,0,0,12.31,4.06,65.31,65.31,0,0,0,15.86.63,94,94,0,0,0,16.48-2.89c19.15-5.32,36.09-16.24,51.45-28.55a205.17,205.17,0,0,0,24.87-23.47c.38-.43.76-.86,1.14-1.31,2.38-2.81,4-5.83,4-9.63a13.89,13.89,0,0,0-4-9.64c-2.6-2.39-6-4.16-9.64-4-3.44.15-7.33,1.26-9.64,4a179.07,179.07,0,0,1-18.39,18.36q-5.09,4.5-10.47,8.66l2.76-2.14a143.6,143.6,0,0,1-31.55,19l3.26-1.38a84.15,84.15,0,0,1-21,5.94l3.62-.48a57.36,57.36,0,0,1-14.81.22l3.62.48a31.53,31.53,0,0,1-7.89-2.06l3.25,1.38a22.46,22.46,0,0,1-4.85-2.79l2.76,2.13a18.8,18.8,0,0,1-3.32-3.29l2.13,2.76a18.9,18.9,0,0,1-2.33-4l1.38,3.25a20.28,20.28,0,0,1-1.34-5l.49,3.62a25,25,0,0,1,0-6.52l-.48,3.62a31.73,31.73,0,0,1,2.16-7.8l-1.37,3.26a35.88,35.88,0,0,1,4.57-7.83L581,503.82a35.1,35.1,0,0,1,6.18-6.24l-2.75,2.13q13.86-10.68,27.85-21.24c12.64-9.54,25.49-18.85,39-27.08A168,168,0,0,1,672.94,440l-3.26,1.38A59.07,59.07,0,0,1,684.53,437l-3.62.48a25.47,25.47,0,0,1,6.41-.09l-3.62-.49a19.81,19.81,0,0,1,4.94,1.42l-3.26-1.37a31.68,31.68,0,0,1,6.67,4l-2.76-2.13a51.44,51.44,0,0,1,9.12,9.35l-2.14-2.76c5.77,7.5,10.14,16,13.82,24.71l-1.37-3.26a167.6,167.6,0,0,1,6.38,17.8c.12.39.23.78.34,1.17a14.12,14.12,0,0,0,6.26,8.15A13.64,13.64,0,0,0,740.35,489a14.25,14.25,0,0,0,1.37-10.51Z"/><path class="cls-9" d="M654.23,511.3l12.92,19.23,1.84,2.75a10.1,10.1,0,0,0,5.68,4.36,9.49,9.49,0,0,0,10.72-13.95l-12.91-19.23-1.85-2.74a10.11,10.11,0,0,0-5.67-4.37,9.75,9.75,0,0,0-7.32,1,9.59,9.59,0,0,0-4.36,5.68,9.47,9.47,0,0,0,1,7.31Z"/><path class="cls-9" d="M676,758c-2.14,3.14-4.33,6.24-6.52,9.34q-9.1,12.81-18.53,25.4-7.44,10-15,19.81l2.13-2.76q-13.14,17-26.74,33.67-15.81,19.37-32.23,38.22-17.94,20.57-36.68,40.44Q522.64,943,501.85,963q-21.08,20.21-43.35,39.09-2.73,2.29-5.47,4.56c-2.54,2.1-4,6.47-4,9.64a13.88,13.88,0,0,0,4,9.64c2.6,2.38,6,4.15,9.64,4l3.62-.49a13.63,13.63,0,0,0,6-3.5q18.27-15.13,35.68-31.28t33.92-32.82q16.17-16.33,31.71-33.27,14.79-16.08,29.07-32.63,13.2-15.27,26-30.89,11.36-13.85,22.39-28,10.39-13.27,20.55-26.74,7.18-9.55,14.21-19.23,4.75-6.55,9.41-13.16c1.4-2,2.82-4,4.16-6l.18-.25c1.9-2.81,2.25-7.32,1.37-10.5a14,14,0,0,0-6.26-8.15c-3.17-1.67-7-2.51-10.51-1.37A15.09,15.09,0,0,0,676,758Z"/><path class="cls-9" d="M654.93,828.77c2.19.36,4.39.67,6.59,1q10.83,1.51,21.69,2.69,13.85,1.49,27.75,2.41,17.4,1.17,34.84,1.5,19.88.38,39.77-.45c14.18-.61,28.36-1.72,42.45-3.47a442.1,442.1,0,0,0,46.16-8,293.47,293.47,0,0,0,41.09-12.69,224.59,224.59,0,0,0,40-20.08,166.7,166.7,0,0,0,33.46-28.14Q992,759.9,995,756a15.28,15.28,0,0,0,4-9.64,13.89,13.89,0,0,0-4-9.64c-2.6-2.39-6-4.16-9.64-4-3.34.15-7.49,1.21-9.64,4a145.12,145.12,0,0,1-25.86,25.67l2.76-2.14a184.43,184.43,0,0,1-32.71,20q-5,2.4-10.1,4.55l3.26-1.37c-20.86,8.79-42.87,14.66-65.12,18.67-6.34,1.15-12.7,2.13-19.09,3l3.62-.48c-13.67,1.82-27.42,3-41.2,3.78q-19.47,1-39,.81Q734.95,809,717.59,808q-14.25-.82-28.46-2.22-10.1-1-20.15-2.28l-1.84-.25,3.63.49c-2.72-.37-5.43-.75-8.14-1.18l-.45-.07c-3.72-.62-7.13-.6-10.5,1.37a13.91,13.91,0,0,0-6.27,8.15c-.79,3.49-.62,7.41,1.38,10.5,1.81,2.81,4.71,5.7,8.14,6.27Z"/><path class="cls-9" d="M615,884.19c8.64,1.41,17.35,2.5,26,3.55q28.82,3.48,57.81,5.25c26.27,1.63,52.62,2.26,78.93,1.56a614.89,614.89,0,0,0,89-8.45c28.16-4.89,55.89-12.56,81.8-24.78q4.18-2,8.3-4.15c6.31-3.34,8.76-12.65,4.89-18.65a13.94,13.94,0,0,0-18.65-4.89q-8.1,4.27-16.55,7.83l3.26-1.37c-21.82,9.2-44.9,15.19-68.17,19.35q-10.23,1.83-20.54,3.21l3.62-.49c-17.1,2.29-34.31,3.74-51.55,4.56-16.65.79-33.33,1-50,.75q-22.73-.36-45.42-1.8-18.91-1.2-37.79-3.09-13.57-1.38-27.11-3.13l-2.5-.33,3.62.49q-5.58-.75-11.16-1.6l-.61-.1c-3.73-.61-7.12-.61-10.5,1.37a13.9,13.9,0,0,0-6.26,8.15c-.8,3.49-.63,7.4,1.37,10.5,1.8,2.8,4.71,5.71,8.15,6.26Z"/><path class="cls-9" d="M670.74,596.25l.18-.24-2.14,2.76a59.05,59.05,0,0,1,7.11-7.55q1.79-1.62,3.68-3.09l-2.76,2.13a50.51,50.51,0,0,1,11-6.53l-3.26,1.38a36.37,36.37,0,0,1,9.14-2.57L690,583a31.05,31.05,0,0,1,8.34,0l-3.62-.49a32.67,32.67,0,0,1,8.17,2.29l-3.25-1.38a42.58,42.58,0,0,1,9,5.36l-2.76-2.13a67.59,67.59,0,0,1,11.67,12l-2.13-2.76A117.35,117.35,0,0,1,724,609a14.08,14.08,0,0,0,8.14,6.27,13.9,13.9,0,0,0,10.5-1.38c2.91-1.87,5.48-4.67,6.27-8.14a14.32,14.32,0,0,0-1.38-10.51c-11.25-19.64-29.29-40.22-54-39.7-14.92.31-28.47,8-38.91,18.28a73.12,73.12,0,0,0-7.47,8.72c-2,2.67-2.22,7.45-1.38,10.5a13.92,13.92,0,0,0,6.27,8.15c3.16,1.67,7,2.51,10.5,1.37l3.26-1.37a13.64,13.64,0,0,0,4.89-4.89Z"/><path class="cls-9" d="M819.53,604.67l.18-.23-2.13,2.75a59.05,59.05,0,0,1,7.11-7.55c1.19-1.08,2.41-2.11,3.68-3.09l-2.76,2.13a50.68,50.68,0,0,1,10.94-6.53l-3.25,1.38a36.8,36.8,0,0,1,9.14-2.57l-3.63.49a31.13,31.13,0,0,1,8.35,0l-3.63-.49a32.75,32.75,0,0,1,8.18,2.29l-3.26-1.38a42.4,42.4,0,0,1,9,5.36l-2.76-2.13a67.59,67.59,0,0,1,11.67,12l-2.13-2.75a116.22,116.22,0,0,1,8.58,13,14.06,14.06,0,0,0,8.15,6.27,13.66,13.66,0,0,0,16.77-9.52,14.32,14.32,0,0,0-1.38-10.51c-11.25-19.64-29.29-40.22-54-39.7-14.92.31-28.47,8.05-38.91,18.28a72.08,72.08,0,0,0-7.47,8.72c-2,2.67-2.22,7.45-1.38,10.5a13.89,13.89,0,0,0,6.27,8.15c3.16,1.67,7,2.51,10.5,1.37l3.25-1.37a13.64,13.64,0,0,0,4.89-4.89Z"/><path class="cls-9" d="M264.59,162.39a38.79,38.79,0,0,0-20.74,1.05c-9.93,3.28-18.45,9.16-26.21,16.06a125,125,0,0,0-12.37,12.84,244.33,244.33,0,0,0-16,21.33c-12.35,18.38-22.61,38.13-32,58.17q-4.46,9.54-8.62,19.2c-3.35,7.75-6.79,15.52-9.77,23.42A52.48,52.48,0,0,0,136,325.4a59.63,59.63,0,0,0-.85,13.92,60.46,60.46,0,0,0,7.68,25.31,68.71,68.71,0,0,0,14.94,17.85,103.36,103.36,0,0,0,44,21.81,110.13,110.13,0,0,0,24.87,2.85,84.15,84.15,0,0,0,23.51-3.32c15-4.53,29.06-14.43,35.41-29.16a67.83,67.83,0,0,0,3-7.89c.78-2.73,1.51-5.48,2.22-8.22q2.47-9.48,4.61-19.05c3.22-14.46,5.92-29.05,7.91-43.74,1.15-8.41,2.18-16.83,2.88-25.3.29-3.5-1.82-7.8-4.23-10.21A14.64,14.64,0,0,0,291.81,256c-3.74.16-7.61,1.39-10.22,4.23l-2.26,2.92a14.5,14.5,0,0,0-2,7.29c-.56,6.87-1.32,13.71-2.23,20.53l.51-3.84a532,532,0,0,1-13.07,65.32,83.43,83.43,0,0,1-3.36,11.06l1.46-3.46a37.79,37.79,0,0,1-4.77,8.18l2.26-2.92a37.94,37.94,0,0,1-6.79,6.73l2.92-2.26a45,45,0,0,1-9.91,5.7l3.46-1.45a60.86,60.86,0,0,1-15.36,4l3.85-.51a84.46,84.46,0,0,1-22.18-.15L218,378a98.07,98.07,0,0,1-25-6.82l3.45,1.46a84.14,84.14,0,0,1-18.55-10.69l2.92,2.26a63.29,63.29,0,0,1-11.41-11.25l2.26,2.92a49.13,49.13,0,0,1-6.34-10.73l1.45,3.45a43.31,43.31,0,0,1-3-11.06l.52,3.84a44.12,44.12,0,0,1,.05-11.65l-.52,3.84c1.19-8.61,5-16.53,8.31-24.46l-1.45,3.45c6.79-16.09,14-32,22.06-47.52a383.6,383.6,0,0,1,20-34.59c3.25-4.93,6.65-9.75,10.25-14.42l-2.26,2.92a138.42,138.42,0,0,1,17.49-19.12c1.42-1.26,2.89-2.48,4.39-3.64l-2.92,2.26a56.54,56.54,0,0,1,12.43-7.49l-3.45,1.45A33.26,33.26,0,0,1,257,190l-3.84.52a22.74,22.74,0,0,1,6-.05L255.3,190c.54.07,1.08.17,1.61.29A15.25,15.25,0,0,0,268,188.8a14.73,14.73,0,0,0,6.64-8.63c.84-3.7.66-7.85-1.46-11.14-2-3.08-5-5.8-8.63-6.64Z"/><path class="cls-9" d="M185.61,381c-1.3,2.81-2.67,5.59-4,8.36Q176,400.6,170.19,411.63q-8.59,16.25-17.81,32.16Q141.3,463,129.27,481.57C120.56,495,111.44,508.18,101.79,521c-1.21,1.6-2.42,3.18-3.64,4.77l2.26-2.93c-7,9.07-14.29,17.92-22,26.44a319.36,319.36,0,0,1-23.24,23.45q-6.59,6-13.61,11.42l2.92-2.26q-3.45,2.65-7,5.17c-3.14,2.2-5.59,4.83-6.64,8.63a14.76,14.76,0,0,0,1.46,11.13c2,3.09,5,5.81,8.63,6.64s8,.76,11.14-1.45a250.45,250.45,0,0,0,26.41-21.46c7.95-7.4,15.47-15.26,22.66-23.4,8.24-9.32,16-19,23.55-28.91q10.29-13.44,19.79-27.45,9.26-13.58,17.92-27.53,8-12.89,15.61-26.06,6.6-11.45,12.89-23.07,5.08-9.4,10-18.92,3.36-6.56,6.6-13.16c1-2,2-4.09,2.95-6.15l.12-.26a10.58,10.58,0,0,0,1.71-5.37,11,11,0,0,0-.25-5.76,14.78,14.78,0,0,0-6.64-8.63c-3.36-1.78-7.42-2.66-11.14-1.46-3.38,1.1-7.07,3.28-8.63,6.64Z"/><path class="cls-9" d="M349.44,267.08a53.37,53.37,0,0,1,0-8.85c.1-1.62.26-3.23.47-4.84l-.51,3.84a55.6,55.6,0,0,1,3.73-14.17l-1.46,3.45a40.21,40.21,0,0,1,5.12-8.87l-2.26,2.93a33.22,33.22,0,0,1,5.85-5.88L357.43,237a33.83,33.83,0,0,1,7.47-4.35l-3.45,1.46a41.24,41.24,0,0,1,10.23-2.72l-3.84.52a63.27,63.27,0,0,1,16.61.2l-3.84-.52a114.2,114.2,0,0,1,19.89,4.73,14.46,14.46,0,0,0,17.77-10.09c.84-3.7.66-7.85-1.45-11.14a15.76,15.76,0,0,0-8.64-6.64,131,131,0,0,0-23.87-5.26,64.1,64.1,0,0,0-15.9-.25,69.57,69.57,0,0,0-10.14,1.75,59.4,59.4,0,0,0-9,3.47,44.45,44.45,0,0,0-11.68,8.13c-6.51,6.11-10.85,14.17-13.65,22.56a76.65,76.65,0,0,0-3.46,19.76,58.88,58.88,0,0,0,0,8.4.49.49,0,0,0,0,.12,16,16,0,0,0,4.23,10.22A14.73,14.73,0,0,0,335,281.53c3.73-.17,7.61-1.4,10.21-4.23,2.45-2.66,4.61-6.47,4.24-10.22Z"/><path class="cls-9" d="M367.16,421.54a61.78,61.78,0,0,0,6.09,7.95A104.31,104.31,0,0,0,389,443.69a123.69,123.69,0,0,0,23.66,14.15A181.38,181.38,0,0,0,452.52,471a260.69,260.69,0,0,0,54.4,5,230.33,230.33,0,0,0,29.33-2.2,121.57,121.57,0,0,0,19.88-4.27c11.14-3.49,22-8.8,30.37-17a50,50,0,0,0,14.89-40.95,56,56,0,0,0-2.22-11.76c0-.12-.08-.24-.13-.36-1.33-3.45-3.2-6.82-6.64-8.64L589,389.34a14.51,14.51,0,0,0-7.68,0l-3.84.53,3.84-.51c-18.17,2.43-36.58,3.59-54.9,2.39-4.38-.29-8.76-.72-13.11-1.3l3.84.52a145.42,145.42,0,0,1-36.92-9.7l3.45,1.45a105.39,105.39,0,0,1-23.32-13.47l2.92,2.26a92.72,92.72,0,0,1-16.64-16.6l2.26,2.92a94.2,94.2,0,0,1-12.06-20.7l1.46,3.45a97.86,97.86,0,0,1-6.09-20.3c-.26-1.43-.49-2.86-.68-4.29l.51,3.84c-.29-2.23-.48-4.45-.58-6.69,0-.13,0-.26,0-.39l-18.29,13.93A397,397,0,0,0,455.84,341a296.48,296.48,0,0,0,41,7.94,187.93,187.93,0,0,0,32.25,1.32,155.88,155.88,0,0,0,31-4.54,124.22,124.22,0,0,0,26.21-10.11,112,112,0,0,0,21.33-14.71,113.23,113.23,0,0,0,16.75-18.58,106.85,106.85,0,0,0,10.79-18.15,145,145,0,0,0,8.67-23.07,165.26,165.26,0,0,0,4.55-24.47,153.94,153.94,0,0,0,1.08-20.92,187.2,187.2,0,0,0-2.13-24,138,138,0,0,0-11.74-39.39,85.72,85.72,0,0,0-8.21-14.24c-3.52-4.86-7.3-9.62-12-13.42a54.36,54.36,0,0,0-17.34-10A42.29,42.29,0,0,0,580.22,113a160.58,160.58,0,0,0-42.39,9.77c-11.46,4.46-22.38,10-33.38,15.48-4.61,2.3-9.25,4.54-14,6.55l3.45-1.45a109.21,109.21,0,0,1-27.44,7.8l3.84-.52a112.71,112.71,0,0,1-29.81-.25l3.85.52A181.71,181.71,0,0,1,417.45,145c-10.31-3.05-20.37-6.67-30.88-9-17.67-4-36.13-6-54.22-4.19a147.77,147.77,0,0,0-23.35,4,137.33,137.33,0,0,0-19.57,7,112.34,112.34,0,0,0-24.7,15.08,61.32,61.32,0,0,0-8.35,7.67l-.1.12c-2.51,3-4.23,6.15-4.23,10.21a14.73,14.73,0,0,0,4.23,10.22c2.76,2.53,6.37,4.41,10.22,4.23,3.62-.16,7.8-1.32,10.22-4.23a56.62,56.62,0,0,1,9-8.22l-2.92,2.26a100,100,0,0,1,22-12.73l-3.45,1.46a118.64,118.64,0,0,1,29.94-8.1l-3.84.52a148.57,148.57,0,0,1,39.52.26l-3.84-.52A192.8,192.8,0,0,1,386,165.58c8.31,2.19,16.37,5.14,24.61,7.54,14.06,4.09,28.73,6.93,43.4,7.3a113.53,113.53,0,0,0,33.6-4.18c9.86-2.79,19.32-7,28.51-11.53,9.43-4.63,18.69-9.58,28.37-13.67L541,152.5A150.22,150.22,0,0,1,579,142l-3.84.52c4.54-.6,9.18-1.29,13.76-.68l-3.84-.51a29.59,29.59,0,0,1,7.39,2L589,141.93a36.67,36.67,0,0,1,8,4.72l-2.93-2.26a53.22,53.22,0,0,1,9.35,9.5L601.15,151a81.63,81.63,0,0,1,8.79,14.45c.76,1.57,1.47,3.16,2.15,4.76l-1.46-3.45a130.69,130.69,0,0,1,7.8,26.34c.51,2.7.94,5.41,1.31,8.14l-.52-3.85a157.12,157.12,0,0,1,1,32.08c-.22,3.1-.55,6.2-1,9.29l.52-3.84a137,137,0,0,1-6.32,26.72c-.84,2.43-1.77,4.83-2.76,7.19l1.45-3.45a110,110,0,0,1-10.33,19.1c-1.16,1.7-2.36,3.37-3.62,5l2.26-2.92a97.24,97.24,0,0,1-17.25,17.27l2.92-2.26a98.93,98.93,0,0,1-21.88,12.69l3.45-1.46a119,119,0,0,1-30.23,8l3.84-.51a167.76,167.76,0,0,1-35.7.69c-3.78-.31-7.56-.73-11.32-1.23l3.84.52c-20-2.71-39.53-7.92-58.55-14.48q-9.46-3.27-18.78-7c-4.16-1.65-9.27,0-12.59,2.58a14.17,14.17,0,0,0-5.7,11.35,85.73,85.73,0,0,0,1.79,15.15,110.19,110.19,0,0,0,10.3,29.75,102.12,102.12,0,0,0,26.17,32.68,116.52,116.52,0,0,0,22.68,14.8,144.7,144.7,0,0,0,29.85,10.73c26.28,6.25,53.78,6.34,80.49,3.32,5.07-.57,10.12-1.25,15.17-2l-17.78-10.09a32.73,32.73,0,0,1,1.74,7.44l-.52-3.84a41.23,41.23,0,0,1,0,10.76l.51-3.84a35.85,35.85,0,0,1-2.45,9l1.46-3.45a36.06,36.06,0,0,1-4.63,7.88l2.26-2.93a41.57,41.57,0,0,1-7.27,7.19l2.92-2.26a58.23,58.23,0,0,1-12.92,7.38l3.45-1.46A108,108,0,0,1,528.56,446l3.84-.52c-20.5,2.74-41.7,2.25-62.18-.49l3.84.51a181.92,181.92,0,0,1-46-12.1l3.46,1.45a125.72,125.72,0,0,1-28-16.07l2.92,2.26a87.24,87.24,0,0,1-12.9-12.07c-.65-.77-1.29-1.54-1.9-2.33l2.26,2.92a26.83,26.83,0,0,1-1.82-2.55,15,15,0,0,0-8.63-6.64,14.74,14.74,0,0,0-11.14,1.45c-6.48,4.19-9.37,12.86-5.18,19.77Z"/><path class="cls-9" d="M443.89,461.57c.14,3,.31,6.08.48,9.12q.72,12.76,1.58,25.53,1.29,19.38,2.83,38.74Q450.72,559.52,453,584q2.67,28.26,5.86,56.47Q462.55,672.79,467,705q4.31,31.27,9.56,62.39c3.47,20.39,7.31,40.72,11.68,60.94,4.12,19.06,8.7,38,14,56.78a507.23,507.23,0,0,0,16.45,49.12c1.81,4.56,3.72,9.09,5.68,13.59,1.35,3.09,5.54,5.78,8.64,6.64A14.76,14.76,0,0,0,544.18,953c3.08-2,5.8-5,6.64-8.63.92-4,.18-7.38-1.46-11.14-.53-1.21-1.05-2.43-1.57-3.65l1.46,3.45c-11.5-27.27-19.72-55.9-26.76-84.61-8.11-33.13-14.5-66.67-20-100.33q-4.77-29.17-8.67-58.49l.52,3.84q-4.63-34.5-8.34-69.13-3.35-31.07-6.06-62.2-2.21-25.3-4-50.63-1.26-17.49-2.3-35c-.29-4.89-.49-9.78-.81-14.67v-.2c-.36-7.54-6.39-14.81-14.45-14.45-7.52.34-14.84,6.37-14.45,14.45Z"/><path class="cls-9" d="M506.43,148.5s35.41,105.08,121.87,36.95c0,0,.76-59.94-42.85-58.29S506.43,148.5,506.43,148.5Z"/><path class="cls-9" d="M160.15,458c1,.9,2,1.76,3.06,2.62,3.85,3.2,7.82,6.25,11.84,9.23q7.22,5.37,14.77,10.26,10,6.51,20.37,12.29,12.57,7,25.65,13c11.16,5.15,22.55,9.86,34.12,14,11.8,4.27,23.82,8,36,11.11a405.61,405.61,0,0,0,40.83,8.31,452.26,452.26,0,0,0,48.88,4.78,433.09,433.09,0,0,0,49.92-.9q6.39-.48,12.78-1.14a16,16,0,0,0,10.21-4.23,14.69,14.69,0,0,0,4.24-10.22c-.17-3.73-1.4-7.61-4.24-10.21-2.65-2.44-6.47-4.62-10.21-4.24a435,435,0,0,1-80.77.93q-10.31-.87-20.54-2.24l3.84.52a409.16,409.16,0,0,1-44.31-8.47A397.3,397.3,0,0,1,278,491.71q-9.78-3.52-19.36-7.56l3.46,1.45a378.79,378.79,0,0,1-38.82-19c-9.3-5.25-18.39-10.91-27.15-17-3.42-2.4-6.79-4.86-10.1-7.42l2.92,2.26c-2.69-2.08-5.35-4.22-7.91-6.47-.14-.12-.28-.24-.41-.37a15.19,15.19,0,0,0-10.22-4.23,14.75,14.75,0,0,0-10.22,4.23c-2.52,2.76-4.4,6.37-4.23,10.22s1.39,7.62,4.23,10.22Z"/><path class="cls-9" d="M121.84,535.68c6,4.9,12.37,9.46,18.76,13.88a513.69,513.69,0,0,0,44.22,27.23,570.58,570.58,0,0,0,70.94,32.85A479.19,479.19,0,0,0,342.17,634c34,6.12,68.64,8.65,103.12,6.28,4.36-.3,8.7-.68,13-1.12,3.93-.41,7.32-1.35,10.21-4.24a14.65,14.65,0,0,0,4.24-10.21c-.17-3.74-1.4-7.61-4.24-10.22-2.65-2.44-6.47-4.62-10.21-4.23a391.18,391.18,0,0,1-73.55.53q-9.85-.84-19.65-2.16l3.84.51a446.85,446.85,0,0,1-51.15-10c-15.79-4-31.38-8.91-46.69-14.5q-12.06-4.41-23.9-9.41l3.45,1.46a551.88,551.88,0,0,1-60.6-30.11c-13.18-7.6-26.08-15.73-38.5-24.51-3.5-2.47-7-5-10.35-7.61l2.93,2.26c-.64-.49-1.27-1-1.9-1.49-3.07-2.49-6.1-4.23-10.21-4.23a14.69,14.69,0,0,0-10.22,4.23c-2.53,2.75-4.4,6.37-4.23,10.22.16,3.59,1.31,7.85,4.23,10.21Z"/><path class="cls-1" d="M1046.19,528.51q0,20.5-1.62,41-.78,9.91-1.94,19.81c-.2,1.64-.41,3.27-.61,4.91,0,.18-.32,2.5-.09.79.24-1.88-.15,1.06-.21,1.48-.46,3.25-.94,6.5-1.46,9.75a511.22,511.22,0,0,1-18.54,77q-5.94,18.27-13.23,36c-.31.77-1.91,4.59-.84,2q-.93,2.21-1.88,4.39-2.06,4.68-4.18,9.33-4,8.65-8.28,17.15a513,513,0,0,1-39.44,65.4q-5.65,8-11.61,15.72c1.54-2-.39.5-.93,1.19l-2.93,3.69Q935.25,842.1,932,846,920,860.46,906.88,874q-13.3,13.8-27.61,26.58-7,6.28-14.27,12.3-3.63,3-7.31,6c-1.22,1-2.46,2-3.69,2.93L852.41,923c-2,1.54,2.77-2.09-.66.51a530.53,530.53,0,0,1-63.86,41.68q-17,9.35-34.59,17.4c-2.69,1.22-5.38,2.43-8.09,3.61l-4.39,1.88c2.56-1.08-1.77.73-2.68,1.1q-8.86,3.63-17.87,6.92a509.66,509.66,0,0,1-75.2,21.11q-10,2-20,3.59c-3,.47-6,.93-9,1.35-.42.06-3.36.45-1.48.21,1.71-.23-.61.07-.79.09-1.87.23-3.74.47-5.62.69q-20.21,2.36-40.56,3.11a519.08,519.08,0,0,1-81-3.28c-1.64-.19-3.28-.4-4.92-.61-1.8-.23.28.05.54.08l-2.8-.39q-4.87-.69-9.75-1.48-9.67-1.56-19.31-3.49-19.41-3.92-38.49-9.31-18.89-5.35-37.31-12.14-9-3.31-17.85-7l-2.53-1.05c.24.1,2.1.89.49.21l-4.39-1.9q-4.36-1.91-8.7-3.9A513.29,513.29,0,0,1,274,944.61q-15.77-10.38-30.76-21.89c2.3,1.76-1.15-.9-1.71-1.35-1.24-1-2.47-1.94-3.69-2.93-2.63-2.1-5.23-4.24-7.82-6.39q-7.23-6-14.24-12.34a516.44,516.44,0,0,1-52.6-54.77q-3-3.63-5.95-7.31c-1-1.23-2-2.47-2.92-3.7-.42-.53-.83-1.06-1.24-1.6.92,1.19.67.89-.09-.12-3.94-5.2-7.82-10.43-11.57-15.76q-11.1-15.72-21-32.25-9.75-16.29-18.28-33.26-4.28-8.52-8.23-17.18-2-4.34-3.88-8.72c-.3-.68-1.89-4.41-1.38-3.2.65,1.54-.23-.55-.29-.71L87.09,718a508.38,508.38,0,0,1-23.75-74.06q-4.62-19.38-7.72-39.09-.7-4.53-1.34-9.06c-.08-.54-.39-3,0-.17l-.27-2.1c-.23-1.87-.46-3.75-.67-5.62q-1.14-9.9-1.9-19.82a520.63,520.63,0,0,1,.17-81.22q.83-10.26,2.06-20.5c.2-1.64.41-3.27.61-4.91-.33,2.63.09-.65.22-1.56q.75-5.24,1.59-10.44,3.21-19.65,7.93-39a523.52,523.52,0,0,1,24.14-73.88c.25-.64.52-1.26.78-1.9-1.06,2.55-.14.34.07-.14l1.62-3.76q2.06-4.68,4.19-9.32,4.14-9,8.61-17.75,8.59-16.9,18.45-33.15,10-16.46,21.16-32.14,2.53-3.56,5.15-7.09,1.4-1.89,2.82-3.78c.54-.71,1.08-1.43,1.63-2.14.16-.22,1.85-2.42.86-1.14s.36-.46.47-.59c.55-.71,1.1-1.42,1.66-2.12q1.46-1.84,2.94-3.69,3.15-3.93,6.4-7.8a515.58,515.58,0,0,1,52.89-54.5q7-6.25,14.3-12.26,3.65-3,7.33-5.94c1-.84,2.11-1.67,3.17-2.5.32-.25,2.55-2,1.12-.88-1.28,1,.92-.7,1.14-.86q15.31-11.62,31.42-22.14a512.2,512.2,0,0,1,67.1-36.81q4.35-2,8.73-3.87c.67-.29,4.73-2,2-.88l5.06-2.08q8.88-3.6,17.9-6.87,18.13-6.57,36.72-11.76,19.1-5.32,38.56-9.16,9.63-1.89,19.34-3.42,4.88-.77,9.76-1.44c1.79-.25-.28,0-.54.07l2.81-.35c1.87-.24,3.74-.46,5.62-.68a521.08,521.08,0,0,1,81-2.83q20.3.87,40.5,3.33l4.21.53c-3-.38,1.51.22,2.25.32q5.24.75,10.44,1.61,9.67,1.59,19.29,3.55a507.87,507.87,0,0,1,75.72,21.65c6,2.22,11.92,4.59,17.83,7,.16.06,2.25.94.71.29s1,.4,1.32.57l3.76,1.63q4.68,2.05,9.32,4.2,17.57,8.13,34.48,17.57,16.53,9.24,32.35,19.67,8.17,5.39,16.13,11.08,3.57,2.55,7.08,5.16c1.27.93,2.53,1.88,3.78,2.82.77.59,4.44,3.41,2.27,1.73a515.21,515.21,0,0,1,56.41,50.88q13.26,13.85,25.46,28.66,3,3.64,5.92,7.33l2.5,3.18c.32.41,1.76,2.28.1.12l1.64,2.14q5.7,7.51,11.14,15.24a512.08,512.08,0,0,1,39.49,66.17q4.26,8.52,8.19,17.2,2,4.35,3.86,8.73c.35.82,1.59,3.77.6,1.4.7,1.69,1.4,3.37,2.09,5.06q7.35,18.12,13.29,36.77a511.38,511.38,0,0,1,18,76.44c.5,3.25,1,6.51,1.42,9.77-.38-2.83.17,1.42.28,2.27.2,1.64.39,3.28.58,4.92q1.08,9.54,1.81,19.12c1,13.16,1.49,26.34,1.51,39.54a15.18,15.18,0,0,0,30.36,0A525.73,525.73,0,0,0,979.7,223.59,539.41,539.41,0,0,0,868.14,108.08a528,528,0,0,0-727.25,83.56A537.51,537.51,0,0,0,58.33,329.71,524.65,524.65,0,0,0,21.1,488.26a528.82,528.82,0,0,0,308.23,521.42,530.79,530.79,0,0,0,325.18,36.57A524.54,524.54,0,0,0,805,990.45a530.54,530.54,0,0,0,216.07-226,523.58,523.58,0,0,0,49-153.64,549.05,549.05,0,0,0,6.47-82.29,15.18,15.18,0,0,0-30.36,0Z"/><ellipse class="cls-9" cx="367.62" cy="689.87" rx="29.14" ry="36.49" transform="translate(-47.43 27.45) rotate(-4.02)"/><ellipse class="cls-9" cx="367.62" cy="620.19" rx="24.36" ry="27.19" transform="translate(-283.29 930.17) rotate(-84.81)"/></g></g></svg>